# MagicaVoxel @ Ephtracy

# group
o 

# material
mtllib box_seta.mtl
usemtl palette

# normals
vn -1 0 0
vn 1 0 0
vn 0 0 1
vn 0 0 -1
vn 0 -1 0
vn 0 1 0

# texcoords
vt 0.208984 0.5
vt 0.341797 0.5
vt 0.373047 0.5
vt 0.560547 0.5

# verts
v -0.5 0 0.5
v -0.5 0 -0.5
v -0.5 0.1 0.4
v -0.5 0.1 -0.4
v -0.5 1.1 0.4
v -0.5 1.1 -0.4
v -0.5 1.2 0.5
v -0.5 1.2 -0.5
v -0.4 0 0.6
v -0.4 0 0.5
v -0.4 0 -0.5
v -0.4 0 -0.6
v -0.4 1.2 0.6
v -0.4 1.2 0.5
v -0.4 1.2 -0.5
v -0.4 1.2 -0.6
v 0.6 0.7 0.5
v 0.6 0.7 0.3
v 0.6 0.7 -0.3
v 0.6 0.7 -0.5
v 0.6 1.1 0.5
v 0.6 1.1 -0.5
v 0.6 1.2 0.5
v 0.6 1.2 0.3
v 0.6 1.2 -0.3
v 0.6 1.2 -0.5
v 0.7 0.7 0.3
v 0.7 0.7 -0.3
v 0.7 1.1 0.3
v 0.7 1.1 -0.3
v 0.7 1.2 0.3
v 0.7 1.2 -0.3
v -0.4 0.7 0.3
v -0.4 0.7 -0.3
v -0.4 1.1 0.3
v -0.4 1.1 -0.3
v -0.4 1.2 0.3
v -0.4 1.2 -0.3
v -0.3 0.7 0.5
v -0.3 0.7 0.3
v -0.3 0.7 -0.3
v -0.3 0.7 -0.5
v -0.3 1.1 0.5
v -0.3 1.1 -0.5
v -0.3 1.2 0.5
v -0.3 1.2 0.3
v -0.3 1.2 -0.3
v -0.3 1.2 -0.5
v 0.7 0 0.6
v 0.7 0 0.5
v 0.7 0 -0.5
v 0.7 0 -0.6
v 0.7 1.2 0.6
v 0.7 1.2 0.5
v 0.7 1.2 -0.5
v 0.7 1.2 -0.6
v 0.8 0 0.5
v 0.8 0 -0.5
v 0.8 0.1 0.4
v 0.8 0.1 -0.4
v 0.8 1.1 0.4
v 0.8 1.1 -0.4
v 0.8 1.2 0.5
v 0.8 1.2 -0.5
v -0.4 0 0.6
v -0.4 1.2 0.6
v -0.3 0.1 0.6
v -0.3 1.1 0.6
v -0.2 0.5 0.6
v -0.2 0.6 0.6
v -0.1 0.6 0.6
v -0.1 0.7 0.6
v 0 0.4 0.6
v 0 0.5 0.6
v 0 0.6 0.6
v 0 0.7 0.6
v 0 0.8 0.6
v 0.1 0.8 0.6
v 0.1 0.9 0.6
v 0.2 0.8 0.6
v 0.2 0.9 0.6
v 0.3 0.4 0.6
v 0.3 0.5 0.6
v 0.3 0.6 0.6
v 0.3 0.7 0.6
v 0.3 0.8 0.6
v 0.4 0.6 0.6
v 0.4 0.7 0.6
v 0.5 0.5 0.6
v 0.5 0.6 0.6
v 0.6 0.1 0.6
v 0.6 1.1 0.6
v 0.7 0 0.6
v 0.7 1.2 0.6
v -0.5 0 0.5
v -0.5 1.2 0.5
v -0.4 0 0.5
v -0.4 1.2 0.5
v 0.7 0 0.5
v 0.7 1.2 0.5
v 0.8 0 0.5
v 0.8 1.2 0.5
v -0.4 0.7 -0.3
v -0.4 1.1 -0.3
v -0.4 1.2 -0.3
v -0.3 0.7 -0.3
v -0.3 1.2 -0.3
v 0.6 0.7 -0.3
v 0.6 1.2 -0.3
v 0.7 0.7 -0.3
v 0.7 1.1 -0.3
v 0.7 1.2 -0.3
v -0.3 0.7 -0.5
v -0.3 1.1 -0.5
v -0.3 1.2 -0.5
v 0.6 0.7 -0.5
v 0.6 1.1 -0.5
v 0.6 1.2 -0.5
v -0.3 0.7 0.5
v -0.3 1.1 0.5
v -0.3 1.2 0.5
v 0 0.7 0.5
v 0 0.8 0.5
v 0.1 0.8 0.5
v 0.1 0.9 0.5
v 0.2 0.8 0.5
v 0.2 0.9 0.5
v 0.3 0.7 0.5
v 0.3 0.8 0.5
v 0.6 0.7 0.5
v 0.6 1.1 0.5
v 0.6 1.2 0.5
v -0.4 0.7 0.3
v -0.4 1.1 0.3
v -0.4 1.2 0.3
v -0.3 0.7 0.3
v -0.3 1.2 0.3
v 0.6 0.7 0.3
v 0.6 1.2 0.3
v 0.7 0.7 0.3
v 0.7 1.1 0.3
v 0.7 1.2 0.3
v -0.5 0 -0.5
v -0.5 1.2 -0.5
v -0.4 0 -0.5
v -0.4 1.2 -0.5
v 0.7 0 -0.5
v 0.7 1.2 -0.5
v 0.8 0 -0.5
v 0.8 1.2 -0.5
v -0.4 0 -0.6
v -0.4 1.2 -0.6
v -0.3 0.1 -0.6
v -0.3 1.1 -0.6
v 0.6 0.1 -0.6
v 0.6 1.1 -0.6
v 0.7 0 -0.6
v 0.7 1.2 -0.6
v -0.4 0 0.6
v 0.7 0 0.6
v -0.5 0 0.5
v -0.4 0 0.5
v 0.7 0 0.5
v 0.8 0 0.5
v -0.4 0 -0.4
v -0.3 0 -0.4
v 0.6 0 -0.4
v 0.7 0 -0.4
v -0.5 0 -0.5
v -0.4 0 -0.5
v -0.3 0 -0.5
v 0.6 0 -0.5
v 0.7 0 -0.5
v 0.8 0 -0.5
v -0.4 0 -0.6
v 0.7 0 -0.6
v -0.3 0.7 0.5
v 0 0.7 0.5
v 0.3 0.7 0.5
v 0.6 0.7 0.5
v -0.4 0.7 0.3
v -0.3 0.7 0.3
v 0.6 0.7 0.3
v 0.7 0.7 0.3
v -0.4 0.7 -0.3
v -0.3 0.7 -0.3
v 0.6 0.7 -0.3
v 0.7 0.7 -0.3
v -0.3 0.7 -0.5
v 0.6 0.7 -0.5
v -0.4 1.2 0.6
v 0.7 1.2 0.6
v -0.5 1.2 0.5
v -0.4 1.2 0.5
v -0.3 1.2 0.5
v 0.6 1.2 0.5
v 0.7 1.2 0.5
v 0.8 1.2 0.5
v -0.4 1.2 0.3
v -0.3 1.2 0.3
v 0.6 1.2 0.3
v 0.7 1.2 0.3
v -0.4 1.2 -0.3
v -0.3 1.2 -0.3
v 0.6 1.2 -0.3
v 0.7 1.2 -0.3
v -0.5 1.2 -0.5
v -0.4 1.2 -0.5
v -0.3 1.2 -0.5
v 0.6 1.2 -0.5
v 0.7 1.2 -0.5
v 0.8 1.2 -0.5
v -0.4 1.2 -0.6
v 0.7 1.2 -0.6

# faces
f 3/3/1 2/3/1 1/3/1
f 4/3/1 2/3/1 3/3/1
f 5/3/1 3/3/1 1/3/1
f 5/1/1 4/1/1 3/1/1
f 6/3/1 2/3/1 4/3/1
f 6/1/1 4/1/1 5/1/1
f 7/3/1 5/3/1 1/3/1
f 7/3/1 6/3/1 5/3/1
f 8/3/1 2/3/1 6/3/1
f 8/3/1 6/3/1 7/3/1
f 13/3/1 10/3/1 9/3/1
f 14/3/1 10/3/1 13/3/1
f 15/3/1 12/3/1 11/3/1
f 16/3/1 12/3/1 15/3/1
f 21/3/1 18/3/1 17/3/1
f 22/3/1 20/3/1 19/3/1
f 23/3/1 18/3/1 21/3/1
f 24/3/1 18/3/1 23/3/1
f 25/3/1 22/3/1 19/3/1
f 26/3/1 22/3/1 25/3/1
f 29/1/1 28/1/1 27/1/1
f 30/1/1 28/1/1 29/1/1
f 31/3/1 30/3/1 29/3/1
f 32/3/1 30/3/1 31/3/1
f 33/1/2 34/1/2 35/1/2
f 35/1/2 34/1/2 36/1/2
f 35/3/2 36/3/2 37/3/2
f 37/3/2 36/3/2 38/3/2
f 39/3/2 40/3/2 43/3/2
f 41/3/2 42/3/2 44/3/2
f 43/3/2 40/3/2 45/3/2
f 45/3/2 40/3/2 46/3/2
f 41/3/2 44/3/2 47/3/2
f 47/3/2 44/3/2 48/3/2
f 49/3/2 50/3/2 53/3/2
f 53/3/2 50/3/2 54/3/2
f 51/3/2 52/3/2 55/3/2
f 55/3/2 52/3/2 56/3/2
f 57/3/2 58/3/2 59/3/2
f 59/3/2 58/3/2 60/3/2
f 57/3/2 59/3/2 61/3/2
f 59/1/2 60/1/2 61/1/2
f 60/3/2 58/3/2 62/3/2
f 61/1/2 60/1/2 62/1/2
f 57/3/2 61/3/2 63/3/2
f 61/3/2 62/3/2 63/3/2
f 62/3/2 58/3/2 64/3/2
f 63/3/2 62/3/2 64/3/2
f 67/3/3 66/3/3 65/3/3
f 68/3/3 66/3/3 67/3/3
f 69/1/3 68/1/3 67/1/3
f 70/1/3 68/1/3 69/1/3
f 71/4/3 70/4/3 69/4/3
f 71/1/3 68/1/3 70/1/3
f 72/1/3 68/1/3 71/1/3
f 73/1/3 69/1/3 67/1/3
f 74/4/3 71/4/3 69/4/3
f 74/1/3 69/1/3 73/1/3
f 74/4/3 72/4/3 71/4/3
f 75/4/3 72/4/3 74/4/3
f 76/1/3 68/1/3 72/1/3
f 76/4/3 72/4/3 75/4/3
f 77/1/3 68/1/3 76/1/3
f 78/4/3 76/4/3 75/4/3
f 78/1/3 68/1/3 77/1/3
f 78/4/3 77/4/3 76/4/3
f 79/1/3 68/1/3 78/1/3
f 80/4/3 78/4/3 75/4/3
f 80/4/3 79/4/3 78/4/3
f 81/1/3 68/1/3 79/1/3
f 81/4/3 79/4/3 80/4/3
f 82/2/3 75/2/3 74/2/3
f 82/1/3 73/1/3 67/1/3
f 82/2/3 74/2/3 73/2/3
f 83/2/3 75/2/3 82/2/3
f 84/4/3 80/4/3 75/4/3
f 84/2/3 75/2/3 83/2/3
f 85/4/3 80/4/3 84/4/3
f 86/1/3 81/1/3 80/1/3
f 86/4/3 80/4/3 85/4/3
f 87/4/3 85/4/3 84/4/3
f 87/4/3 84/4/3 83/4/3
f 88/1/3 86/1/3 85/1/3
f 88/4/3 85/4/3 87/4/3
f 89/1/3 83/1/3 82/1/3
f 89/4/3 87/4/3 83/4/3
f 90/1/3 88/1/3 87/1/3
f 90/4/3 87/4/3 89/4/3
f 91/3/3 67/3/3 65/3/3
f 91/1/3 82/1/3 67/1/3
f 91/1/3 90/1/3 89/1/3
f 91/1/3 89/1/3 82/1/3
f 92/1/3 88/1/3 90/1/3
f 92/1/3 90/1/3 91/1/3
f 92/3/3 66/3/3 68/3/3
f 92/1/3 86/1/3 88/1/3
f 92/1/3 81/1/3 86/1/3
f 92/1/3 68/1/3 81/1/3
f 93/3/3 91/3/3 65/3/3
f 93/3/3 92/3/3 91/3/3
f 94/3/3 66/3/3 92/3/3
f 94/3/3 92/3/3 93/3/3
f 97/3/3 96/3/3 95/3/3
f 98/3/3 96/3/3 97/3/3
f 101/3/3 100/3/3 99/3/3
f 102/3/3 100/3/3 101/3/3
f 106/3/3 104/3/3 103/3/3
f 106/3/3 105/3/3 104/3/3
f 107/3/3 105/3/3 106/3/3
f 110/3/3 109/3/3 108/3/3
f 111/3/3 109/3/3 110/3/3
f 112/3/3 109/3/3 111/3/3
f 116/1/3 114/1/3 113/1/3
f 117/3/3 115/3/3 114/3/3
f 117/1/3 114/1/3 116/1/3
f 118/3/3 115/3/3 117/3/3
f 119/1/4 120/1/4 122/1/4
f 122/1/4 120/1/4 123/1/4
f 122/4/4 123/4/4 124/4/4
f 123/1/4 120/1/4 124/1/4
f 124/1/4 120/1/4 125/1/4
f 122/4/4 124/4/4 126/4/4
f 124/4/4 125/4/4 126/4/4
f 125/1/4 120/1/4 127/1/4
f 126/4/4 125/4/4 127/4/4
f 122/4/4 126/4/4 128/4/4
f 126/1/4 127/1/4 129/1/4
f 128/4/4 126/4/4 129/4/4
f 128/1/4 129/1/4 130/1/4
f 120/3/4 121/3/4 131/3/4
f 130/1/4 129/1/4 131/1/4
f 127/1/4 120/1/4 131/1/4
f 129/1/4 127/1/4 131/1/4
f 131/3/4 121/3/4 132/3/4
f 133/3/4 134/3/4 136/3/4
f 134/3/4 135/3/4 136/3/4
f 136/3/4 135/3/4 137/3/4
f 138/3/4 139/3/4 140/3/4
f 140/3/4 139/3/4 141/3/4
f 141/3/4 139/3/4 142/3/4
f 143/3/4 144/3/4 145/3/4
f 145/3/4 144/3/4 146/3/4
f 147/3/4 148/3/4 149/3/4
f 149/3/4 148/3/4 150/3/4
f 151/3/4 152/3/4 153/3/4
f 153/3/4 152/3/4 154/3/4
f 151/3/4 153/3/4 155/3/4
f 153/1/4 154/1/4 155/1/4
f 154/3/4 152/3/4 156/3/4
f 155/1/4 154/1/4 156/1/4
f 151/3/4 155/3/4 157/3/4
f 155/3/4 156/3/4 157/3/4
f 156/3/4 152/3/4 158/3/4
f 157/3/4 156/3/4 158/3/4
f 162/3/5 160/3/5 159/3/5
f 163/3/5 160/3/5 162/3/5
f 165/3/5 162/3/5 161/3/5
f 165/1/5 163/1/5 162/1/5
f 166/1/5 163/1/5 165/1/5
f 167/1/5 163/1/5 166/1/5
f 168/3/5 164/3/5 163/3/5
f 168/1/5 163/1/5 167/1/5
f 169/3/5 165/3/5 161/3/5
f 169/3/5 166/3/5 165/3/5
f 170/3/5 166/3/5 169/3/5
f 171/1/5 167/1/5 166/1/5
f 171/3/5 166/3/5 170/3/5
f 172/3/5 168/3/5 167/3/5
f 172/1/5 167/1/5 171/1/5
f 173/3/5 164/3/5 168/3/5
f 173/3/5 168/3/5 172/3/5
f 174/3/5 164/3/5 173/3/5
f 175/3/5 172/3/5 171/3/5
f 175/3/5 173/3/5 172/3/5
f 175/3/5 171/3/5 170/3/5
f 176/3/5 173/3/5 175/3/5
f 177/3/6 178/3/6 182/3/6
f 179/3/6 180/3/6 182/3/6
f 178/3/6 179/3/6 182/3/6
f 182/3/6 180/3/6 183/3/6
f 181/3/6 182/3/6 185/3/6
f 183/3/6 184/3/6 185/3/6
f 182/3/6 183/3/6 185/3/6
f 185/3/6 184/3/6 186/3/6
f 186/3/6 184/3/6 187/3/6
f 187/3/6 184/3/6 188/3/6
f 186/3/6 187/3/6 189/3/6
f 189/3/6 187/3/6 190/3/6
f 191/3/6 192/3/6 194/3/6
f 194/3/6 192/3/6 195/3/6
f 195/3/6 192/3/6 196/3/6
f 196/3/6 192/3/6 197/3/6
f 193/3/6 194/3/6 199/3/6
f 194/3/6 195/3/6 199/3/6
f 199/3/6 195/3/6 200/3/6
f 197/3/6 198/3/6 201/3/6
f 196/3/6 197/3/6 201/3/6
f 201/3/6 198/3/6 202/3/6
f 193/3/6 199/3/6 203/3/6
f 202/3/6 198/3/6 206/3/6
f 203/3/6 204/3/6 207/3/6
f 193/3/6 203/3/6 207/3/6
f 207/3/6 204/3/6 208/3/6
f 208/3/6 204/3/6 209/3/6
f 205/3/6 206/3/6 210/3/6
f 206/3/6 198/3/6 211/3/6
f 210/3/6 206/3/6 211/3/6
f 211/3/6 198/3/6 212/3/6
f 208/3/6 209/3/6 213/3/6
f 209/3/6 210/3/6 213/3/6
f 210/3/6 211/3/6 213/3/6
f 213/3/6 211/3/6 214/3/6
