# MagicaVoxel @ Ephtracy

# group
o 

# material
mtllib box_pasta.mtl
usemtl palette

# normals
vn -1 0 0
vn 1 0 0
vn 0 0 1
vn 0 0 -1
vn 0 -1 0
vn 0 1 0

# texcoords
vt 0.181641 0.5
vt 0.208984 0.5
vt 0.373047 0.5

# verts
v -0.5 0 0.5
v -0.5 0 -0.5
v -0.5 0.1 0.4
v -0.5 0.1 -0.4
v -0.5 1.1 0.4
v -0.5 1.1 -0.4
v -0.5 1.2 0.5
v -0.5 1.2 -0.5
v -0.4 0 0.6
v -0.4 0 0.5
v -0.4 0 -0.5
v -0.4 0 -0.6
v -0.4 1.2 0.6
v -0.4 1.2 0.5
v -0.4 1.2 -0.5
v -0.4 1.2 -0.6
v 0.6 0.7 0.5
v 0.6 0.7 0.3
v 0.6 0.7 -0.3
v 0.6 0.7 -0.5
v 0.6 1.1 0.5
v 0.6 1.1 -0.5
v 0.6 1.2 0.5
v 0.6 1.2 0.3
v 0.6 1.2 -0.3
v 0.6 1.2 -0.5
v 0.7 0.7 0.3
v 0.7 0.7 -0.3
v 0.7 1.1 0.3
v 0.7 1.1 -0.3
v 0.7 1.2 0.3
v 0.7 1.2 -0.3
v -0.4 0.7 0.3
v -0.4 0.7 -0.3
v -0.4 1.1 0.3
v -0.4 1.1 -0.3
v -0.4 1.2 0.3
v -0.4 1.2 -0.3
v -0.3 0.7 0.5
v -0.3 0.7 0.3
v -0.3 0.7 -0.3
v -0.3 0.7 -0.5
v -0.3 1.1 0.5
v -0.3 1.1 -0.5
v -0.3 1.2 0.5
v -0.3 1.2 0.3
v -0.3 1.2 -0.3
v -0.3 1.2 -0.5
v 0.7 0 0.6
v 0.7 0 0.5
v 0.7 0 -0.5
v 0.7 0 -0.6
v 0.7 1.2 0.6
v 0.7 1.2 0.5
v 0.7 1.2 -0.5
v 0.7 1.2 -0.6
v 0.8 0 0.5
v 0.8 0 -0.5
v 0.8 0.1 0.4
v 0.8 0.1 -0.4
v 0.8 1.1 0.4
v 0.8 1.1 -0.4
v 0.8 1.2 0.5
v 0.8 1.2 -0.5
v -0.4 0 0.6
v -0.4 1.2 0.6
v -0.3 0.1 0.6
v -0.3 1.1 0.6
v -0.2 0.7 0.6
v -0.2 0.8 0.6
v -0.1 0.6 0.6
v -0.1 0.7 0.6
v -0.1 0.8 0.6
v -0.1 0.9 0.6
v 0 0.5 0.6
v 0 0.6 0.6
v 0 0.7 0.6
v 0 0.8 0.6
v 0 0.9 0.6
v 0.1 0.4 0.6
v 0.1 0.5 0.6
v 0.1 0.6 0.6
v 0.1 0.7 0.6
v 0.1 0.8 0.6
v 0.2 0.3 0.6
v 0.2 0.4 0.6
v 0.2 0.5 0.6
v 0.2 0.6 0.6
v 0.2 0.7 0.6
v 0.3 0.2 0.6
v 0.3 0.3 0.6
v 0.3 0.4 0.6
v 0.3 0.5 0.6
v 0.3 0.6 0.6
v 0.4 0.2 0.6
v 0.4 0.3 0.6
v 0.4 0.4 0.6
v 0.4 0.5 0.6
v 0.5 0.3 0.6
v 0.5 0.4 0.6
v 0.6 0.1 0.6
v 0.6 1.1 0.6
v 0.7 0 0.6
v 0.7 1.2 0.6
v -0.5 0 0.5
v -0.5 1.2 0.5
v -0.4 0 0.5
v -0.4 1.2 0.5
v 0.7 0 0.5
v 0.7 1.2 0.5
v 0.8 0 0.5
v 0.8 1.2 0.5
v -0.4 0.7 -0.3
v -0.4 1.1 -0.3
v -0.4 1.2 -0.3
v -0.3 0.7 -0.3
v -0.3 1.2 -0.3
v 0.6 0.7 -0.3
v 0.6 1.2 -0.3
v 0.7 0.7 -0.3
v 0.7 1.1 -0.3
v 0.7 1.2 -0.3
v -0.3 0.7 -0.5
v -0.3 1.1 -0.5
v -0.3 1.2 -0.5
v 0.6 0.7 -0.5
v 0.6 1.1 -0.5
v 0.6 1.2 -0.5
v -0.3 0.7 0.5
v -0.3 1.1 0.5
v -0.3 1.2 0.5
v -0.2 0.7 0.5
v -0.2 0.8 0.5
v -0.1 0.7 0.5
v -0.1 0.8 0.5
v -0.1 0.9 0.5
v 0 0.7 0.5
v 0 0.8 0.5
v 0 0.9 0.5
v 0.1 0.7 0.5
v 0.1 0.8 0.5
v 0.6 0.7 0.5
v 0.6 1.1 0.5
v 0.6 1.2 0.5
v -0.4 0.7 0.3
v -0.4 1.1 0.3
v -0.4 1.2 0.3
v -0.3 0.7 0.3
v -0.3 1.2 0.3
v 0.6 0.7 0.3
v 0.6 1.2 0.3
v 0.7 0.7 0.3
v 0.7 1.1 0.3
v 0.7 1.2 0.3
v -0.5 0 -0.5
v -0.5 1.2 -0.5
v -0.4 0 -0.5
v -0.4 1.2 -0.5
v 0.7 0 -0.5
v 0.7 1.2 -0.5
v 0.8 0 -0.5
v 0.8 1.2 -0.5
v -0.4 0 -0.6
v -0.4 1.2 -0.6
v -0.3 0.1 -0.6
v -0.3 1.1 -0.6
v 0.6 0.1 -0.6
v 0.6 1.1 -0.6
v 0.7 0 -0.6
v 0.7 1.2 -0.6
v -0.4 0 0.6
v 0.7 0 0.6
v -0.5 0 0.5
v -0.4 0 0.5
v 0.7 0 0.5
v 0.8 0 0.5
v -0.4 0 -0.4
v -0.3 0 -0.4
v 0.6 0 -0.4
v 0.7 0 -0.4
v -0.5 0 -0.5
v -0.4 0 -0.5
v -0.3 0 -0.5
v 0.6 0 -0.5
v 0.7 0 -0.5
v 0.8 0 -0.5
v -0.4 0 -0.6
v 0.7 0 -0.6
v -0.3 0.7 0.5
v -0.2 0.7 0.5
v -0.1 0.7 0.5
v 0 0.7 0.5
v 0.1 0.7 0.5
v 0.6 0.7 0.5
v -0.4 0.7 0.3
v -0.3 0.7 0.3
v 0.6 0.7 0.3
v 0.7 0.7 0.3
v -0.4 0.7 -0.3
v -0.3 0.7 -0.3
v 0.6 0.7 -0.3
v 0.7 0.7 -0.3
v -0.3 0.7 -0.5
v 0.6 0.7 -0.5
v -0.4 1.2 0.6
v 0.7 1.2 0.6
v -0.5 1.2 0.5
v -0.4 1.2 0.5
v -0.3 1.2 0.5
v 0.6 1.2 0.5
v 0.7 1.2 0.5
v 0.8 1.2 0.5
v -0.4 1.2 0.3
v -0.3 1.2 0.3
v 0.6 1.2 0.3
v 0.7 1.2 0.3
v -0.4 1.2 -0.3
v -0.3 1.2 -0.3
v 0.6 1.2 -0.3
v 0.7 1.2 -0.3
v -0.5 1.2 -0.5
v -0.4 1.2 -0.5
v -0.3 1.2 -0.5
v 0.6 1.2 -0.5
v 0.7 1.2 -0.5
v 0.8 1.2 -0.5
v -0.4 1.2 -0.6
v 0.7 1.2 -0.6

# faces
f 3/3/1 2/3/1 1/3/1
f 4/3/1 2/3/1 3/3/1
f 5/3/1 3/3/1 1/3/1
f 5/2/1 4/2/1 3/2/1
f 6/3/1 2/3/1 4/3/1
f 6/2/1 4/2/1 5/2/1
f 7/3/1 5/3/1 1/3/1
f 7/3/1 6/3/1 5/3/1
f 8/3/1 2/3/1 6/3/1
f 8/3/1 6/3/1 7/3/1
f 13/3/1 10/3/1 9/3/1
f 14/3/1 10/3/1 13/3/1
f 15/3/1 12/3/1 11/3/1
f 16/3/1 12/3/1 15/3/1
f 21/3/1 18/3/1 17/3/1
f 22/3/1 20/3/1 19/3/1
f 23/3/1 18/3/1 21/3/1
f 24/3/1 18/3/1 23/3/1
f 25/3/1 22/3/1 19/3/1
f 26/3/1 22/3/1 25/3/1
f 29/2/1 28/2/1 27/2/1
f 30/2/1 28/2/1 29/2/1
f 31/3/1 30/3/1 29/3/1
f 32/3/1 30/3/1 31/3/1
f 33/2/2 34/2/2 35/2/2
f 35/2/2 34/2/2 36/2/2
f 35/3/2 36/3/2 37/3/2
f 37/3/2 36/3/2 38/3/2
f 39/3/2 40/3/2 43/3/2
f 41/3/2 42/3/2 44/3/2
f 43/3/2 40/3/2 45/3/2
f 45/3/2 40/3/2 46/3/2
f 41/3/2 44/3/2 47/3/2
f 47/3/2 44/3/2 48/3/2
f 49/3/2 50/3/2 53/3/2
f 53/3/2 50/3/2 54/3/2
f 51/3/2 52/3/2 55/3/2
f 55/3/2 52/3/2 56/3/2
f 57/3/2 58/3/2 59/3/2
f 59/3/2 58/3/2 60/3/2
f 57/3/2 59/3/2 61/3/2
f 59/2/2 60/2/2 61/2/2
f 60/3/2 58/3/2 62/3/2
f 61/2/2 60/2/2 62/2/2
f 57/3/2 61/3/2 63/3/2
f 61/3/2 62/3/2 63/3/2
f 62/3/2 58/3/2 64/3/2
f 63/3/2 62/3/2 64/3/2
f 67/3/3 66/3/3 65/3/3
f 68/3/3 66/3/3 67/3/3
f 69/2/3 68/2/3 67/2/3
f 70/2/3 68/2/3 69/2/3
f 71/2/3 69/2/3 67/2/3
f 72/1/3 70/1/3 69/1/3
f 72/2/3 69/2/3 71/2/3
f 73/2/3 68/2/3 70/2/3
f 73/1/3 70/1/3 72/1/3
f 74/2/3 68/2/3 73/2/3
f 75/2/3 71/2/3 67/2/3
f 76/1/3 72/1/3 71/1/3
f 76/2/3 71/2/3 75/2/3
f 77/2/3 73/2/3 72/2/3
f 77/1/3 72/1/3 76/1/3
f 78/1/3 74/1/3 73/1/3
f 78/2/3 73/2/3 77/2/3
f 79/2/3 68/2/3 74/2/3
f 79/1/3 74/1/3 78/1/3
f 80/2/3 75/2/3 67/2/3
f 81/1/3 76/1/3 75/1/3
f 81/2/3 75/2/3 80/2/3
f 82/2/3 77/2/3 76/2/3
f 82/1/3 76/1/3 81/1/3
f 83/1/3 78/1/3 77/1/3
f 83/2/3 77/2/3 82/2/3
f 84/2/3 79/2/3 78/2/3
f 84/1/3 78/1/3 83/1/3
f 85/2/3 80/2/3 67/2/3
f 86/1/3 81/1/3 80/1/3
f 86/2/3 80/2/3 85/2/3
f 87/2/3 82/2/3 81/2/3
f 87/1/3 81/1/3 86/1/3
f 88/1/3 83/1/3 82/1/3
f 88/2/3 82/2/3 87/2/3
f 89/2/3 84/2/3 83/2/3
f 89/1/3 83/1/3 88/1/3
f 90/2/3 85/2/3 67/2/3
f 91/1/3 86/1/3 85/1/3
f 91/2/3 85/2/3 90/2/3
f 92/2/3 87/2/3 86/2/3
f 92/1/3 86/1/3 91/1/3
f 93/1/3 88/1/3 87/1/3
f 93/2/3 87/2/3 92/2/3
f 94/2/3 89/2/3 88/2/3
f 94/1/3 88/1/3 93/1/3
f 95/2/3 90/2/3 67/2/3
f 95/1/3 91/1/3 90/1/3
f 96/2/3 92/2/3 91/2/3
f 96/1/3 91/1/3 95/1/3
f 97/1/3 93/1/3 92/1/3
f 97/2/3 92/2/3 96/2/3
f 98/2/3 94/2/3 93/2/3
f 98/1/3 93/1/3 97/1/3
f 99/1/3 97/1/3 96/1/3
f 99/2/3 96/2/3 95/2/3
f 100/2/3 98/2/3 97/2/3
f 100/1/3 97/1/3 99/1/3
f 101/3/3 67/3/3 65/3/3
f 101/2/3 95/2/3 67/2/3
f 101/2/3 100/2/3 99/2/3
f 101/2/3 99/2/3 95/2/3
f 102/2/3 98/2/3 100/2/3
f 102/2/3 100/2/3 101/2/3
f 102/3/3 66/3/3 68/3/3
f 102/2/3 94/2/3 98/2/3
f 102/2/3 84/2/3 89/2/3
f 102/2/3 79/2/3 84/2/3
f 102/2/3 89/2/3 94/2/3
f 102/2/3 68/2/3 79/2/3
f 103/3/3 101/3/3 65/3/3
f 103/3/3 102/3/3 101/3/3
f 104/3/3 66/3/3 102/3/3
f 104/3/3 102/3/3 103/3/3
f 107/3/3 106/3/3 105/3/3
f 108/3/3 106/3/3 107/3/3
f 111/3/3 110/3/3 109/3/3
f 112/3/3 110/3/3 111/3/3
f 116/3/3 114/3/3 113/3/3
f 116/3/3 115/3/3 114/3/3
f 117/3/3 115/3/3 116/3/3
f 120/3/3 119/3/3 118/3/3
f 121/3/3 119/3/3 120/3/3
f 122/3/3 119/3/3 121/3/3
f 126/2/3 124/2/3 123/2/3
f 127/3/3 125/3/3 124/3/3
f 127/2/3 124/2/3 126/2/3
f 128/3/3 125/3/3 127/3/3
f 129/2/4 130/2/4 132/2/4
f 132/2/4 130/2/4 133/2/4
f 132/1/4 133/1/4 134/1/4
f 133/2/4 130/2/4 135/2/4
f 134/1/4 133/1/4 135/1/4
f 135/2/4 130/2/4 136/2/4
f 134/2/4 135/2/4 137/2/4
f 135/1/4 136/1/4 138/1/4
f 137/2/4 135/2/4 138/2/4
f 136/2/4 130/2/4 139/2/4
f 138/1/4 136/1/4 139/1/4
f 137/1/4 138/1/4 140/1/4
f 138/2/4 139/2/4 141/2/4
f 140/1/4 138/1/4 141/1/4
f 140/2/4 141/2/4 142/2/4
f 130/3/4 131/3/4 143/3/4
f 142/2/4 141/2/4 143/2/4
f 139/2/4 130/2/4 143/2/4
f 141/2/4 139/2/4 143/2/4
f 143/3/4 131/3/4 144/3/4
f 145/3/4 146/3/4 148/3/4
f 146/3/4 147/3/4 148/3/4
f 148/3/4 147/3/4 149/3/4
f 150/3/4 151/3/4 152/3/4
f 152/3/4 151/3/4 153/3/4
f 153/3/4 151/3/4 154/3/4
f 155/3/4 156/3/4 157/3/4
f 157/3/4 156/3/4 158/3/4
f 159/3/4 160/3/4 161/3/4
f 161/3/4 160/3/4 162/3/4
f 163/3/4 164/3/4 165/3/4
f 165/3/4 164/3/4 166/3/4
f 163/3/4 165/3/4 167/3/4
f 165/2/4 166/2/4 167/2/4
f 166/3/4 164/3/4 168/3/4
f 167/2/4 166/2/4 168/2/4
f 163/3/4 167/3/4 169/3/4
f 167/3/4 168/3/4 169/3/4
f 168/3/4 164/3/4 170/3/4
f 169/3/4 168/3/4 170/3/4
f 174/3/5 172/3/5 171/3/5
f 175/3/5 172/3/5 174/3/5
f 177/3/5 174/3/5 173/3/5
f 177/2/5 175/2/5 174/2/5
f 178/2/5 175/2/5 177/2/5
f 179/2/5 175/2/5 178/2/5
f 180/3/5 176/3/5 175/3/5
f 180/2/5 175/2/5 179/2/5
f 181/3/5 177/3/5 173/3/5
f 181/3/5 178/3/5 177/3/5
f 182/3/5 178/3/5 181/3/5
f 183/2/5 179/2/5 178/2/5
f 183/3/5 178/3/5 182/3/5
f 184/3/5 180/3/5 179/3/5
f 184/2/5 179/2/5 183/2/5
f 185/3/5 176/3/5 180/3/5
f 185/3/5 180/3/5 184/3/5
f 186/3/5 176/3/5 185/3/5
f 187/3/5 184/3/5 183/3/5
f 187/3/5 185/3/5 184/3/5
f 187/3/5 183/3/5 182/3/5
f 188/3/5 185/3/5 187/3/5
f 189/3/6 190/3/6 196/3/6
f 193/3/6 194/3/6 196/3/6
f 192/3/6 193/3/6 196/3/6
f 191/3/6 192/3/6 196/3/6
f 190/3/6 191/3/6 196/3/6
f 196/3/6 194/3/6 197/3/6
f 195/3/6 196/3/6 199/3/6
f 197/3/6 198/3/6 199/3/6
f 196/3/6 197/3/6 199/3/6
f 199/3/6 198/3/6 200/3/6
f 200/3/6 198/3/6 201/3/6
f 201/3/6 198/3/6 202/3/6
f 200/3/6 201/3/6 203/3/6
f 203/3/6 201/3/6 204/3/6
f 205/3/6 206/3/6 208/3/6
f 208/3/6 206/3/6 209/3/6
f 209/3/6 206/3/6 210/3/6
f 210/3/6 206/3/6 211/3/6
f 207/3/6 208/3/6 213/3/6
f 208/3/6 209/3/6 213/3/6
f 213/3/6 209/3/6 214/3/6
f 211/3/6 212/3/6 215/3/6
f 210/3/6 211/3/6 215/3/6
f 215/3/6 212/3/6 216/3/6
f 207/3/6 213/3/6 217/3/6
f 216/3/6 212/3/6 220/3/6
f 217/3/6 218/3/6 221/3/6
f 207/3/6 217/3/6 221/3/6
f 221/3/6 218/3/6 222/3/6
f 222/3/6 218/3/6 223/3/6
f 219/3/6 220/3/6 224/3/6
f 220/3/6 212/3/6 225/3/6
f 224/3/6 220/3/6 225/3/6
f 225/3/6 212/3/6 226/3/6
f 222/3/6 223/3/6 227/3/6
f 223/3/6 224/3/6 227/3/6
f 224/3/6 225/3/6 227/3/6
f 227/3/6 225/3/6 228/3/6
