# MagicaVoxel @ Ephtracy

# group
o 

# material
mtllib cuchillo.mtl
usemtl palette

# normals
vn -1 0 0
vn 1 0 0
vn 0 0 1
vn 0 0 -1
vn 0 -1 0
vn 0 1 0

# texcoords
vt 0.537109 0.5
vt 0.974609 0.5
vt 0.978516 0.5
vt 0.982422 0.5

# verts
v -0.0999999 0 0.7
v -0.0999999 0 0
v -0.0999999 0.3 0.7
v -0.0999999 0.3 0
v 7.45058e-008 0 0
v 7.45058e-008 0 -0.5
v 7.45058e-008 0.3 0
v 7.45058e-008 0.3 -0.5
v 0.1 0 -0.5
v 0.1 0 -0.8
v 0.1 0.3 -0.5
v 0.1 0.3 -0.8
v 0.2 0 1.7
v 0.2 0 0.7
v 0.2 0 -0.8
v 0.2 0 -1.1
v 0.2 0.3 1.7
v 0.2 0.3 0.7
v 0.2 0.3 -0.8
v 0.2 0.3 -1.1
v 0.3 0 -1.1
v 0.3 0 -1.3
v 0.3 0.1 1.8
v 0.3 0.1 1.7
v 0.3 0.2 1.8
v 0.3 0.2 1.7
v 0.3 0.3 -1.1
v 0.3 0.3 -1.3
v 0.4 0 -1.3
v 0.4 0 -1.4
v 0.4 0.3 -1.3
v 0.4 0.3 -1.4
v 0.5 0 -1.4
v 0.5 0 -1.5
v 0.5 0.3 -1.4
v 0.5 0.3 -1.5
v 0.6 0 -1.5
v 0.6 0 -1.6
v 0.6 0.3 -1.5
v 0.6 0.3 -1.6
v 0.4 0.1 1.8
v 0.4 0.1 1.7
v 0.4 0.2 1.8
v 0.4 0.2 1.7
v 0.5 0 1.7
v 0.5 0 0.7
v 0.5 0.3 1.7
v 0.5 0.3 0.7
v 0.7 0 0.7
v 0.7 0 -1.5
v 0.7 0 -1.6
v 0.7 0.3 0.7
v 0.7 0.3 -1.5
v 0.7 0.3 -1.6
v 0.3 0.1 1.8
v 0.3 0.2 1.8
v 0.4 0.1 1.8
v 0.4 0.2 1.8
v 0.2 0 1.7
v 0.2 0.3 1.7
v 0.3 0.1 1.7
v 0.3 0.2 1.7
v 0.4 0.1 1.7
v 0.4 0.2 1.7
v 0.5 0 1.7
v 0.5 0.3 1.7
v -0.0999999 0 0.7
v -0.0999999 0.3 0.7
v 7.45058e-008 0 0.7
v 7.45058e-008 0.3 0.7
v 0.2 0 0.7
v 0.2 0.3 0.7
v 0.5 0 0.7
v 0.5 0.3 0.7
v 0.7 0 0.7
v 0.7 0.3 0.7
v -0.0999999 0 0
v -0.0999999 0.3 0
v 7.45058e-008 0 0
v 7.45058e-008 0.3 0
v 7.45058e-008 0 -0.5
v 7.45058e-008 0.3 -0.5
v 0.1 0 -0.5
v 0.1 0.3 -0.5
v 0.1 0 -0.8
v 0.1 0.3 -0.8
v 0.2 0 -0.8
v 0.2 0.3 -0.8
v 0.2 0 -1.1
v 0.2 0.3 -1.1
v 0.3 0 -1.1
v 0.3 0.3 -1.1
v 0.3 0 -1.3
v 0.3 0.3 -1.3
v 0.4 0 -1.3
v 0.4 0.3 -1.3
v 0.4 0 -1.4
v 0.4 0.3 -1.4
v 0.5 0 -1.4
v 0.5 0.3 -1.4
v 0.5 0 -1.5
v 0.5 0.3 -1.5
v 0.6 0 -1.5
v 0.6 0.3 -1.5
v 0.6 0 -1.6
v 0.6 0.3 -1.6
v 0.7 0 -1.6
v 0.7 0.3 -1.6
v 0.2 0 1.7
v 0.5 0 1.7
v 0.3 0 1.5
v 0.4 0 1.5
v 0.3 0 1.4
v 0.4 0 1.4
v 0.3 0 1
v 0.4 0 1
v 0.3 0 0.9
v 0.4 0 0.9
v -0.0999999 0 0.7
v 7.45058e-008 0 0.7
v 0.2 0 0.7
v 0.5 0 0.7
v 0.7 0 0.7
v -0.0999999 0 0
v 7.45058e-008 0 0
v 0.1 0 0
v 7.45058e-008 0 -0.5
v 0.1 0 -0.5
v 0.2 0 -0.5
v 0.1 0 -0.8
v 0.2 0 -0.8
v 0.3 0 -0.8
v 0.2 0 -1.1
v 0.3 0 -1.1
v 0.4 0 -1.1
v 0.3 0 -1.3
v 0.4 0 -1.3
v 0.5 0 -1.3
v 0.4 0 -1.4
v 0.5 0 -1.4
v 0.6 0 -1.4
v 0.5 0 -1.5
v 0.6 0 -1.5
v 0.7 0 -1.5
v 0.6 0 -1.6
v 0.7 0 -1.6
v 0.3 0.1 1.8
v 0.4 0.1 1.8
v 0.3 0.1 1.7
v 0.4 0.1 1.7
v 0.3 0.2 1.8
v 0.4 0.2 1.8
v 0.3 0.2 1.7
v 0.4 0.2 1.7
v 0.2 0.3 1.7
v 0.5 0.3 1.7
v 0.3 0.3 1.5
v 0.4 0.3 1.5
v 0.3 0.3 1.4
v 0.4 0.3 1.4
v 0.3 0.3 1
v 0.4 0.3 1
v 0.3 0.3 0.9
v 0.4 0.3 0.9
v -0.0999999 0.3 0.7
v 7.45058e-008 0.3 0.7
v 0.2 0.3 0.7
v 0.5 0.3 0.7
v 0.7 0.3 0.7
v -0.0999999 0.3 0
v 7.45058e-008 0.3 0
v 0.1 0.3 0
v 7.45058e-008 0.3 -0.5
v 0.1 0.3 -0.5
v 0.2 0.3 -0.5
v 0.1 0.3 -0.8
v 0.2 0.3 -0.8
v 0.3 0.3 -0.8
v 0.2 0.3 -1.1
v 0.3 0.3 -1.1
v 0.4 0.3 -1.1
v 0.3 0.3 -1.3
v 0.4 0.3 -1.3
v 0.5 0.3 -1.3
v 0.4 0.3 -1.4
v 0.5 0.3 -1.4
v 0.6 0.3 -1.4
v 0.5 0.3 -1.5
v 0.6 0.3 -1.5
v 0.7 0.3 -1.5
v 0.6 0.3 -1.6
v 0.7 0.3 -1.6

# faces
f 3/2/1 2/2/1 1/2/1
f 4/2/1 2/2/1 3/2/1
f 7/2/1 6/2/1 5/2/1
f 8/2/1 6/2/1 7/2/1
f 11/2/1 10/2/1 9/2/1
f 12/2/1 10/2/1 11/2/1
f 17/1/1 14/1/1 13/1/1
f 18/1/1 14/1/1 17/1/1
f 19/2/1 16/2/1 15/2/1
f 20/2/1 16/2/1 19/2/1
f 25/1/1 24/1/1 23/1/1
f 26/1/1 24/1/1 25/1/1
f 27/2/1 22/2/1 21/2/1
f 28/2/1 22/2/1 27/2/1
f 31/2/1 30/2/1 29/2/1
f 32/2/1 30/2/1 31/2/1
f 35/2/1 34/2/1 33/2/1
f 36/2/1 34/2/1 35/2/1
f 39/2/1 38/2/1 37/2/1
f 40/2/1 38/2/1 39/2/1
f 41/1/2 42/1/2 43/1/2
f 43/1/2 42/1/2 44/1/2
f 45/1/2 46/1/2 47/1/2
f 47/1/2 46/1/2 48/1/2
f 49/3/2 50/3/2 52/3/2
f 50/2/2 51/2/2 53/2/2
f 52/3/2 50/3/2 53/3/2
f 53/2/2 51/2/2 54/2/2
f 57/1/3 56/1/3 55/1/3
f 58/1/3 56/1/3 57/1/3
f 61/1/3 60/1/3 59/1/3
f 62/1/3 60/1/3 61/1/3
f 63/1/3 61/1/3 59/1/3
f 64/1/3 60/1/3 62/1/3
f 65/1/3 63/1/3 59/1/3
f 65/1/3 64/1/3 63/1/3
f 66/1/3 60/1/3 64/1/3
f 66/1/3 64/1/3 65/1/3
f 69/2/3 68/2/3 67/2/3
f 70/2/3 68/2/3 69/2/3
f 71/3/3 70/3/3 69/3/3
f 72/3/3 70/3/3 71/3/3
f 75/3/3 74/3/3 73/3/3
f 76/3/3 74/3/3 75/3/3
f 77/2/4 78/2/4 79/2/4
f 79/2/4 78/2/4 80/2/4
f 81/2/4 82/2/4 83/2/4
f 83/2/4 82/2/4 84/2/4
f 85/2/4 86/2/4 87/2/4
f 87/2/4 86/2/4 88/2/4
f 89/2/4 90/2/4 91/2/4
f 91/2/4 90/2/4 92/2/4
f 93/2/4 94/2/4 95/2/4
f 95/2/4 94/2/4 96/2/4
f 97/2/4 98/2/4 99/2/4
f 99/2/4 98/2/4 100/2/4
f 101/2/4 102/2/4 103/2/4
f 103/2/4 102/2/4 104/2/4
f 105/2/4 106/2/4 107/2/4
f 107/2/4 106/2/4 108/2/4
f 111/1/5 110/1/5 109/1/5
f 112/1/5 110/1/5 111/1/5
f 113/1/5 111/1/5 109/1/5
f 113/4/5 112/4/5 111/4/5
f 114/1/5 110/1/5 112/1/5
f 114/4/5 112/4/5 113/4/5
f 115/1/5 113/1/5 109/1/5
f 115/1/5 114/1/5 113/1/5
f 116/1/5 110/1/5 114/1/5
f 116/1/5 114/1/5 115/1/5
f 117/1/5 115/1/5 109/1/5
f 117/4/5 116/4/5 115/4/5
f 118/1/5 110/1/5 116/1/5
f 118/4/5 116/4/5 117/4/5
f 121/1/5 117/1/5 109/1/5
f 121/1/5 118/1/5 117/1/5
f 122/1/5 110/1/5 118/1/5
f 122/1/5 118/1/5 121/1/5
f 124/2/5 120/2/5 119/2/5
f 125/3/5 123/3/5 122/3/5
f 125/2/5 120/2/5 124/2/5
f 125/3/5 121/3/5 120/3/5
f 125/3/5 122/3/5 121/3/5
f 126/3/5 123/3/5 125/3/5
f 127/2/5 126/2/5 125/2/5
f 128/3/5 123/3/5 126/3/5
f 128/2/5 126/2/5 127/2/5
f 129/3/5 123/3/5 128/3/5
f 130/2/5 129/2/5 128/2/5
f 131/3/5 123/3/5 129/3/5
f 131/2/5 129/2/5 130/2/5
f 132/3/5 123/3/5 131/3/5
f 133/2/5 132/2/5 131/2/5
f 134/3/5 123/3/5 132/3/5
f 134/2/5 132/2/5 133/2/5
f 135/3/5 123/3/5 134/3/5
f 136/2/5 135/2/5 134/2/5
f 137/3/5 123/3/5 135/3/5
f 137/2/5 135/2/5 136/2/5
f 138/3/5 123/3/5 137/3/5
f 139/2/5 138/2/5 137/2/5
f 140/3/5 123/3/5 138/3/5
f 140/2/5 138/2/5 139/2/5
f 141/3/5 123/3/5 140/3/5
f 142/2/5 141/2/5 140/2/5
f 143/3/5 123/3/5 141/3/5
f 143/2/5 141/2/5 142/2/5
f 144/3/5 123/3/5 143/3/5
f 145/2/5 144/2/5 143/2/5
f 146/2/5 144/2/5 145/2/5
f 149/1/5 148/1/5 147/1/5
f 150/1/5 148/1/5 149/1/5
f 151/1/6 152/1/6 153/1/6
f 153/1/6 152/1/6 154/1/6
f 155/1/6 156/1/6 157/1/6
f 157/1/6 156/1/6 158/1/6
f 155/1/6 157/1/6 159/1/6
f 157/4/6 158/4/6 159/4/6
f 158/1/6 156/1/6 160/1/6
f 159/4/6 158/4/6 160/4/6
f 155/1/6 159/1/6 161/1/6
f 159/1/6 160/1/6 161/1/6
f 160/1/6 156/1/6 162/1/6
f 161/1/6 160/1/6 162/1/6
f 155/1/6 161/1/6 163/1/6
f 161/4/6 162/4/6 163/4/6
f 162/1/6 156/1/6 164/1/6
f 163/4/6 162/4/6 164/4/6
f 155/1/6 163/1/6 167/1/6
f 163/1/6 164/1/6 167/1/6
f 164/1/6 156/1/6 168/1/6
f 167/1/6 164/1/6 168/1/6
f 165/2/6 166/2/6 170/2/6
f 168/3/6 169/3/6 171/3/6
f 170/2/6 166/2/6 171/2/6
f 166/3/6 167/3/6 171/3/6
f 167/3/6 168/3/6 171/3/6
f 171/3/6 169/3/6 172/3/6
f 171/2/6 172/2/6 173/2/6
f 172/3/6 169/3/6 174/3/6
f 173/2/6 172/2/6 174/2/6
f 174/3/6 169/3/6 175/3/6
f 174/2/6 175/2/6 176/2/6
f 175/3/6 169/3/6 177/3/6
f 176/2/6 175/2/6 177/2/6
f 177/3/6 169/3/6 178/3/6
f 177/2/6 178/2/6 179/2/6
f 178/3/6 169/3/6 180/3/6
f 179/2/6 178/2/6 180/2/6
f 180/3/6 169/3/6 181/3/6
f 180/2/6 181/2/6 182/2/6
f 181/3/6 169/3/6 183/3/6
f 182/2/6 181/2/6 183/2/6
f 183/3/6 169/3/6 184/3/6
f 183/2/6 184/2/6 185/2/6
f 184/3/6 169/3/6 186/3/6
f 185/2/6 184/2/6 186/2/6
f 186/3/6 169/3/6 187/3/6
f 186/2/6 187/2/6 188/2/6
f 187/3/6 169/3/6 189/3/6
f 188/2/6 187/2/6 189/2/6
f 189/3/6 169/3/6 190/3/6
f 189/2/6 190/2/6 191/2/6
f 191/2/6 190/2/6 192/2/6
