# MagicaVoxel @ Ephtracy

# group
o 

# material
mtllib extractora.mtl
usemtl palette

# normals
vn -1 0 0
vn 1 0 0
vn 0 0 1
vn 0 0 -1
vn 0 -1 0
vn 0 1 0

# texcoords
vt 0.306641 0.5
vt 0.966797 0.5
vt 0.982422 0.5

# verts
v -5.1 -3.7 1.1
v -5.1 -3.7 -5.1
v -5.1 -2.7 1.1
v -5.1 -2.7 -5.1
v -5.1 2.7 1.2
v -5.1 2.7 -5.1
v -5.1 3.7 1.2
v -5.1 3.7 -5.1
v -4.7 3.7 1
v -4.7 3.7 -4.9
v -4.7 3.8 1
v -4.7 3.8 -4.9
v -4.5 3.8 0.8
v -4.5 3.8 -4.7
v -4.5 3.9 0.8
v -4.5 3.9 -4.7
v -4.4 3.9 0.7
v -4.4 3.9 -4.6
v -4.4 4 0.7
v -4.4 4 -4.6
v -4.3 4 0.6
v -4.3 4 -4.5
v -4.3 4.1 0.6
v -4.3 4.1 -4.5
v -4.2 4.1 0.5
v -4.2 4.1 -4.4
v -4.2 4.2 0.5
v -4.2 4.2 -4.4
v -4.1 4.2 0.4
v -4.1 4.2 -4.3
v -4.1 4.3 0.4
v -4.1 4.3 -4.3
v -4 4.3 0.3
v -4 4.3 -4.2
v -4 4.4 0.3
v -4 4.4 -4.2
v -3.9 -6 0.2
v -3.9 -6 -4.2
v -3.9 -3.7 0.2
v -3.9 -3.7 -4.2
v -3.9 4.4 0.2
v -3.9 4.4 -4.1
v -3.9 4.5 0.2
v -3.9 4.5 -4.1
v -3.8 4.5 0.0999997
v -3.8 4.5 -4
v -3.8 4.6 0.0999997
v -3.8 4.6 -4
v -3.7 4.6 -3.57628e-007
v -3.7 4.6 -3.9
v -3.7 4.7 -3.57628e-007
v -3.7 4.7 -3.9
v -3.6 4.7 -0.1
v -3.6 4.7 -3.8
v -3.6 4.8 -0.1
v -3.6 4.8 -3.8
v 3.8 4.7 -0.1
v 3.8 4.7 -3.8
v 3.8 4.8 -0.1
v 3.8 4.8 -3.8
v 3.9 4.6 -3.57628e-007
v 3.9 4.6 -3.9
v 3.9 4.7 -3.57628e-007
v 3.9 4.7 -3.9
v 4 4.5 0.0999997
v 4 4.5 -4
v 4 4.6 0.0999997
v 4 4.6 -4
v 4.1 4.4 0.2
v 4.1 4.4 -4.1
v 4.1 4.5 0.2
v 4.1 4.5 -4.1
v 4.2 -6 0.2
v 4.2 -6 -4.2
v 4.2 -3.7 0.2
v 4.2 -3.7 -4.2
v 4.2 4.3 0.3
v 4.2 4.3 -4.2
v 4.2 4.4 0.3
v 4.2 4.4 -4.2
v 4.3 4.2 0.4
v 4.3 4.2 -4.3
v 4.3 4.3 0.4
v 4.3 4.3 -4.3
v 4.4 4.1 0.5
v 4.4 4.1 -4.4
v 4.4 4.2 0.5
v 4.4 4.2 -4.4
v 4.5 4 0.6
v 4.5 4 -4.5
v 4.5 4.1 0.6
v 4.5 4.1 -4.5
v 4.6 3.9 0.7
v 4.6 3.9 -4.6
v 4.6 4 0.7
v 4.6 4 -4.6
v 4.7 3.8 0.8
v 4.7 3.8 -4.7
v 4.7 3.9 0.8
v 4.7 3.9 -4.7
v 4.9 3.7 1
v 4.9 3.7 -4.9
v 4.9 3.8 1
v 4.9 3.8 -4.9
v 5.2 2.7 1.2
v 5.2 2.7 -5.1
v 5.2 3.7 1.2
v 5.2 3.7 -5.1
v 5.3 -3.7 1.1
v 5.3 -3.7 -5.1
v 5.3 -2.7 1.1
v 5.3 -2.7 -5.1
v -5.1 2.7 1.2
v -5.1 3.7 1.2
v 5.2 2.7 1.2
v 5.2 3.7 1.2
v -5.1 -3.7 1.1
v -5.1 -2.7 1.1
v -3.3 -2.8 1.1
v -3.3 -2.7 1.1
v 3.3 -2.8 1.1
v 3.3 -2.7 1.1
v 5.3 -3.7 1.1
v 5.3 -2.7 1.1
v -4.7 3.7 1
v -4.7 3.8 1
v 4.9 3.7 1
v 4.9 3.8 1
v -4.5 3.8 0.8
v -4.5 3.9 0.8
v 4.7 3.8 0.8
v 4.7 3.9 0.8
v -4.4 3.9 0.7
v -4.4 4 0.7
v 4.6 3.9 0.7
v 4.6 4 0.7
v -4.3 4 0.6
v -4.3 4.1 0.6
v 4.5 4 0.6
v 4.5 4.1 0.6
v -4.2 4.1 0.5
v -4.2 4.2 0.5
v 4.4 4.1 0.5
v 4.4 4.2 0.5
v -4.1 4.2 0.4
v -4.1 4.3 0.4
v 4.3 4.2 0.4
v 4.3 4.3 0.4
v -4 4.3 0.3
v -4 4.4 0.3
v 4.2 4.3 0.3
v 4.2 4.4 0.3
v -3.9 -6 0.2
v -3.9 -3.7 0.2
v -3.9 4.4 0.2
v -3.9 4.5 0.2
v 4.1 4.4 0.2
v 4.1 4.5 0.2
v 4.2 -6 0.2
v 4.2 -3.7 0.2
v -3.8 4.5 0.0999997
v -3.8 4.6 0.0999997
v 4 4.5 0.0999997
v 4 4.6 0.0999997
v -3.7 4.6 -3.57628e-007
v -3.7 4.7 -3.57628e-007
v 3.9 4.6 -3.57628e-007
v 3.9 4.7 -3.57628e-007
v -3.6 4.7 -0.1
v -3.6 4.8 -0.1
v 3.8 4.7 -0.1
v 3.8 4.8 -0.1
v -3.6 4.7 -3.8
v -3.6 4.8 -3.8
v 3.8 4.7 -3.8
v 3.8 4.8 -3.8
v -3.7 4.6 -3.9
v -3.7 4.7 -3.9
v 3.9 4.6 -3.9
v 3.9 4.7 -3.9
v -3.8 4.5 -4
v -3.8 4.6 -4
v 4 4.5 -4
v 4 4.6 -4
v -3.9 4.4 -4.1
v -3.9 4.5 -4.1
v 4.1 4.4 -4.1
v 4.1 4.5 -4.1
v -4 4.3 -4.2
v -4 4.4 -4.2
v -3.9 -6 -4.2
v -3.9 -3.7 -4.2
v 4.2 -6 -4.2
v 4.2 -3.7 -4.2
v 4.2 4.3 -4.2
v 4.2 4.4 -4.2
v -4.1 4.2 -4.3
v -4.1 4.3 -4.3
v 4.3 4.2 -4.3
v 4.3 4.3 -4.3
v -4.2 4.1 -4.4
v -4.2 4.2 -4.4
v 4.4 4.1 -4.4
v 4.4 4.2 -4.4
v -4.3 4 -4.5
v -4.3 4.1 -4.5
v 4.5 4 -4.5
v 4.5 4.1 -4.5
v -4.4 3.9 -4.6
v -4.4 4 -4.6
v 4.6 3.9 -4.6
v 4.6 4 -4.6
v -4.5 3.8 -4.7
v -4.5 3.9 -4.7
v 4.7 3.8 -4.7
v 4.7 3.9 -4.7
v -4.7 3.7 -4.9
v -4.7 3.8 -4.9
v 4.9 3.7 -4.9
v 4.9 3.8 -4.9
v -5.1 -3.7 -5.1
v -5.1 -2.7 -5.1
v -5.1 2.7 -5.1
v -5.1 3.7 -5.1
v -3.3 -2.8 -5.1
v -3.3 -2.7 -5.1
v 3.3 -2.8 -5.1
v 3.3 -2.7 -5.1
v 5.2 2.7 -5.1
v 5.2 3.7 -5.1
v 5.3 -3.7 -5.1
v 5.3 -2.7 -5.1
v -3.9 -6 0.2
v 4.2 -6 0.2
v -3.9 -6 -4.2
v 4.2 -6 -4.2
v -5.1 -3.7 1.1
v 5.3 -3.7 1.1
v -3.9 -3.7 0.2
v 4.2 -3.7 0.2
v -3.9 -3.7 -4.2
v 4.2 -3.7 -4.2
v -5.1 -3.7 -5.1
v 5.3 -3.7 -5.1
v -5.1 2.7 1.2
v 5.2 2.7 1.2
v -5.1 2.7 -5.1
v 5.2 2.7 -5.1
v -5.1 -2.7 1.1
v -3.3 -2.7 1.1
v 3.3 -2.7 1.1
v 5.3 -2.7 1.1
v -1 -2.7 -3.57628e-007
v 1 -2.7 -3.57628e-007
v -1 -2.7 -0.1
v -0.9 -2.7 -0.1
v 0.9 -2.7 -0.1
v 1 -2.7 -0.1
v -0.9 -2.7 -0.3
v -0.8 -2.7 -0.3
v 0.8 -2.7 -0.3
v 0.9 -2.7 -0.3
v -0.8 -2.7 -0.5
v -0.7 -2.7 -0.5
v 0.7 -2.7 -0.5
v 0.8 -2.7 -0.5
v -0.7 -2.7 -0.7
v -0.6 -2.7 -0.7
v 0.6 -2.7 -0.7
v 0.7 -2.7 -0.7
v -0.6 -2.7 -0.9
v -0.5 -2.7 -0.9
v 0.5 -2.7 -0.9
v 0.6 -2.7 -0.9
v 0.4 -2.7 -1
v 0.5 -2.7 -1
v -0.5 -2.7 -1.1
v -0.4 -2.7 -1.1
v 0.3 -2.7 -1.2
v 0.4 -2.7 -1.2
v -0.4 -2.7 -1.3
v -0.3 -2.7 -1.3
v 0.2 -2.7 -1.4
v 0.3 -2.7 -1.4
v -0.3 -2.7 -1.5
v -0.2 -2.7 -1.5
v 0.1 -2.7 -1.6
v 0.2 -2.7 -1.6
v -0.2 -2.7 -1.7
v -0.0999999 -2.7 -1.7
v 4.76837e-007 -2.7 -1.8
v 0.1 -2.7 -1.8
v -0.0999999 -2.7 -1.9
v 4.76837e-007 -2.7 -1.9
v -1 -2.7 -2.6
v 1 -2.7 -2.6
v 0.9 -2.7 -2.7
v 1 -2.7 -2.7
v -1 -2.7 -2.8
v -0.9 -2.7 -2.8
v 0.8 -2.7 -2.9
v 0.9 -2.7 -2.9
v -0.9 -2.7 -3
v -0.8 -2.7 -3
v 0.7 -2.7 -3.1
v 0.8 -2.7 -3.1
v -0.8 -2.7 -3.2
v -0.7 -2.7 -3.2
v 0.6 -2.7 -3.3
v 0.7 -2.7 -3.3
v -0.7 -2.7 -3.4
v -0.6 -2.7 -3.4
v 0.5 -2.7 -3.5
v 0.6 -2.7 -3.5
v -0.6 -2.7 -3.6
v -0.5 -2.7 -3.6
v 0.4 -2.7 -3.6
v 0.5 -2.7 -3.6
v -0.5 -2.7 -3.8
v -0.4 -2.7 -3.8
v 0.3 -2.7 -3.8
v 0.4 -2.7 -3.8
v -0.4 -2.7 -4
v -0.3 -2.7 -4
v 0.2 -2.7 -4
v 0.3 -2.7 -4
v -0.3 -2.7 -4.2
v -0.2 -2.7 -4.2
v 0.1 -2.7 -4.2
v 0.2 -2.7 -4.2
v -0.2 -2.7 -4.4
v -0.0999999 -2.7 -4.4
v 4.76837e-007 -2.7 -4.4
v 0.1 -2.7 -4.4
v -0.0999999 -2.7 -4.5
v 4.76837e-007 -2.7 -4.5
v -5.1 -2.7 -5.1
v -3.3 -2.7 -5.1
v 3.3 -2.7 -5.1
v 5.3 -2.7 -5.1
v -5.1 3.7 1.2
v 5.2 3.7 1.2
v -4.7 3.7 1
v 4.9 3.7 1
v -4.7 3.7 -4.9
v 4.9 3.7 -4.9
v -5.1 3.7 -5.1
v 5.2 3.7 -5.1
v -4.7 3.8 1
v 4.9 3.8 1
v -4.5 3.8 0.8
v 4.7 3.8 0.8
v -4.5 3.8 -4.7
v 4.7 3.8 -4.7
v -4.7 3.8 -4.9
v 4.9 3.8 -4.9
v -4.5 3.9 0.8
v 4.7 3.9 0.8
v -4.4 3.9 0.7
v 4.6 3.9 0.7
v -4.4 3.9 -4.6
v 4.6 3.9 -4.6
v -4.5 3.9 -4.7
v 4.7 3.9 -4.7
v -4.4 4 0.7
v 4.6 4 0.7
v -4.3 4 0.6
v 4.5 4 0.6
v -4.3 4 -4.5
v 4.5 4 -4.5
v -4.4 4 -4.6
v 4.6 4 -4.6
v -4.3 4.1 0.6
v 4.5 4.1 0.6
v -4.2 4.1 0.5
v 4.4 4.1 0.5
v -4.2 4.1 -4.4
v 4.4 4.1 -4.4
v -4.3 4.1 -4.5
v 4.5 4.1 -4.5
v -4.2 4.2 0.5
v 4.4 4.2 0.5
v -4.1 4.2 0.4
v 4.3 4.2 0.4
v -4.1 4.2 -4.3
v 4.3 4.2 -4.3
v -4.2 4.2 -4.4
v 4.4 4.2 -4.4
v -4.1 4.3 0.4
v 4.3 4.3 0.4
v -4 4.3 0.3
v 4.2 4.3 0.3
v -4 4.3 -4.2
v 4.2 4.3 -4.2
v -4.1 4.3 -4.3
v 4.3 4.3 -4.3
v -4 4.4 0.3
v 4.2 4.4 0.3
v -3.9 4.4 0.2
v 4.1 4.4 0.2
v -3.9 4.4 -4.1
v 4.1 4.4 -4.1
v -4 4.4 -4.2
v 4.2 4.4 -4.2
v -3.9 4.5 0.2
v 4.1 4.5 0.2
v -3.8 4.5 0.0999997
v 4 4.5 0.0999997
v -3.8 4.5 -4
v 4 4.5 -4
v -3.9 4.5 -4.1
v 4.1 4.5 -4.1
v -3.8 4.6 0.0999997
v 4 4.6 0.0999997
v -3.7 4.6 -3.57628e-007
v 3.9 4.6 -3.57628e-007
v -3.7 4.6 -3.9
v 3.9 4.6 -3.9
v -3.8 4.6 -4
v 4 4.6 -4
v -3.7 4.7 -3.57628e-007
v 3.9 4.7 -3.57628e-007
v -3.6 4.7 -0.1
v 3.8 4.7 -0.1
v -3.6 4.7 -3.8
v 3.8 4.7 -3.8
v -3.7 4.7 -3.9
v 3.9 4.7 -3.9
v -3.6 4.8 -0.1
v 3.8 4.8 -0.1
v -3.6 4.8 -3.8
v 3.8 4.8 -3.8

# faces
f 3/3/1 2/3/1 1/3/1
f 4/3/1 2/3/1 3/3/1
f 7/3/1 6/3/1 5/3/1
f 8/3/1 6/3/1 7/3/1
f 11/3/1 10/3/1 9/3/1
f 12/3/1 10/3/1 11/3/1
f 15/3/1 14/3/1 13/3/1
f 16/3/1 14/3/1 15/3/1
f 19/3/1 18/3/1 17/3/1
f 20/3/1 18/3/1 19/3/1
f 23/3/1 22/3/1 21/3/1
f 24/3/1 22/3/1 23/3/1
f 27/3/1 26/3/1 25/3/1
f 28/3/1 26/3/1 27/3/1
f 31/3/1 30/3/1 29/3/1
f 32/3/1 30/3/1 31/3/1
f 35/3/1 34/3/1 33/3/1
f 36/3/1 34/3/1 35/3/1
f 39/3/1 38/3/1 37/3/1
f 40/3/1 38/3/1 39/3/1
f 43/3/1 42/3/1 41/3/1
f 44/3/1 42/3/1 43/3/1
f 47/3/1 46/3/1 45/3/1
f 48/3/1 46/3/1 47/3/1
f 51/3/1 50/3/1 49/3/1
f 52/3/1 50/3/1 51/3/1
f 55/3/1 54/3/1 53/3/1
f 56/3/1 54/3/1 55/3/1
f 57/3/2 58/3/2 59/3/2
f 59/3/2 58/3/2 60/3/2
f 61/3/2 62/3/2 63/3/2
f 63/3/2 62/3/2 64/3/2
f 65/3/2 66/3/2 67/3/2
f 67/3/2 66/3/2 68/3/2
f 69/3/2 70/3/2 71/3/2
f 71/3/2 70/3/2 72/3/2
f 73/3/2 74/3/2 75/3/2
f 75/3/2 74/3/2 76/3/2
f 77/3/2 78/3/2 79/3/2
f 79/3/2 78/3/2 80/3/2
f 81/3/2 82/3/2 83/3/2
f 83/3/2 82/3/2 84/3/2
f 85/3/2 86/3/2 87/3/2
f 87/3/2 86/3/2 88/3/2
f 89/3/2 90/3/2 91/3/2
f 91/3/2 90/3/2 92/3/2
f 93/3/2 94/3/2 95/3/2
f 95/3/2 94/3/2 96/3/2
f 97/3/2 98/3/2 99/3/2
f 99/3/2 98/3/2 100/3/2
f 101/3/2 102/3/2 103/3/2
f 103/3/2 102/3/2 104/3/2
f 105/3/2 106/3/2 107/3/2
f 107/3/2 106/3/2 108/3/2
f 109/3/2 110/3/2 111/3/2
f 111/3/2 110/3/2 112/3/2
f 115/3/3 114/3/3 113/3/3
f 116/3/3 114/3/3 115/3/3
f 119/3/3 118/3/3 117/3/3
f 120/3/3 118/3/3 119/3/3
f 121/3/3 119/3/3 117/3/3
f 121/2/3 120/2/3 119/2/3
f 122/2/3 120/2/3 121/2/3
f 123/3/3 121/3/3 117/3/3
f 123/3/3 122/3/3 121/3/3
f 124/3/3 122/3/3 123/3/3
f 127/3/3 126/3/3 125/3/3
f 128/3/3 126/3/3 127/3/3
f 131/3/3 130/3/3 129/3/3
f 132/3/3 130/3/3 131/3/3
f 135/3/3 134/3/3 133/3/3
f 136/3/3 134/3/3 135/3/3
f 139/3/3 138/3/3 137/3/3
f 140/3/3 138/3/3 139/3/3
f 143/3/3 142/3/3 141/3/3
f 144/3/3 142/3/3 143/3/3
f 147/3/3 146/3/3 145/3/3
f 148/3/3 146/3/3 147/3/3
f 151/3/3 150/3/3 149/3/3
f 152/3/3 150/3/3 151/3/3
f 157/3/3 156/3/3 155/3/3
f 158/3/3 156/3/3 157/3/3
f 159/3/3 154/3/3 153/3/3
f 160/3/3 154/3/3 159/3/3
f 163/3/3 162/3/3 161/3/3
f 164/3/3 162/3/3 163/3/3
f 167/3/3 166/3/3 165/3/3
f 168/3/3 166/3/3 167/3/3
f 171/3/3 170/3/3 169/3/3
f 172/3/3 170/3/3 171/3/3
f 173/3/4 174/3/4 175/3/4
f 175/3/4 174/3/4 176/3/4
f 177/3/4 178/3/4 179/3/4
f 179/3/4 178/3/4 180/3/4
f 181/3/4 182/3/4 183/3/4
f 183/3/4 182/3/4 184/3/4
f 185/3/4 186/3/4 187/3/4
f 187/3/4 186/3/4 188/3/4
f 191/3/4 192/3/4 193/3/4
f 193/3/4 192/3/4 194/3/4
f 189/3/4 190/3/4 195/3/4
f 195/3/4 190/3/4 196/3/4
f 197/3/4 198/3/4 199/3/4
f 199/3/4 198/3/4 200/3/4
f 201/3/4 202/3/4 203/3/4
f 203/3/4 202/3/4 204/3/4
f 205/3/4 206/3/4 207/3/4
f 207/3/4 206/3/4 208/3/4
f 209/3/4 210/3/4 211/3/4
f 211/3/4 210/3/4 212/3/4
f 213/3/4 214/3/4 215/3/4
f 215/3/4 214/3/4 216/3/4
f 217/3/4 218/3/4 219/3/4
f 219/3/4 218/3/4 220/3/4
f 221/3/4 222/3/4 225/3/4
f 225/3/4 222/3/4 226/3/4
f 221/3/4 225/3/4 227/3/4
f 225/2/4 226/2/4 227/2/4
f 227/2/4 226/2/4 228/2/4
f 223/3/4 224/3/4 229/3/4
f 229/3/4 224/3/4 230/3/4
f 227/3/4 228/3/4 231/3/4
f 221/3/4 227/3/4 231/3/4
f 231/3/4 228/3/4 232/3/4
f 235/3/5 234/3/5 233/3/5
f 236/3/5 234/3/5 235/3/5
f 239/3/5 238/3/5 237/3/5
f 240/3/5 238/3/5 239/3/5
f 241/3/5 239/3/5 237/3/5
f 242/3/5 238/3/5 240/3/5
f 243/3/5 241/3/5 237/3/5
f 243/3/5 242/3/5 241/3/5
f 244/3/5 238/3/5 242/3/5
f 244/3/5 242/3/5 243/3/5
f 247/3/5 246/3/5 245/3/5
f 248/3/5 246/3/5 247/3/5
f 250/2/6 251/2/6 253/2/6
f 253/2/6 251/2/6 254/2/6
f 250/2/6 253/2/6 255/2/6
f 253/3/6 254/3/6 255/3/6
f 255/3/6 254/3/6 256/3/6
f 256/3/6 254/3/6 257/3/6
f 254/2/6 251/2/6 258/2/6
f 257/3/6 254/3/6 258/3/6
f 256/3/6 257/3/6 259/3/6
f 255/2/6 256/2/6 259/2/6
f 259/3/6 257/3/6 260/3/6
f 260/3/6 257/3/6 261/3/6
f 257/2/6 258/2/6 262/2/6
f 261/3/6 257/3/6 262/3/6
f 260/3/6 261/3/6 263/3/6
f 259/2/6 260/2/6 263/2/6
f 263/3/6 261/3/6 264/3/6
f 264/3/6 261/3/6 265/3/6
f 261/2/6 262/2/6 266/2/6
f 265/3/6 261/3/6 266/3/6
f 264/3/6 265/3/6 267/3/6
f 263/2/6 264/2/6 267/2/6
f 267/3/6 265/3/6 268/3/6
f 268/3/6 265/3/6 269/3/6
f 265/2/6 266/2/6 270/2/6
f 269/3/6 265/3/6 270/3/6
f 268/3/6 269/3/6 271/3/6
f 267/2/6 268/2/6 271/2/6
f 271/3/6 269/3/6 272/3/6
f 272/3/6 269/3/6 273/3/6
f 269/2/6 270/2/6 274/2/6
f 273/3/6 269/3/6 274/3/6
f 272/3/6 273/3/6 275/3/6
f 273/2/6 274/2/6 276/2/6
f 275/3/6 273/3/6 276/3/6
f 271/2/6 272/2/6 277/2/6
f 272/3/6 275/3/6 277/3/6
f 277/3/6 275/3/6 278/3/6
f 278/3/6 275/3/6 279/3/6
f 275/2/6 276/2/6 280/2/6
f 279/3/6 275/3/6 280/3/6
f 278/3/6 279/3/6 281/3/6
f 277/2/6 278/2/6 281/2/6
f 281/3/6 279/3/6 282/3/6
f 282/3/6 279/3/6 283/3/6
f 279/2/6 280/2/6 284/2/6
f 283/3/6 279/3/6 284/3/6
f 282/3/6 283/3/6 285/3/6
f 281/2/6 282/2/6 285/2/6
f 285/3/6 283/3/6 286/3/6
f 286/3/6 283/3/6 287/3/6
f 283/2/6 284/2/6 288/2/6
f 287/3/6 283/3/6 288/3/6
f 286/3/6 287/3/6 289/3/6
f 285/2/6 286/2/6 289/2/6
f 289/3/6 287/3/6 290/3/6
f 290/3/6 287/3/6 291/3/6
f 287/2/6 288/2/6 292/2/6
f 291/3/6 287/3/6 292/3/6
f 290/3/6 291/3/6 293/3/6
f 289/2/6 290/2/6 293/2/6
f 291/2/6 292/2/6 294/2/6
f 293/3/6 291/3/6 294/3/6
f 250/2/6 255/2/6 295/2/6
f 255/2/6 259/2/6 295/2/6
f 293/2/6 294/2/6 295/2/6
f 289/2/6 293/2/6 295/2/6
f 285/2/6 289/2/6 295/2/6
f 259/2/6 263/2/6 295/2/6
f 281/2/6 285/2/6 295/2/6
f 263/2/6 267/2/6 295/2/6
f 277/2/6 281/2/6 295/2/6
f 267/2/6 271/2/6 295/2/6
f 271/2/6 277/2/6 295/2/6
f 258/2/6 251/2/6 296/2/6
f 295/2/6 294/2/6 296/2/6
f 294/2/6 292/2/6 296/2/6
f 276/2/6 274/2/6 296/2/6
f 280/2/6 276/2/6 296/2/6
f 274/2/6 270/2/6 296/2/6
f 284/2/6 280/2/6 296/2/6
f 270/2/6 266/2/6 296/2/6
f 288/2/6 284/2/6 296/2/6
f 266/2/6 262/2/6 296/2/6
f 292/2/6 288/2/6 296/2/6
f 262/2/6 258/2/6 296/2/6
f 295/3/6 296/3/6 297/3/6
f 296/2/6 251/2/6 298/2/6
f 297/3/6 296/3/6 298/3/6
f 250/2/6 295/2/6 299/2/6
f 295/3/6 297/3/6 299/3/6
f 299/3/6 297/3/6 300/3/6
f 300/3/6 297/3/6 301/3/6
f 297/2/6 298/2/6 302/2/6
f 301/3/6 297/3/6 302/3/6
f 300/3/6 301/3/6 303/3/6
f 299/2/6 300/2/6 303/2/6
f 303/3/6 301/3/6 304/3/6
f 304/3/6 301/3/6 305/3/6
f 301/2/6 302/2/6 306/2/6
f 305/3/6 301/3/6 306/3/6
f 304/3/6 305/3/6 307/3/6
f 303/2/6 304/2/6 307/2/6
f 307/3/6 305/3/6 308/3/6
f 308/3/6 305/3/6 309/3/6
f 305/2/6 306/2/6 310/2/6
f 309/3/6 305/3/6 310/3/6
f 308/3/6 309/3/6 311/3/6
f 307/2/6 308/2/6 311/2/6
f 311/3/6 309/3/6 312/3/6
f 312/3/6 309/3/6 313/3/6
f 309/2/6 310/2/6 314/2/6
f 313/3/6 309/3/6 314/3/6
f 312/3/6 313/3/6 315/3/6
f 311/2/6 312/2/6 315/2/6
f 315/3/6 313/3/6 316/3/6
f 316/3/6 313/3/6 317/3/6
f 313/2/6 314/2/6 318/2/6
f 317/3/6 313/3/6 318/3/6
f 316/3/6 317/3/6 319/3/6
f 315/2/6 316/2/6 319/2/6
f 319/3/6 317/3/6 320/3/6
f 320/3/6 317/3/6 321/3/6
f 317/2/6 318/2/6 322/2/6
f 321/3/6 317/3/6 322/3/6
f 320/3/6 321/3/6 323/3/6
f 319/2/6 320/2/6 323/2/6
f 323/3/6 321/3/6 324/3/6
f 324/3/6 321/3/6 325/3/6
f 321/2/6 322/2/6 326/2/6
f 325/3/6 321/3/6 326/3/6
f 324/3/6 325/3/6 327/3/6
f 323/2/6 324/2/6 327/2/6
f 327/3/6 325/3/6 328/3/6
f 328/3/6 325/3/6 329/3/6
f 325/2/6 326/2/6 330/2/6
f 329/3/6 325/3/6 330/3/6
f 328/3/6 329/3/6 331/3/6
f 327/2/6 328/2/6 331/2/6
f 331/3/6 329/3/6 332/3/6
f 332/3/6 329/3/6 333/3/6
f 329/2/6 330/2/6 334/2/6
f 333/3/6 329/3/6 334/3/6
f 332/3/6 333/3/6 335/3/6
f 331/2/6 332/2/6 335/2/6
f 333/2/6 334/2/6 336/2/6
f 335/3/6 333/3/6 336/3/6
f 249/3/6 250/3/6 337/3/6
f 250/2/6 299/2/6 338/2/6
f 337/3/6 250/3/6 338/3/6
f 299/2/6 303/2/6 338/2/6
f 335/2/6 336/2/6 338/2/6
f 331/2/6 335/2/6 338/2/6
f 327/2/6 331/2/6 338/2/6
f 303/2/6 307/2/6 338/2/6
f 323/2/6 327/2/6 338/2/6
f 307/2/6 311/2/6 338/2/6
f 319/2/6 323/2/6 338/2/6
f 311/2/6 315/2/6 338/2/6
f 315/2/6 319/2/6 338/2/6
f 336/2/6 334/2/6 339/2/6
f 338/2/6 336/2/6 339/2/6
f 251/3/6 252/3/6 339/3/6
f 322/2/6 318/2/6 339/2/6
f 318/2/6 314/2/6 339/2/6
f 326/2/6 322/2/6 339/2/6
f 314/2/6 310/2/6 339/2/6
f 330/2/6 326/2/6 339/2/6
f 310/2/6 306/2/6 339/2/6
f 334/2/6 330/2/6 339/2/6
f 306/2/6 302/2/6 339/2/6
f 298/2/6 251/2/6 339/2/6
f 302/2/6 298/2/6 339/2/6
f 339/3/6 252/3/6 340/3/6
f 341/3/6 342/3/6 343/3/6
f 343/3/6 342/3/6 344/3/6
f 341/3/6 343/3/6 345/3/6
f 344/3/6 342/3/6 346/3/6
f 341/3/6 345/3/6 347/3/6
f 345/3/6 346/3/6 347/3/6
f 346/3/6 342/3/6 348/3/6
f 347/3/6 346/3/6 348/3/6
f 349/3/6 350/3/6 351/3/6
f 351/3/6 350/3/6 352/3/6
f 349/3/6 351/3/6 353/3/6
f 352/3/6 350/3/6 354/3/6
f 349/3/6 353/3/6 355/3/6
f 353/3/6 354/3/6 355/3/6
f 354/3/6 350/3/6 356/3/6
f 355/3/6 354/3/6 356/3/6
f 357/3/6 358/3/6 359/3/6
f 359/3/6 358/3/6 360/3/6
f 357/3/6 359/3/6 361/3/6
f 360/3/6 358/3/6 362/3/6
f 357/3/6 361/3/6 363/3/6
f 361/3/6 362/3/6 363/3/6
f 362/3/6 358/3/6 364/3/6
f 363/3/6 362/3/6 364/3/6
f 365/3/6 366/3/6 367/3/6
f 367/3/6 366/3/6 368/3/6
f 365/3/6 367/3/6 369/3/6
f 368/3/6 366/3/6 370/3/6
f 365/3/6 369/3/6 371/3/6
f 369/3/6 370/3/6 371/3/6
f 370/3/6 366/3/6 372/3/6
f 371/3/6 370/3/6 372/3/6
f 373/3/6 374/3/6 375/3/6
f 375/3/6 374/3/6 376/3/6
f 373/3/6 375/3/6 377/3/6
f 376/3/6 374/3/6 378/3/6
f 373/3/6 377/3/6 379/3/6
f 377/3/6 378/3/6 379/3/6
f 378/3/6 374/3/6 380/3/6
f 379/3/6 378/3/6 380/3/6
f 381/3/6 382/3/6 383/3/6
f 383/3/6 382/3/6 384/3/6
f 381/3/6 383/3/6 385/3/6
f 384/3/6 382/3/6 386/3/6
f 381/3/6 385/3/6 387/3/6
f 385/3/6 386/3/6 387/3/6
f 386/3/6 382/3/6 388/3/6
f 387/3/6 386/3/6 388/3/6
f 389/3/6 390/3/6 391/3/6
f 391/3/6 390/3/6 392/3/6
f 389/3/6 391/3/6 393/3/6
f 392/3/6 390/3/6 394/3/6
f 389/3/6 393/3/6 395/3/6
f 393/3/6 394/3/6 395/3/6
f 394/3/6 390/3/6 396/3/6
f 395/3/6 394/3/6 396/3/6
f 397/3/6 398/3/6 399/3/6
f 399/3/6 398/3/6 400/3/6
f 397/3/6 399/3/6 401/3/6
f 400/3/6 398/3/6 402/3/6
f 397/3/6 401/3/6 403/3/6
f 401/3/6 402/3/6 403/3/6
f 402/3/6 398/3/6 404/3/6
f 403/3/6 402/3/6 404/3/6
f 405/3/6 406/3/6 407/3/6
f 407/3/6 406/3/6 408/3/6
f 405/3/6 407/3/6 409/3/6
f 408/3/6 406/3/6 410/3/6
f 405/3/6 409/3/6 411/3/6
f 409/3/6 410/3/6 411/3/6
f 410/3/6 406/3/6 412/3/6
f 411/3/6 410/3/6 412/3/6
f 413/3/6 414/3/6 415/3/6
f 415/3/6 414/3/6 416/3/6
f 413/3/6 415/3/6 417/3/6
f 416/3/6 414/3/6 418/3/6
f 413/3/6 417/3/6 419/3/6
f 417/3/6 418/3/6 419/3/6
f 418/3/6 414/3/6 420/3/6
f 419/3/6 418/3/6 420/3/6
f 421/3/6 422/3/6 423/3/6
f 423/3/6 422/3/6 424/3/6
f 421/3/6 423/3/6 425/3/6
f 424/3/6 422/3/6 426/3/6
f 421/3/6 425/3/6 427/3/6
f 425/3/6 426/3/6 427/3/6
f 426/3/6 422/3/6 428/3/6
f 427/3/6 426/3/6 428/3/6
f 429/3/6 430/3/6 431/3/6
f 431/3/6 430/3/6 432/3/6
