# MagicaVoxel @ Ephtracy

# group
o 

# material
mtllib fregadero.mtl
usemtl palette

# normals
vn -1 0 0
vn 1 0 0
vn 0 0 1
vn 0 0 -1
vn 0 -1 0
vn 0 1 0

# texcoords
vt 0.00585938 0.5
vt 0.00976563 0.5
vt 0.0136719 0.5
vt 0.0175781 0.5

# verts
v -2 1.1 2
v -2 1.1 -2
v -2 1.5 2
v -2 1.5 -2
v -1.8 0 1.7
v -1.8 0 -1.8
v -1.8 1.1 1.7
v -1.8 1.1 -1.8
v -1.7 0.1 1.8
v -1.7 0.1 1.7
v -1.7 1 1.8
v -1.7 1 1.7
v -0.2 1.5 1.7
v -0.2 1.5 1.5
v -0.2 1.5 1.4
v -0.2 1.6 1.6
v -0.2 1.6 1.5
v -0.2 2.2 1.6
v -0.2 2.2 1.5
v -0.2 2.2 1.4
v -0.2 2.2 1.3
v -0.2 2.3 1.7
v -0.2 2.3 1.5
v -0.2 2.3 1.3
v -0.2 2.3 1.2
v -0.2 2.4 1.5
v -0.2 2.4 1.4
v -0.2 2.4 1.2
v -0.2 2.4 1.1
v -0.2 2.4 0.9
v -0.2 2.4 0.7
v -0.2 2.5 1.4
v -0.2 2.5 1.2
v -0.2 2.5 1.1
v -0.2 2.5 0.9
v -0.2 2.6 1.2
v -0.2 2.6 1.1
v -0.2 2.7 1.1
v -0.2 2.7 0.7
v -0.0999999 0.6 0.3
v -0.0999999 0.6 0.2
v -0.0999999 0.6 -0.2
v -0.0999999 0.6 -0.3
v -0.0999999 0.7 0.3
v -0.0999999 0.7 0.2
v -0.0999999 0.7 -0.2
v -0.0999999 0.7 -0.3
v 0.1 0.5 0.2
v 0.1 0.5 0.0999999
v 0.1 0.5 -0.1
v 0.1 0.5 -0.2
v 0.1 0.6 0.0999999
v 0.1 0.6 -0.1
v 0.1 0.7 0.2
v 0.1 0.7 -0.2
v 0.2 0.4 0.2
v 0.2 0.4 -0.2
v 0.2 0.5 0.2
v 0.2 0.5 -0.2
v 0.3 0.5 0.0999999
v 0.3 0.5 -0.1
v 0.3 0.7 0.0999999
v 0.3 0.7 -0.1
v 1.3 1 1.4
v 1.3 1 -1.3
v 1.3 1.4 1.4
v 1.3 1.4 -1.3
v 1.3 1.5 1.4
v 1.3 1.5 -1.3
v -1.3 1 1.4
v -1.3 1 -1.3
v -1.3 1.4 1.4
v -1.3 1.4 -1.3
v -1.3 1.5 1.4
v -1.3 1.5 -1.3
v -0.2 0.6 0.3
v -0.2 0.6 0.2
v -0.2 0.6 -0.2
v -0.2 0.6 -0.3
v -0.2 0.7 0.3
v -0.2 0.7 0.2
v -0.2 0.7 -0.2
v -0.2 0.7 -0.3
v 2.38419e-007 0.5 0.2
v 2.38419e-007 0.5 0.0999999
v 2.38419e-007 0.5 -0.1
v 2.38419e-007 0.5 -0.2
v 2.38419e-007 0.6 0.0999999
v 2.38419e-007 0.6 -0.1
v 2.38419e-007 0.7 0.2
v 2.38419e-007 0.7 -0.2
v 0.1 0.4 0.2
v 0.1 0.4 -0.2
v 0.1 0.5 0.2
v 0.1 0.5 -0.2
v 0.2 0.5 0.0999999
v 0.2 0.5 -0.1
v 0.2 0.7 0.0999999
v 0.2 0.7 -0.1
v 0.2 1.5 1.7
v 0.2 1.5 1.6
v 0.2 1.5 1.5
v 0.2 1.5 1.4
v 0.2 2.2 1.6
v 0.2 2.2 1.5
v 0.2 2.2 1.4
v 0.2 2.2 1.3
v 0.2 2.3 1.7
v 0.2 2.3 1.5
v 0.2 2.3 1.3
v 0.2 2.3 1.2
v 0.2 2.4 1.5
v 0.2 2.4 1.4
v 0.2 2.4 1.2
v 0.2 2.4 1.1
v 0.2 2.4 0.9
v 0.2 2.4 0.7
v 0.2 2.5 1.4
v 0.2 2.5 1.2
v 0.2 2.5 1.1
v 0.2 2.5 0.9
v 0.2 2.6 1.2
v 0.2 2.6 1.1
v 0.2 2.7 1.1
v 0.2 2.7 0.7
v 1.7 0.1 1.8
v 1.7 0.1 1.7
v 1.7 1 1.8
v 1.7 1 1.7
v 1.8 0 1.7
v 1.8 0 -1.8
v 1.8 1.1 1.7
v 1.8 1.1 -1.8
v 2 1.1 2
v 2 1.1 -2
v 2 1.5 2
v 2 1.5 -2
v -2 1.1 2
v -2 1.5 2
v 2 1.1 2
v 2 1.5 2
v -1.7 0.1 1.8
v -1.7 1 1.8
v 1.7 0.1 1.8
v 1.7 1 1.8
v -1.8 0 1.7
v -1.8 1.1 1.7
v -1.7 0.1 1.7
v -1.7 1 1.7
v -0.2 1.5 1.7
v -0.2 2.3 1.7
v -0.0999999 1.5 1.7
v -0.0999999 2.3 1.7
v 0.1 1.5 1.7
v 0.1 2.3 1.7
v 0.2 1.5 1.7
v 0.2 2.3 1.7
v 1.7 0.1 1.7
v 1.7 1 1.7
v 1.8 0 1.7
v 1.8 1.1 1.7
v -0.2 2.3 1.5
v -0.2 2.4 1.5
v -0.0999999 2.3 1.5
v -0.0999999 2.4 1.5
v 0.1 2.3 1.5
v 0.1 2.4 1.5
v 0.2 2.3 1.5
v 0.2 2.4 1.5
v -0.2 2.4 1.4
v -0.2 2.5 1.4
v -0.0999999 2.4 1.4
v -0.0999999 2.5 1.4
v 0.1 2.4 1.4
v 0.1 2.5 1.4
v 0.2 2.4 1.4
v 0.2 2.5 1.4
v -0.2 2.5 1.2
v -0.2 2.6 1.2
v -0.0999999 2.5 1.2
v -0.0999999 2.6 1.2
v 0.1 2.5 1.2
v 0.1 2.6 1.2
v 0.2 2.5 1.2
v 0.2 2.6 1.2
v -0.2 2.6 1.1
v -0.2 2.7 1.1
v -0.0999999 2.6 1.1
v -0.0999999 2.7 1.1
v 0.1 2.6 1.1
v 0.1 2.7 1.1
v 0.2 2.6 1.1
v 0.2 2.7 1.1
v -0.2 2.4 0.9
v -0.2 2.5 0.9
v -0.0999999 2.4 0.9
v -0.0999999 2.5 0.9
v 0.1 2.4 0.9
v 0.1 2.5 0.9
v 0.2 2.4 0.9
v 0.2 2.5 0.9
v -0.2 0.6 0.2
v -0.2 0.7 0.2
v -0.0999999 0.6 0.2
v -0.0999999 0.7 0.2
v 2.38419e-007 0.5 0.0999999
v 2.38419e-007 0.6 0.0999999
v 0.1 0.5 0.0999999
v 0.1 0.6 0.0999999
v 0.2 0.5 -0.1
v 0.2 0.7 -0.1
v 0.3 0.5 -0.1
v 0.3 0.7 -0.1
v 2.38419e-007 0.5 -0.2
v 2.38419e-007 0.7 -0.2
v 0.1 0.4 -0.2
v 0.1 0.5 -0.2
v 0.1 0.7 -0.2
v 0.2 0.4 -0.2
v 0.2 0.5 -0.2
v -0.2 0.6 -0.3
v -0.2 0.7 -0.3
v -0.0999999 0.6 -0.3
v -0.0999999 0.7 -0.3
v -1.3 1 -1.3
v -1.3 1.4 -1.3
v -1.3 1.5 -1.3
v 1.3 1 -1.3
v 1.3 1.4 -1.3
v 1.3 1.5 -1.3
v -1.3 1 1.4
v -1.3 1.4 1.4
v -1.3 1.5 1.4
v -0.2 1.5 1.4
v -0.2 2.2 1.4
v -0.0999999 1.6 1.4
v -0.0999999 2.2 1.4
v 0.1 1.6 1.4
v 0.1 2.2 1.4
v 0.2 1.5 1.4
v 0.2 2.2 1.4
v 1.3 1 1.4
v 1.3 1.4 1.4
v 1.3 1.5 1.4
v -0.2 2.2 1.3
v -0.2 2.3 1.3
v -0.0999999 2.2 1.3
v -0.0999999 2.3 1.3
v 0.1 2.2 1.3
v 0.1 2.3 1.3
v 0.2 2.2 1.3
v 0.2 2.3 1.3
v -0.2 2.3 1.2
v -0.2 2.4 1.2
v -0.0999999 2.3 1.2
v -0.0999999 2.4 1.2
v 0.1 2.3 1.2
v 0.1 2.4 1.2
v 0.2 2.3 1.2
v 0.2 2.4 1.2
v -0.2 2.4 1.1
v -0.2 2.5 1.1
v -0.0999999 2.4 1.1
v -0.0999999 2.5 1.1
v 0.1 2.4 1.1
v 0.1 2.5 1.1
v 0.2 2.4 1.1
v 0.2 2.5 1.1
v -0.2 2.4 0.7
v -0.2 2.7 0.7
v -0.0999999 2.4 0.7
v -0.0999999 2.7 0.7
v 0.1 2.4 0.7
v 0.1 2.7 0.7
v 0.2 2.4 0.7
v 0.2 2.7 0.7
v -0.2 0.6 0.3
v -0.2 0.7 0.3
v -0.0999999 0.6 0.3
v -0.0999999 0.7 0.3
v 2.38419e-007 0.5 0.2
v 2.38419e-007 0.7 0.2
v 0.1 0.4 0.2
v 0.1 0.5 0.2
v 0.1 0.7 0.2
v 0.2 0.4 0.2
v 0.2 0.5 0.2
v 0.2 0.5 0.0999999
v 0.2 0.7 0.0999999
v 0.3 0.5 0.0999999
v 0.3 0.7 0.0999999
v 2.38419e-007 0.5 -0.1
v 2.38419e-007 0.6 -0.1
v 0.1 0.5 -0.1
v 0.1 0.6 -0.1
v -0.2 0.6 -0.2
v -0.2 0.7 -0.2
v -0.0999999 0.6 -0.2
v -0.0999999 0.7 -0.2
v -1.8 0 -1.8
v -1.8 1.1 -1.8
v 1.8 0 -1.8
v 1.8 1.1 -1.8
v -2 1.1 -2
v -2 1.5 -2
v 2 1.1 -2
v 2 1.5 -2
v -1.8 0 1.7
v 1.8 0 1.7
v -1.8 0 -1.8
v 1.8 0 -1.8
v -1.7 0.1 1.8
v 1.7 0.1 1.8
v -1.7 0.1 1.7
v 1.7 0.1 1.7
v 0.1 0.5 0.2
v 0.2 0.5 0.2
v 0.1 0.5 -0.2
v 0.2 0.5 -0.2
v -0.2 0.7 0.3
v -0.0999999 0.7 0.3
v -0.2 0.7 0.2
v -0.0999999 0.7 0.2
v 2.38419e-007 0.7 0.2
v 0.1 0.7 0.2
v 0.2 0.7 0.0999999
v 0.3 0.7 0.0999999
v 0.2 0.7 -0.1
v 0.3 0.7 -0.1
v -0.2 0.7 -0.2
v -0.0999999 0.7 -0.2
v 2.38419e-007 0.7 -0.2
v 0.1 0.7 -0.2
v -0.2 0.7 -0.3
v -0.0999999 0.7 -0.3
v -2 1.1 2
v 2 1.1 2
v -1.8 1.1 1.7
v 1.8 1.1 1.7
v -1.8 1.1 -1.8
v 1.8 1.1 -1.8
v -2 1.1 -2
v 2 1.1 -2
v -0.2 2.2 1.4
v -0.0999999 2.2 1.4
v 0.1 2.2 1.4
v 0.2 2.2 1.4
v -0.2 2.2 1.3
v -0.0999999 2.2 1.3
v 0.1 2.2 1.3
v 0.2 2.2 1.3
v -0.2 2.3 1.3
v -0.0999999 2.3 1.3
v 0.1 2.3 1.3
v 0.2 2.3 1.3
v -0.2 2.3 1.2
v -0.0999999 2.3 1.2
v 0.1 2.3 1.2
v 0.2 2.3 1.2
v -0.2 2.4 1.2
v -0.0999999 2.4 1.2
v 0.1 2.4 1.2
v 0.2 2.4 1.2
v -0.2 2.4 1.1
v -0.0999999 2.4 1.1
v 0.1 2.4 1.1
v 0.2 2.4 1.1
v -0.2 2.4 0.9
v -0.0999999 2.4 0.9
v 0.1 2.4 0.9
v 0.2 2.4 0.9
v -0.2 2.4 0.7
v -0.0999999 2.4 0.7
v 0.1 2.4 0.7
v 0.2 2.4 0.7
v -0.2 2.5 1.1
v -0.0999999 2.5 1.1
v 0.1 2.5 1.1
v 0.2 2.5 1.1
v -0.2 2.5 0.9
v -0.0999999 2.5 0.9
v 0.1 2.5 0.9
v 0.2 2.5 0.9
v 0.1 0.4 0.2
v 0.2 0.4 0.2
v 0.1 0.4 -0.2
v 0.2 0.4 -0.2
v 2.38419e-007 0.5 0.2
v 0.1 0.5 0.2
v 2.38419e-007 0.5 0.0999999
v 0.1 0.5 0.0999999
v 0.2 0.5 0.0999999
v 0.3 0.5 0.0999999
v 2.38419e-007 0.5 -0.1
v 0.1 0.5 -0.1
v 0.2 0.5 -0.1
v 0.3 0.5 -0.1
v 2.38419e-007 0.5 -0.2
v 0.1 0.5 -0.2
v -0.2 0.6 0.3
v -0.0999999 0.6 0.3
v -0.2 0.6 0.2
v -0.0999999 0.6 0.2
v 2.38419e-007 0.6 0.0999999
v 0.1 0.6 0.0999999
v 2.38419e-007 0.6 -0.1
v 0.1 0.6 -0.1
v -0.2 0.6 -0.2
v -0.0999999 0.6 -0.2
v -0.2 0.6 -0.3
v -0.0999999 0.6 -0.3
v -1.7 1 1.8
v 1.7 1 1.8
v -1.7 1 1.7
v 1.7 1 1.7
v -1.3 1 1.4
v 1.3 1 1.4
v -0.0999999 1 0.8
v 0.1 1 0.8
v -0.2 1 0.7
v -0.0999999 1 0.7
v 0.1 1 0.7
v 0.2 1 0.7
v -0.3 1 0.6
v -0.2 1 0.6
v -0.0999999 1 0.6
v 0.1 1 0.6
v 0.2 1 0.6
v 0.3 1 0.6
v -0.3 1 0.4
v -0.2 1 0.4
v -0.0999999 1 0.4
v 0.1 1 0.4
v 0.2 1 0.4
v 0.3 1 0.4
v -0.2 1 0.3
v -0.0999999 1 0.3
v 0.1 1 0.3
v 0.2 1 0.3
v -0.0999999 1 0.2
v 0.1 1 0.2
v -1.3 1 -1.3
v 1.3 1 -1.3
v -2 1.5 2
v 2 1.5 2
v -0.2 1.5 1.7
v -0.0999999 1.5 1.7
v 0.1 1.5 1.7
v 0.2 1.5 1.7
v 0.2 1.5 1.6
v -1.3 1.5 1.5
v -0.2 1.5 1.5
v 0.2 1.5 1.5
v 1.3 1.5 1.5
v -1.4 1.5 1.4
v -1.3 1.5 1.4
v -0.2 1.5 1.4
v 0.2 1.5 1.4
v 1.3 1.5 1.4
v 1.4 1.5 1.4
v -1.4 1.5 -1.3
v -1.3 1.5 -1.3
v 1.3 1.5 -1.3
v 1.4 1.5 -1.3
v -1.3 1.5 -1.4
v 1.3 1.5 -1.4
v -2 1.5 -2
v 2 1.5 -2
v -0.2 2.3 1.7
v -0.0999999 2.3 1.7
v 0.1 2.3 1.7
v 0.2 2.3 1.7
v -0.2 2.3 1.5
v -0.0999999 2.3 1.5
v 0.1 2.3 1.5
v 0.2 2.3 1.5
v -0.2 2.4 1.5
v -0.0999999 2.4 1.5
v 0.1 2.4 1.5
v 0.2 2.4 1.5
v -0.2 2.4 1.4
v -0.0999999 2.4 1.4
v 0.1 2.4 1.4
v 0.2 2.4 1.4
v -0.2 2.5 1.4
v -0.0999999 2.5 1.4
v 0.1 2.5 1.4
v 0.2 2.5 1.4
v -0.2 2.5 1.2
v -0.0999999 2.5 1.2
v 0.1 2.5 1.2
v 0.2 2.5 1.2
v -0.2 2.6 1.2
v -0.0999999 2.6 1.2
v 0.1 2.6 1.2
v 0.2 2.6 1.2
v -0.2 2.6 1.1
v -0.0999999 2.6 1.1
v 0.1 2.6 1.1
v 0.2 2.6 1.1
v -0.2 2.7 1.1
v -0.0999999 2.7 1.1
v 0.1 2.7 1.1
v 0.2 2.7 1.1
v -0.2 2.7 0.7
v -0.0999999 2.7 0.7
v 0.1 2.7 0.7
v 0.2 2.7 0.7

# faces
f 3/2/1 2/2/1 1/2/1
f 4/2/1 2/2/1 3/2/1
f 7/1/1 6/1/1 5/1/1
f 8/1/1 6/1/1 7/1/1
f 11/1/1 10/1/1 9/1/1
f 12/1/1 10/1/1 11/1/1
f 16/3/1 14/3/1 13/3/1
f 16/3/1 15/3/1 14/3/1
f 17/3/1 15/3/1 16/3/1
f 18/3/1 16/3/1 13/3/1
f 18/4/1 17/4/1 16/4/1
f 19/3/1 15/3/1 17/3/1
f 19/4/1 17/4/1 18/4/1
f 20/3/1 15/3/1 19/3/1
f 22/3/1 18/3/1 13/3/1
f 22/3/1 21/3/1 20/3/1
f 22/3/1 20/3/1 19/3/1
f 22/3/1 19/3/1 18/3/1
f 23/3/1 21/3/1 22/3/1
f 24/3/1 21/3/1 23/3/1
f 26/3/1 25/3/1 24/3/1
f 26/3/1 24/3/1 23/3/1
f 27/3/1 25/3/1 26/3/1
f 28/3/1 25/3/1 27/3/1
f 32/3/1 28/3/1 27/3/1
f 32/3/1 29/3/1 28/3/1
f 33/3/1 29/3/1 32/3/1
f 34/3/1 29/3/1 33/3/1
f 35/3/1 31/3/1 30/3/1
f 36/3/1 34/3/1 33/3/1
f 36/3/1 35/3/1 34/3/1
f 37/3/1 35/3/1 36/3/1
f 38/3/1 35/3/1 37/3/1
f 39/3/1 31/3/1 35/3/1
f 39/3/1 35/3/1 38/3/1
f 44/1/1 41/1/1 40/1/1
f 45/1/1 41/1/1 44/1/1
f 46/1/1 43/1/1 42/1/1
f 47/1/1 43/1/1 46/1/1
f 52/1/1 49/1/1 48/1/1
f 53/1/1 51/1/1 50/1/1
f 54/1/1 52/1/1 48/1/1
f 54/1/1 53/1/1 52/1/1
f 55/1/1 51/1/1 53/1/1
f 55/1/1 53/1/1 54/1/1
f 58/1/1 57/1/1 56/1/1
f 59/1/1 57/1/1 58/1/1
f 62/1/1 61/1/1 60/1/1
f 63/1/1 61/1/1 62/1/1
f 66/4/1 65/4/1 64/4/1
f 67/4/1 65/4/1 66/4/1
f 68/3/1 67/3/1 66/3/1
f 69/3/1 67/3/1 68/3/1
f 70/4/2 71/4/2 72/4/2
f 72/4/2 71/4/2 73/4/2
f 72/3/2 73/3/2 74/3/2
f 74/3/2 73/3/2 75/3/2
f 76/1/2 77/1/2 80/1/2
f 80/1/2 77/1/2 81/1/2
f 78/1/2 79/1/2 82/1/2
f 82/1/2 79/1/2 83/1/2
f 84/1/2 85/1/2 88/1/2
f 86/1/2 87/1/2 89/1/2
f 84/1/2 88/1/2 90/1/2
f 88/1/2 89/1/2 90/1/2
f 89/1/2 87/1/2 91/1/2
f 90/1/2 89/1/2 91/1/2
f 92/1/2 93/1/2 94/1/2
f 94/1/2 93/1/2 95/1/2
f 96/1/2 97/1/2 98/1/2
f 98/1/2 97/1/2 99/1/2
f 100/3/2 101/3/2 104/3/2
f 101/4/2 102/4/2 104/4/2
f 102/3/2 103/3/2 105/3/2
f 104/4/2 102/4/2 105/4/2
f 105/3/2 103/3/2 106/3/2
f 100/3/2 104/3/2 108/3/2
f 106/3/2 107/3/2 108/3/2
f 105/3/2 106/3/2 108/3/2
f 104/3/2 105/3/2 108/3/2
f 108/3/2 107/3/2 109/3/2
f 109/3/2 107/3/2 110/3/2
f 110/3/2 111/3/2 112/3/2
f 109/3/2 110/3/2 112/3/2
f 112/3/2 111/3/2 113/3/2
f 113/3/2 111/3/2 114/3/2
f 113/3/2 114/3/2 118/3/2
f 114/3/2 115/3/2 118/3/2
f 118/3/2 115/3/2 119/3/2
f 119/3/2 115/3/2 120/3/2
f 116/3/2 117/3/2 121/3/2
f 119/3/2 120/3/2 122/3/2
f 120/3/2 121/3/2 122/3/2
f 122/3/2 121/3/2 123/3/2
f 123/3/2 121/3/2 124/3/2
f 121/3/2 117/3/2 125/3/2
f 124/3/2 121/3/2 125/3/2
f 126/1/2 127/1/2 128/1/2
f 128/1/2 127/1/2 129/1/2
f 130/1/2 131/1/2 132/1/2
f 132/1/2 131/1/2 133/1/2
f 134/2/2 135/2/2 136/2/2
f 136/2/2 135/2/2 137/2/2
f 140/2/3 139/2/3 138/2/3
f 141/2/3 139/2/3 140/2/3
f 144/1/3 143/1/3 142/1/3
f 145/1/3 143/1/3 144/1/3
f 148/1/3 147/1/3 146/1/3
f 149/1/3 147/1/3 148/1/3
f 152/3/3 151/3/3 150/3/3
f 153/3/3 151/3/3 152/3/3
f 154/4/3 153/4/3 152/4/3
f 155/4/3 153/4/3 154/4/3
f 156/3/3 155/3/3 154/3/3
f 157/3/3 155/3/3 156/3/3
f 158/1/3 148/1/3 146/1/3
f 159/1/3 147/1/3 149/1/3
f 160/1/3 158/1/3 146/1/3
f 160/1/3 159/1/3 158/1/3
f 161/1/3 147/1/3 159/1/3
f 161/1/3 159/1/3 160/1/3
f 164/3/3 163/3/3 162/3/3
f 165/3/3 163/3/3 164/3/3
f 166/4/3 165/4/3 164/4/3
f 167/4/3 165/4/3 166/4/3
f 168/3/3 167/3/3 166/3/3
f 169/3/3 167/3/3 168/3/3
f 172/3/3 171/3/3 170/3/3
f 173/3/3 171/3/3 172/3/3
f 174/4/3 173/4/3 172/4/3
f 175/4/3 173/4/3 174/4/3
f 176/3/3 175/3/3 174/3/3
f 177/3/3 175/3/3 176/3/3
f 180/3/3 179/3/3 178/3/3
f 181/3/3 179/3/3 180/3/3
f 182/4/3 181/4/3 180/4/3
f 183/4/3 181/4/3 182/4/3
f 184/3/3 183/3/3 182/3/3
f 185/3/3 183/3/3 184/3/3
f 188/3/3 187/3/3 186/3/3
f 189/3/3 187/3/3 188/3/3
f 190/4/3 189/4/3 188/4/3
f 191/4/3 189/4/3 190/4/3
f 192/3/3 191/3/3 190/3/3
f 193/3/3 191/3/3 192/3/3
f 196/3/3 195/3/3 194/3/3
f 197/3/3 195/3/3 196/3/3
f 198/4/3 197/4/3 196/4/3
f 199/4/3 197/4/3 198/4/3
f 200/3/3 199/3/3 198/3/3
f 201/3/3 199/3/3 200/3/3
f 204/1/3 203/1/3 202/1/3
f 205/1/3 203/1/3 204/1/3
f 208/1/3 207/1/3 206/1/3
f 209/1/3 207/1/3 208/1/3
f 212/1/3 211/1/3 210/1/3
f 213/1/3 211/1/3 212/1/3
f 217/1/3 215/1/3 214/1/3
f 218/1/3 215/1/3 217/1/3
f 219/1/3 217/1/3 216/1/3
f 220/1/3 217/1/3 219/1/3
f 223/1/3 222/1/3 221/1/3
f 224/1/3 222/1/3 223/1/3
f 228/4/3 226/4/3 225/4/3
f 229/3/3 227/3/3 226/3/3
f 229/4/3 226/4/3 228/4/3
f 230/3/3 227/3/3 229/3/3
f 232/3/4 233/3/4 234/3/4
f 234/3/4 235/3/4 236/3/4
f 236/3/4 235/3/4 237/3/4
f 234/3/4 236/3/4 238/3/4
f 236/4/4 237/4/4 238/4/4
f 238/4/4 237/4/4 239/4/4
f 232/3/4 234/3/4 240/3/4
f 234/3/4 238/3/4 240/3/4
f 238/3/4 239/3/4 240/3/4
f 240/3/4 239/3/4 241/3/4
f 231/4/4 232/4/4 242/4/4
f 232/3/4 240/3/4 243/3/4
f 242/4/4 232/4/4 243/4/4
f 243/3/4 240/3/4 244/3/4
f 245/3/4 246/3/4 247/3/4
f 247/3/4 246/3/4 248/3/4
f 247/4/4 248/4/4 249/4/4
f 249/4/4 248/4/4 250/4/4
f 249/3/4 250/3/4 251/3/4
f 251/3/4 250/3/4 252/3/4
f 253/3/4 254/3/4 255/3/4
f 255/3/4 254/3/4 256/3/4
f 255/4/4 256/4/4 257/4/4
f 257/4/4 256/4/4 258/4/4
f 257/3/4 258/3/4 259/3/4
f 259/3/4 258/3/4 260/3/4
f 261/3/4 262/3/4 263/3/4
f 263/3/4 262/3/4 264/3/4
f 263/4/4 264/4/4 265/4/4
f 265/4/4 264/4/4 266/4/4
f 265/3/4 266/3/4 267/3/4
f 267/3/4 266/3/4 268/3/4
f 269/3/4 270/3/4 271/3/4
f 271/3/4 270/3/4 272/3/4
f 271/4/4 272/4/4 273/4/4
f 273/4/4 272/4/4 274/4/4
f 273/3/4 274/3/4 275/3/4
f 275/3/4 274/3/4 276/3/4
f 277/1/4 278/1/4 279/1/4
f 279/1/4 278/1/4 280/1/4
f 281/1/4 282/1/4 284/1/4
f 284/1/4 282/1/4 285/1/4
f 283/1/4 284/1/4 286/1/4
f 286/1/4 284/1/4 287/1/4
f 288/1/4 289/1/4 290/1/4
f 290/1/4 289/1/4 291/1/4
f 292/1/4 293/1/4 294/1/4
f 294/1/4 293/1/4 295/1/4
f 296/1/4 297/1/4 298/1/4
f 298/1/4 297/1/4 299/1/4
f 300/1/4 301/1/4 302/1/4
f 302/1/4 301/1/4 303/1/4
f 304/2/4 305/2/4 306/2/4
f 306/2/4 305/2/4 307/2/4
f 310/1/5 309/1/5 308/1/5
f 311/1/5 309/1/5 310/1/5
f 314/1/5 313/1/5 312/1/5
f 315/1/5 313/1/5 314/1/5
f 318/1/5 317/1/5 316/1/5
f 319/1/5 317/1/5 318/1/5
f 322/1/5 321/1/5 320/1/5
f 323/1/5 321/1/5 322/1/5
f 328/1/5 327/1/5 326/1/5
f 329/1/5 327/1/5 328/1/5
f 332/1/5 325/1/5 324/1/5
f 333/1/5 325/1/5 332/1/5
f 334/1/5 331/1/5 330/1/5
f 335/1/5 331/1/5 334/1/5
f 338/2/5 337/2/5 336/2/5
f 339/2/5 337/2/5 338/2/5
f 340/2/5 338/2/5 336/2/5
f 341/2/5 337/2/5 339/2/5
f 342/2/5 340/2/5 336/2/5
f 342/2/5 341/2/5 340/2/5
f 343/2/5 337/2/5 341/2/5
f 343/2/5 341/2/5 342/2/5
f 348/3/5 345/3/5 344/3/5
f 349/4/5 346/4/5 345/4/5
f 349/3/5 345/3/5 348/3/5
f 350/3/5 347/3/5 346/3/5
f 350/4/5 346/4/5 349/4/5
f 351/3/5 347/3/5 350/3/5
f 356/3/5 353/3/5 352/3/5
f 357/4/5 354/4/5 353/4/5
f 357/3/5 353/3/5 356/3/5
f 358/3/5 355/3/5 354/3/5
f 358/4/5 354/4/5 357/4/5
f 359/3/5 355/3/5 358/3/5
f 364/3/5 361/3/5 360/3/5
f 365/4/5 362/4/5 361/4/5
f 365/3/5 361/3/5 364/3/5
f 366/3/5 363/3/5 362/3/5
f 366/4/5 362/4/5 365/4/5
f 367/3/5 363/3/5 366/3/5
f 372/3/5 369/3/5 368/3/5
f 373/4/5 370/4/5 369/4/5
f 373/3/5 369/3/5 372/3/5
f 374/3/5 371/3/5 370/3/5
f 374/4/5 370/4/5 373/4/5
f 375/3/5 371/3/5 374/3/5
f 380/3/5 377/3/5 376/3/5
f 381/4/5 378/4/5 377/4/5
f 381/3/5 377/3/5 380/3/5
f 382/3/5 379/3/5 378/3/5
f 382/4/5 378/4/5 381/4/5
f 383/3/5 379/3/5 382/3/5
f 384/1/6 385/1/6 386/1/6
f 386/1/6 385/1/6 387/1/6
f 388/1/6 389/1/6 390/1/6
f 390/1/6 389/1/6 391/1/6
f 392/1/6 393/1/6 396/1/6
f 396/1/6 393/1/6 397/1/6
f 394/1/6 395/1/6 398/1/6
f 398/1/6 395/1/6 399/1/6
f 400/1/6 401/1/6 402/1/6
f 402/1/6 401/1/6 403/1/6
f 404/1/6 405/1/6 406/1/6
f 406/1/6 405/1/6 407/1/6
f 408/1/6 409/1/6 410/1/6
f 410/1/6 409/1/6 411/1/6
f 412/1/6 413/1/6 414/1/6
f 414/1/6 413/1/6 415/1/6
f 416/4/6 417/4/6 418/4/6
f 418/4/6 417/4/6 419/4/6
f 416/4/6 418/4/6 420/4/6
f 418/3/6 419/3/6 421/3/6
f 420/4/6 418/4/6 421/4/6
f 419/4/6 417/4/6 422/4/6
f 421/3/6 419/3/6 422/3/6
f 422/4/6 417/4/6 423/4/6
f 416/4/6 420/4/6 424/4/6
f 420/3/6 421/3/6 425/3/6
f 424/4/6 420/4/6 425/4/6
f 421/4/6 422/4/6 426/4/6
f 425/3/6 421/3/6 426/3/6
f 422/3/6 423/3/6 427/3/6
f 426/4/6 422/4/6 427/4/6
f 423/4/6 417/4/6 428/4/6
f 427/3/6 423/3/6 428/3/6
f 428/4/6 417/4/6 429/4/6
f 416/4/6 424/4/6 430/4/6
f 424/3/6 425/3/6 430/3/6
f 426/4/6 427/4/6 431/4/6
f 430/3/6 425/3/6 431/3/6
f 425/4/6 426/4/6 431/4/6
f 427/4/6 428/4/6 431/4/6
f 431/4/6 428/4/6 432/4/6
f 432/4/6 428/4/6 433/4/6
f 428/3/6 429/3/6 434/3/6
f 433/4/6 428/4/6 434/4/6
f 429/4/6 417/4/6 435/4/6
f 434/3/6 429/3/6 435/3/6
f 430/4/6 431/4/6 436/4/6
f 431/3/6 432/3/6 436/3/6
f 432/4/6 433/4/6 437/4/6
f 436/3/6 432/3/6 437/3/6
f 433/3/6 434/3/6 438/3/6
f 437/4/6 433/4/6 438/4/6
f 434/4/6 435/4/6 439/4/6
f 438/3/6 434/3/6 439/3/6
f 436/4/6 437/4/6 440/4/6
f 437/3/6 438/3/6 440/3/6
f 438/4/6 439/4/6 441/4/6
f 440/3/6 438/3/6 441/3/6
f 416/4/6 430/4/6 442/4/6
f 430/4/6 436/4/6 442/4/6
f 440/4/6 441/4/6 442/4/6
f 436/4/6 440/4/6 442/4/6
f 439/4/6 435/4/6 443/4/6
f 442/4/6 441/4/6 443/4/6
f 441/4/6 439/4/6 443/4/6
f 435/4/6 417/4/6 443/4/6
f 444/2/6 445/2/6 446/2/6
f 446/2/6 445/2/6 447/2/6
f 447/2/6 445/2/6 448/2/6
f 448/2/6 445/2/6 449/2/6
f 449/2/6 445/2/6 450/2/6
f 444/2/6 446/2/6 451/2/6
f 451/2/6 446/2/6 452/2/6
f 450/2/6 445/2/6 453/2/6
f 453/2/6 445/2/6 454/2/6
f 444/2/6 451/2/6 455/2/6
f 451/3/6 452/3/6 456/3/6
f 455/2/6 451/2/6 456/2/6
f 456/3/6 452/3/6 457/3/6
f 453/3/6 454/3/6 458/3/6
f 454/2/6 445/2/6 459/2/6
f 458/3/6 454/3/6 459/3/6
f 459/2/6 445/2/6 460/2/6
f 444/2/6 455/2/6 461/2/6
f 455/3/6 456/3/6 461/3/6
f 461/3/6 456/3/6 462/3/6
f 459/3/6 460/3/6 463/3/6
f 460/2/6 445/2/6 464/2/6
f 463/3/6 460/3/6 464/3/6
f 462/3/6 463/3/6 465/3/6
f 461/2/6 462/2/6 465/2/6
f 463/2/6 464/2/6 466/2/6
f 465/3/6 463/3/6 466/3/6
f 461/2/6 465/2/6 467/2/6
f 444/2/6 461/2/6 467/2/6
f 465/2/6 466/2/6 467/2/6
f 464/2/6 445/2/6 468/2/6
f 467/2/6 466/2/6 468/2/6
f 466/2/6 464/2/6 468/2/6
f 469/3/6 470/3/6 473/3/6
f 470/4/6 471/4/6 474/4/6
f 473/3/6 470/3/6 474/3/6
f 471/3/6 472/3/6 475/3/6
f 474/4/6 471/4/6 475/4/6
f 475/3/6 472/3/6 476/3/6
f 477/3/6 478/3/6 481/3/6
f 478/4/6 479/4/6 482/4/6
f 481/3/6 478/3/6 482/3/6
f 479/3/6 480/3/6 483/3/6
f 482/4/6 479/4/6 483/4/6
f 483/3/6 480/3/6 484/3/6
f 485/3/6 486/3/6 489/3/6
f 486/4/6 487/4/6 490/4/6
f 489/3/6 486/3/6 490/3/6
f 487/3/6 488/3/6 491/3/6
f 490/4/6 487/4/6 491/4/6
f 491/3/6 488/3/6 492/3/6
f 493/3/6 494/3/6 497/3/6
f 494/4/6 495/4/6 498/4/6
f 497/3/6 494/3/6 498/3/6
f 495/3/6 496/3/6 499/3/6
f 498/4/6 495/4/6 499/4/6
f 499/3/6 496/3/6 500/3/6
f 501/3/6 502/3/6 505/3/6
f 502/4/6 503/4/6 506/4/6
f 505/3/6 502/3/6 506/3/6
f 503/3/6 504/3/6 507/3/6
f 506/4/6 503/4/6 507/4/6
f 507/3/6 504/3/6 508/3/6
