# MagicaVoxel @ Ephtracy

# group
o 

# material
mtllib lechuga.mtl
usemtl palette

# normals
vn -1 0 0
vn 1 0 0
vn 0 0 1
vn 0 0 -1
vn 0 -1 0
vn 0 1 0

# texcoords
vt 0.00585938 0.5
vt 0.00976563 0.5
vt 0.0136719 0.5

# verts
v -0.2 0.2 0.0999999
v -0.2 0.2 -7.45058e-008
v -0.2 0.2 -0.3
v -0.2 0.2 -0.4
v -0.2 0.3 -7.45058e-008
v -0.2 0.3 -0.3
v -0.2 0.6 0.0999999
v -0.2 0.6 -0.4
v -0.2 0.7 0.0999999
v -0.2 0.7 -7.45058e-008
v -0.2 0.7 -0.3
v -0.2 0.7 -0.4
v -0.2 0.8 -7.45058e-008
v -0.2 0.8 -0.3
v -0.0999999 0.1 -7.45058e-008
v -0.0999999 0.1 -0.3
v -0.0999999 0.2 -7.45058e-008
v -0.0999999 0.2 -0.3
v -0.0999999 0.7 0.0999999
v -0.0999999 0.7 -7.45058e-008
v -0.0999999 0.7 -0.3
v -0.0999999 0.7 -0.4
v -0.0999999 0.8 0.0999999
v -0.0999999 0.8 -7.45058e-008
v -0.0999999 0.8 -0.3
v -0.0999999 0.8 -0.4
v 5.96046e-008 0 -7.45058e-008
v 5.96046e-008 0 -0.3
v 5.96046e-008 0.1 0.0999999
v 5.96046e-008 0.1 -7.45058e-008
v 5.96046e-008 0.1 -0.3
v 5.96046e-008 0.1 -0.4
v 5.96046e-008 0.2 0.0999999
v 5.96046e-008 0.2 -7.45058e-008
v 5.96046e-008 0.2 -0.3
v 5.96046e-008 0.2 -0.4
v 0.2 0 -7.45058e-008
v 0.2 0 -0.3
v 0.2 0.1 0.0999999
v 0.2 0.1 -7.45058e-008
v 0.2 0.1 -0.3
v 0.2 0.1 -0.4
v 0.2 0.2 0.0999999
v 0.2 0.2 -7.45058e-008
v 0.2 0.2 -0.3
v 0.2 0.2 -0.4
v 0.3 0.1 -7.45058e-008
v 0.3 0.1 -0.3
v 0.3 0.2 -7.45058e-008
v 0.3 0.2 -0.3
v 0.3 0.7 0.0999999
v 0.3 0.7 -7.45058e-008
v 0.3 0.7 -0.3
v 0.3 0.7 -0.4
v 0.3 0.8 0.0999999
v 0.3 0.8 -7.45058e-008
v 0.3 0.8 -0.3
v 0.3 0.8 -0.4
v 0.4 0.2 0.0999999
v 0.4 0.2 -7.45058e-008
v 0.4 0.2 -0.3
v 0.4 0.2 -0.4
v 0.4 0.3 -7.45058e-008
v 0.4 0.3 -0.3
v 0.4 0.6 0.0999999
v 0.4 0.6 -0.4
v 0.4 0.7 0.0999999
v 0.4 0.7 -7.45058e-008
v 0.4 0.7 -0.3
v 0.4 0.7 -0.4
v 0.4 0.8 -7.45058e-008
v 0.4 0.8 -0.3
v -0.2 0.2 0.0999999
v -0.2 0.6 0.0999999
v -0.2 0.7 0.0999999
v -0.0999999 0.2 0.0999999
v -0.0999999 0.3 0.0999999
v -0.0999999 0.7 0.0999999
v -0.0999999 0.8 0.0999999
v 5.96046e-008 0.1 0.0999999
v 5.96046e-008 0.2 0.0999999
v 0.2 0.1 0.0999999
v 0.2 0.2 0.0999999
v 0.3 0.2 0.0999999
v 0.3 0.3 0.0999999
v 0.3 0.7 0.0999999
v 0.3 0.8 0.0999999
v 0.4 0.2 0.0999999
v 0.4 0.6 0.0999999
v 0.4 0.7 0.0999999
v -0.2 0.7 -7.45058e-008
v -0.2 0.8 -7.45058e-008
v -0.0999999 0.1 -7.45058e-008
v -0.0999999 0.2 -7.45058e-008
v -0.0999999 0.7 -7.45058e-008
v -0.0999999 0.8 -7.45058e-008
v 5.96046e-008 0 -7.45058e-008
v 5.96046e-008 0.1 -7.45058e-008
v 5.96046e-008 0.2 -7.45058e-008
v 0.2 0 -7.45058e-008
v 0.2 0.1 -7.45058e-008
v 0.2 0.2 -7.45058e-008
v 0.3 0.1 -7.45058e-008
v 0.3 0.2 -7.45058e-008
v 0.3 0.7 -7.45058e-008
v 0.3 0.8 -7.45058e-008
v 0.4 0.7 -7.45058e-008
v 0.4 0.8 -7.45058e-008
v -0.2 0.7 -0.3
v -0.2 0.8 -0.3
v -0.0999999 0.1 -0.3
v -0.0999999 0.2 -0.3
v -0.0999999 0.7 -0.3
v -0.0999999 0.8 -0.3
v 5.96046e-008 0 -0.3
v 5.96046e-008 0.1 -0.3
v 5.96046e-008 0.2 -0.3
v 0.2 0 -0.3
v 0.2 0.1 -0.3
v 0.2 0.2 -0.3
v 0.3 0.1 -0.3
v 0.3 0.2 -0.3
v 0.3 0.7 -0.3
v 0.3 0.8 -0.3
v 0.4 0.7 -0.3
v 0.4 0.8 -0.3
v -0.2 0.2 -0.4
v -0.2 0.6 -0.4
v -0.2 0.7 -0.4
v -0.0999999 0.2 -0.4
v -0.0999999 0.3 -0.4
v -0.0999999 0.7 -0.4
v -0.0999999 0.8 -0.4
v 5.96046e-008 0.1 -0.4
v 5.96046e-008 0.2 -0.4
v 0.2 0.1 -0.4
v 0.2 0.2 -0.4
v 0.3 0.2 -0.4
v 0.3 0.3 -0.4
v 0.3 0.7 -0.4
v 0.3 0.8 -0.4
v 0.4 0.2 -0.4
v 0.4 0.6 -0.4
v 0.4 0.7 -0.4
v 5.96046e-008 0 -7.45058e-008
v 0.2 0 -7.45058e-008
v 5.96046e-008 0 -0.3
v 0.2 0 -0.3
v 5.96046e-008 0.1 0.0999999
v 0.2 0.1 0.0999999
v -0.0999999 0.1 -7.45058e-008
v 5.96046e-008 0.1 -7.45058e-008
v 0.2 0.1 -7.45058e-008
v 0.3 0.1 -7.45058e-008
v -0.0999999 0.1 -0.3
v 5.96046e-008 0.1 -0.3
v 0.2 0.1 -0.3
v 0.3 0.1 -0.3
v 5.96046e-008 0.1 -0.4
v 0.2 0.1 -0.4
v -0.2 0.2 0.0999999
v -0.0999999 0.2 0.0999999
v 5.96046e-008 0.2 0.0999999
v 0.2 0.2 0.0999999
v 0.3 0.2 0.0999999
v 0.4 0.2 0.0999999
v -0.2 0.2 -7.45058e-008
v -0.0999999 0.2 -7.45058e-008
v 5.96046e-008 0.2 -7.45058e-008
v 0.2 0.2 -7.45058e-008
v 0.3 0.2 -7.45058e-008
v 0.4 0.2 -7.45058e-008
v -0.2 0.2 -0.3
v -0.0999999 0.2 -0.3
v 5.96046e-008 0.2 -0.3
v 0.2 0.2 -0.3
v 0.3 0.2 -0.3
v 0.4 0.2 -0.3
v -0.2 0.2 -0.4
v -0.0999999 0.2 -0.4
v 5.96046e-008 0.2 -0.4
v 0.2 0.2 -0.4
v 0.3 0.2 -0.4
v 0.4 0.2 -0.4
v -0.2 0.7 0.0999999
v -0.0999999 0.7 0.0999999
v 0.3 0.7 0.0999999
v 0.4 0.7 0.0999999
v -0.2 0.7 -7.45058e-008
v -0.0999999 0.7 -7.45058e-008
v 0.3 0.7 -7.45058e-008
v 0.4 0.7 -7.45058e-008
v -0.2 0.7 -0.3
v -0.0999999 0.7 -0.3
v 0.3 0.7 -0.3
v 0.4 0.7 -0.3
v -0.2 0.7 -0.4
v -0.0999999 0.7 -0.4
v 0.3 0.7 -0.4
v 0.4 0.7 -0.4
v -0.0999999 0.8 0.0999999
v 0.3 0.8 0.0999999
v -0.2 0.8 -7.45058e-008
v -0.0999999 0.8 -7.45058e-008
v 0.3 0.8 -7.45058e-008
v 0.4 0.8 -7.45058e-008
v -0.2 0.8 -0.3
v -0.0999999 0.8 -0.3
v 0.3 0.8 -0.3
v 0.4 0.8 -0.3
v -0.0999999 0.8 -0.4
v 0.3 0.8 -0.4

# faces
f 5/2/1 2/2/1 1/2/1
f 5/1/1 3/1/1 2/1/1
f 6/2/1 4/2/1 3/2/1
f 6/1/1 3/1/1 5/1/1
f 7/2/1 5/2/1 1/2/1
f 7/2/1 6/2/1 5/2/1
f 8/2/1 4/2/1 6/2/1
f 8/2/1 6/2/1 7/2/1
f 9/3/1 8/3/1 7/3/1
f 10/3/1 8/3/1 9/3/1
f 11/3/1 8/3/1 10/3/1
f 12/3/1 8/3/1 11/3/1
f 13/3/1 11/3/1 10/3/1
f 14/3/1 11/3/1 13/3/1
f 17/1/1 16/1/1 15/1/1
f 18/1/1 16/1/1 17/1/1
f 23/3/1 20/3/1 19/3/1
f 24/3/1 20/3/1 23/3/1
f 25/3/1 22/3/1 21/3/1
f 26/3/1 22/3/1 25/3/1
f 30/1/1 28/1/1 27/1/1
f 31/1/1 28/1/1 30/1/1
f 33/1/1 30/1/1 29/1/1
f 34/1/1 30/1/1 33/1/1
f 35/1/1 32/1/1 31/1/1
f 36/1/1 32/1/1 35/1/1
f 37/1/2 38/1/2 40/1/2
f 40/1/2 38/1/2 41/1/2
f 39/1/2 40/1/2 43/1/2
f 43/1/2 40/1/2 44/1/2
f 41/1/2 42/1/2 45/1/2
f 45/1/2 42/1/2 46/1/2
f 47/1/2 48/1/2 49/1/2
f 49/1/2 48/1/2 50/1/2
f 51/3/2 52/3/2 55/3/2
f 55/3/2 52/3/2 56/3/2
f 53/3/2 54/3/2 57/3/2
f 57/3/2 54/3/2 58/3/2
f 59/2/2 60/2/2 63/2/2
f 60/1/2 61/1/2 63/1/2
f 61/2/2 62/2/2 64/2/2
f 63/1/2 61/1/2 64/1/2
f 59/2/2 63/2/2 65/2/2
f 63/2/2 64/2/2 65/2/2
f 64/2/2 62/2/2 66/2/2
f 65/2/2 64/2/2 66/2/2
f 65/3/2 66/3/2 67/3/2
f 67/3/2 66/3/2 68/3/2
f 68/3/2 66/3/2 69/3/2
f 69/3/2 66/3/2 70/3/2
f 68/3/2 69/3/2 71/3/2
f 71/3/2 69/3/2 72/3/2
f 76/2/3 74/2/3 73/2/3
f 77/2/3 74/2/3 76/2/3
f 78/3/3 75/3/3 74/3/3
f 81/1/3 77/1/3 76/1/3
f 82/1/3 81/1/3 80/1/3
f 83/1/3 77/1/3 81/1/3
f 83/1/3 81/1/3 82/1/3
f 84/1/3 77/1/3 83/1/3
f 85/2/3 74/2/3 77/2/3
f 85/1/3 77/1/3 84/1/3
f 86/3/3 79/3/3 78/3/3
f 86/3/3 78/3/3 74/3/3
f 87/3/3 79/3/3 86/3/3
f 88/2/3 85/2/3 84/2/3
f 89/2/3 74/2/3 85/2/3
f 89/2/3 85/2/3 88/2/3
f 89/3/3 86/3/3 74/3/3
f 90/3/3 86/3/3 89/3/3
f 95/3/3 92/3/3 91/3/3
f 96/3/3 92/3/3 95/3/3
f 98/1/3 94/1/3 93/1/3
f 99/1/3 94/1/3 98/1/3
f 100/1/3 98/1/3 97/1/3
f 101/1/3 98/1/3 100/1/3
f 103/1/3 102/1/3 101/1/3
f 104/1/3 102/1/3 103/1/3
f 107/3/3 106/3/3 105/3/3
f 108/3/3 106/3/3 107/3/3
f 109/3/4 110/3/4 113/3/4
f 113/3/4 110/3/4 114/3/4
f 111/1/4 112/1/4 116/1/4
f 116/1/4 112/1/4 117/1/4
f 115/1/4 116/1/4 118/1/4
f 118/1/4 116/1/4 119/1/4
f 119/1/4 120/1/4 121/1/4
f 121/1/4 120/1/4 122/1/4
f 123/3/4 124/3/4 125/3/4
f 125/3/4 124/3/4 126/3/4
f 127/2/4 128/2/4 130/2/4
f 130/2/4 128/2/4 131/2/4
f 128/3/4 129/3/4 132/3/4
f 130/1/4 131/1/4 135/1/4
f 134/1/4 135/1/4 136/1/4
f 135/1/4 131/1/4 137/1/4
f 136/1/4 135/1/4 137/1/4
f 137/1/4 131/1/4 138/1/4
f 131/2/4 128/2/4 139/2/4
f 138/1/4 131/1/4 139/1/4
f 132/3/4 133/3/4 140/3/4
f 128/3/4 132/3/4 140/3/4
f 140/3/4 133/3/4 141/3/4
f 138/2/4 139/2/4 142/2/4
f 139/2/4 128/2/4 143/2/4
f 142/2/4 139/2/4 143/2/4
f 128/3/4 140/3/4 143/3/4
f 143/3/4 140/3/4 144/3/4
f 147/1/5 146/1/5 145/1/5
f 148/1/5 146/1/5 147/1/5
f 152/1/5 150/1/5 149/1/5
f 153/1/5 150/1/5 152/1/5
f 155/1/5 152/1/5 151/1/5
f 156/1/5 152/1/5 155/1/5
f 157/1/5 154/1/5 153/1/5
f 158/1/5 154/1/5 157/1/5
f 159/1/5 157/1/5 156/1/5
f 160/1/5 157/1/5 159/1/5
f 167/2/5 162/2/5 161/2/5
f 168/1/5 163/1/5 162/1/5
f 168/2/5 162/2/5 167/2/5
f 169/1/5 163/1/5 168/1/5
f 170/1/5 165/1/5 164/1/5
f 171/2/5 166/2/5 165/2/5
f 171/1/5 165/1/5 170/1/5
f 172/2/5 166/2/5 171/2/5
f 173/1/5 168/1/5 167/1/5
f 174/1/5 168/1/5 173/1/5
f 177/1/5 172/1/5 171/1/5
f 178/1/5 172/1/5 177/1/5
f 179/2/5 174/2/5 173/2/5
f 180/1/5 175/1/5 174/1/5
f 180/2/5 174/2/5 179/2/5
f 181/1/5 175/1/5 180/1/5
f 182/1/5 177/1/5 176/1/5
f 183/2/5 178/2/5 177/2/5
f 183/1/5 177/1/5 182/1/5
f 184/2/5 178/2/5 183/2/5
f 185/3/6 186/3/6 189/3/6
f 189/3/6 186/3/6 190/3/6
f 187/3/6 188/3/6 191/3/6
f 191/3/6 188/3/6 192/3/6
f 193/3/6 194/3/6 197/3/6
f 197/3/6 194/3/6 198/3/6
f 195/3/6 196/3/6 199/3/6
f 199/3/6 196/3/6 200/3/6
f 201/3/6 202/3/6 204/3/6
f 204/3/6 202/3/6 205/3/6
f 203/3/6 204/3/6 207/3/6
f 205/3/6 206/3/6 207/3/6
f 204/3/6 205/3/6 207/3/6
f 207/3/6 206/3/6 208/3/6
f 208/3/6 206/3/6 209/3/6
f 209/3/6 206/3/6 210/3/6
f 208/3/6 209/3/6 211/3/6
f 211/3/6 209/3/6 212/3/6
