# MagicaVoxel @ Ephtracy

# group
o 

# material
mtllib pepino.mtl
usemtl palette

# normals
vn -1 0 0
vn 1 0 0
vn 0 0 1
vn 0 0 -1
vn 0 -1 0
vn 0 1 0

# texcoords
vt 0.896484 0.5
vt 0.904297 0.5

# verts
v -0.8 0.1 0.3
v -0.8 0.1 0
v -0.8 0.2 0.3
v -0.8 0.2 0
v -0.7 0 0.3
v -0.7 0 0.2
v -0.7 0 0
v -0.7 0.1 0.4
v -0.7 0.1 0.3
v -0.7 0.1 0.2
v -0.7 0.1 0
v -0.7 0.1 -0.1
v -0.7 0.2 0.4
v -0.7 0.2 0.3
v -0.7 0.2 0.1
v -0.7 0.2 0
v -0.7 0.2 -0.1
v -0.7 0.3 0.3
v -0.7 0.3 0.1
v -0.6 0 0.4
v -0.6 0 0.3
v -0.6 0.1 0.5
v -0.6 0.1 0.4
v -0.6 0.1 0.3
v -0.6 0.2 0.5
v -0.6 0.2 0.4
v -0.6 0.2 0.1
v -0.6 0.2 0
v -0.6 0.3 0.1
v -0.6 0.3 0
v -0.5 0.2 0.4
v -0.5 0.2 0.3
v -0.5 0.3 0.4
v -0.5 0.3 0.3
v 0.2 0.1 0
v 0.2 0.1 -0.1
v 0.2 0.2 0
v 0.2 0.2 -0.1
v 0.3 0 0.1
v 0.3 0 0
v 0.3 0.1 0.1
v 0.3 0.1 0
v 0.3 0.2 0.1
v 0.3 0.2 0
v 0.3 0.3 0.1
v 0.3 0.3 0
v -0.4 0 0.1
v -0.4 0 0
v -0.4 0.1 0.1
v -0.4 0.1 0
v -0.4 0.2 0.1
v -0.4 0.2 0
v -0.4 0.3 0.1
v -0.4 0.3 0
v -0.3 0.1 0
v -0.3 0.1 -0.1
v -0.3 0.2 0
v -0.3 0.2 -0.1
v 0.4 0.2 0.4
v 0.4 0.2 0.3
v 0.4 0.3 0.4
v 0.4 0.3 0.3
v 0.5 0 0.4
v 0.5 0 0.3
v 0.5 0.1 0.5
v 0.5 0.1 0.4
v 0.5 0.1 0.3
v 0.5 0.2 0.5
v 0.5 0.2 0.4
v 0.5 0.2 0.3
v 0.5 0.2 0.2
v 0.5 0.2 0.1
v 0.5 0.2 0
v 0.5 0.3 0.3
v 0.5 0.3 0.2
v 0.5 0.3 0.1
v 0.5 0.3 0
v 0.6 0 0.3
v 0.6 0 0
v 0.6 0.1 0.4
v 0.6 0.1 0.3
v 0.6 0.1 0
v 0.6 0.1 -0.1
v 0.6 0.2 0.4
v 0.6 0.2 0.3
v 0.6 0.2 0.2
v 0.6 0.2 0.1
v 0.6 0.2 0
v 0.6 0.2 -0.1
v 0.6 0.3 0.2
v 0.6 0.3 0.1
v 0.7 0.1 0.3
v 0.7 0.1 0
v 0.7 0.2 0.3
v 0.7 0.2 0
v -0.6 0.1 0.5
v -0.6 0.2 0.5
v -0.3 0.1 0.5
v -0.3 0.2 0.5
v 0.4 0.1 0.5
v 0.4 0.2 0.5
v 0.5 0.1 0.5
v 0.5 0.2 0.5
v -0.7 0.1 0.4
v -0.7 0.2 0.4
v -0.6 0 0.4
v -0.6 0.1 0.4
v -0.6 0.2 0.4
v -0.5 0.2 0.4
v -0.5 0.3 0.4
v -0.3 0.1 0.4
v -0.3 0.2 0.4
v -0.1 0 0.4
v -0.1 0.1 0.4
v 0.4 0 0.4
v 0.4 0.1 0.4
v 0.4 0.2 0.4
v 0.4 0.3 0.4
v 0.5 0 0.4
v 0.5 0.1 0.4
v 0.5 0.2 0.4
v 0.6 0.1 0.4
v 0.6 0.2 0.4
v -0.8 0.1 0.3
v -0.8 0.2 0.3
v -0.7 0 0.3
v -0.7 0.1 0.3
v -0.7 0.2 0.3
v -0.7 0.3 0.3
v -0.6 0 0.3
v -0.6 0.1 0.3
v -0.6 0.2 0.3
v -0.6 0.3 0.3
v -0.5 0.2 0.3
v -0.5 0.3 0.3
v 0.4 0.2 0.3
v 0.4 0.3 0.3
v 0.5 0 0.3
v 0.5 0.1 0.3
v 0.5 0.2 0.3
v 0.5 0.3 0.3
v 0.6 0 0.3
v 0.6 0.1 0.3
v 0.6 0.2 0.3
v 0.7 0.1 0.3
v 0.7 0.2 0.3
v 0.5 0.2 0.2
v 0.5 0.3 0.2
v 0.6 0.2 0.2
v 0.6 0.3 0.2
v -0.7 0.2 0.1
v -0.7 0.3 0.1
v -0.6 0.2 0.1
v -0.6 0.3 0.1
v -0.4 0 0.1
v -0.4 0.1 0.1
v -0.4 0.2 0.1
v -0.4 0.3 0.1
v -0.2 0.1 0.1
v -0.2 0.2 0.1
v -0.1 0.1 0.1
v -0.1 0.2 0.1
v 0.3 0 0.1
v 0.3 0.1 0.1
v 0.3 0.2 0.1
v 0.3 0.3 0.1
v 0.5 0.2 0.1
v 0.5 0.3 0.1
v 0.6 0.2 0.1
v 0.6 0.3 0.1
v -0.8 0.1 0
v -0.8 0.2 0
v -0.7 0 0
v -0.7 0.1 0
v -0.7 0.2 0
v -0.6 0.2 0
v -0.6 0.3 0
v -0.4 0 0
v -0.4 0.1 0
v -0.4 0.2 0
v -0.4 0.3 0
v -0.3 0.1 0
v -0.3 0.2 0
v -0.2 0.1 0
v -0.2 0.2 0
v -0.1 0.1 0
v -0.1 0.2 0
v 0.2 0.1 0
v 0.2 0.2 0
v 0.3 0 0
v 0.3 0.1 0
v 0.3 0.2 0
v 0.3 0.3 0
v 0.4 0.1 0
v 0.4 0.2 0
v 0.5 0.2 0
v 0.5 0.3 0
v 0.6 0 0
v 0.6 0.1 0
v 0.6 0.2 0
v 0.7 0.1 0
v 0.7 0.2 0
v -0.7 0.1 -0.1
v -0.7 0.2 -0.1
v -0.3 0.1 -0.1
v -0.3 0.2 -0.1
v 0.2 0.1 -0.1
v 0.2 0.2 -0.1
v 0.4 0.1 -0.1
v 0.4 0.2 -0.1
v 0.6 0.1 -0.1
v 0.6 0.2 -0.1
v -0.6 0 0.4
v -0.1 0 0.4
v 0.4 0 0.4
v 0.5 0 0.4
v -0.7 0 0.3
v -0.6 0 0.3
v -0.3 0 0.3
v 0.5 0 0.3
v 0.6 0 0.3
v -0.7 0 0.2
v -0.3 0 0.2
v -0.1 0 0.2
v 0.4 0 0.2
v -0.4 0 0.1
v 0.3 0 0.1
v -0.7 0 0
v -0.4 0 0
v 0.3 0 0
v 0.6 0 0
v -0.6 0.1 0.5
v -0.3 0.1 0.5
v 0.4 0.1 0.5
v 0.5 0.1 0.5
v -0.7 0.1 0.4
v -0.6 0.1 0.4
v -0.3 0.1 0.4
v -0.1 0.1 0.4
v 0.4 0.1 0.4
v 0.5 0.1 0.4
v 0.6 0.1 0.4
v -0.8 0.1 0.3
v -0.7 0.1 0.3
v -0.6 0.1 0.3
v 0.5 0.1 0.3
v 0.6 0.1 0.3
v 0.7 0.1 0.3
v -0.7 0.1 0.2
v -0.4 0.1 0.1
v -0.2 0.1 0.1
v -0.1 0.1 0.1
v 0.3 0.1 0.1
v -0.8 0.1 0
v -0.7 0.1 0
v -0.4 0.1 0
v -0.3 0.1 0
v -0.2 0.1 0
v -0.1 0.1 0
v 0.2 0.1 0
v 0.3 0.1 0
v 0.4 0.1 0
v 0.6 0.1 0
v 0.7 0.1 0
v -0.7 0.1 -0.1
v -0.3 0.1 -0.1
v 0.2 0.1 -0.1
v 0.4 0.1 -0.1
v 0.6 0.1 -0.1
v -0.6 0.2 0.5
v -0.3 0.2 0.5
v 0.4 0.2 0.5
v 0.5 0.2 0.5
v -0.7 0.2 0.4
v -0.6 0.2 0.4
v -0.5 0.2 0.4
v -0.3 0.2 0.4
v 0.4 0.2 0.4
v 0.5 0.2 0.4
v 0.6 0.2 0.4
v -0.8 0.2 0.3
v -0.7 0.2 0.3
v -0.6 0.2 0.3
v -0.5 0.2 0.3
v 0.4 0.2 0.3
v 0.5 0.2 0.3
v 0.6 0.2 0.3
v 0.7 0.2 0.3
v 0.5 0.2 0.2
v 0.6 0.2 0.2
v -0.7 0.2 0.1
v -0.6 0.2 0.1
v -0.4 0.2 0.1
v -0.2 0.2 0.1
v -0.1 0.2 0.1
v 0.3 0.2 0.1
v 0.5 0.2 0.1
v 0.6 0.2 0.1
v -0.8 0.2 0
v -0.7 0.2 0
v -0.6 0.2 0
v -0.4 0.2 0
v -0.3 0.2 0
v -0.2 0.2 0
v -0.1 0.2 0
v 0.2 0.2 0
v 0.3 0.2 0
v 0.4 0.2 0
v 0.5 0.2 0
v 0.6 0.2 0
v 0.7 0.2 0
v -0.7 0.2 -0.1
v -0.3 0.2 -0.1
v 0.2 0.2 -0.1
v 0.4 0.2 -0.1
v 0.6 0.2 -0.1
v -0.5 0.3 0.4
v 0.4 0.3 0.4
v -0.7 0.3 0.3
v -0.6 0.3 0.3
v -0.5 0.3 0.3
v 0.4 0.3 0.3
v 0.5 0.3 0.3
v -0.6 0.3 0.2
v 0.5 0.3 0.2
v 0.6 0.3 0.2
v -0.7 0.3 0.1
v -0.6 0.3 0.1
v -0.4 0.3 0.1
v 0.3 0.3 0.1
v 0.5 0.3 0.1
v 0.6 0.3 0.1
v -0.6 0.3 0
v -0.4 0.3 0
v 0.3 0.3 0
v 0.5 0.3 0

# faces
f 3/1/1 2/1/1 1/1/1
f 4/1/1 2/1/1 3/1/1
f 9/2/1 6/2/1 5/2/1
f 10/1/1 7/1/1 6/1/1
f 10/2/1 6/2/1 9/2/1
f 11/1/1 7/1/1 10/1/1
f 13/2/1 9/2/1 8/2/1
f 14/2/1 9/2/1 13/2/1
f 16/1/1 12/1/1 11/1/1
f 17/1/1 12/1/1 16/1/1
f 18/1/1 15/1/1 14/1/1
f 19/1/1 15/1/1 18/1/1
f 23/1/1 21/1/1 20/1/1
f 24/1/1 21/1/1 23/1/1
f 25/1/1 23/1/1 22/1/1
f 26/1/1 23/1/1 25/1/1
f 29/2/1 28/2/1 27/2/1
f 30/2/1 28/2/1 29/2/1
f 33/1/1 32/1/1 31/1/1
f 34/1/1 32/1/1 33/1/1
f 37/1/1 36/1/1 35/1/1
f 38/1/1 36/1/1 37/1/1
f 41/1/1 40/1/1 39/1/1
f 42/1/1 40/1/1 41/1/1
f 45/1/1 44/1/1 43/1/1
f 46/1/1 44/1/1 45/1/1
f 47/1/2 48/1/2 49/1/2
f 49/1/2 48/1/2 50/1/2
f 51/2/2 52/2/2 53/2/2
f 53/2/2 52/2/2 54/2/2
f 55/1/2 56/1/2 57/1/2
f 57/1/2 56/1/2 58/1/2
f 59/1/2 60/1/2 61/1/2
f 61/1/2 60/1/2 62/1/2
f 63/1/2 64/1/2 66/1/2
f 66/1/2 64/1/2 67/1/2
f 65/1/2 66/1/2 68/1/2
f 68/1/2 66/1/2 69/1/2
f 70/2/2 71/2/2 74/2/2
f 74/2/2 71/2/2 75/2/2
f 72/1/2 73/1/2 76/1/2
f 76/1/2 73/1/2 77/1/2
f 78/1/2 79/1/2 81/1/2
f 81/1/2 79/1/2 82/1/2
f 80/2/2 81/2/2 84/2/2
f 84/2/2 81/2/2 85/2/2
f 82/2/2 83/2/2 88/2/2
f 88/2/2 83/2/2 89/2/2
f 86/1/2 87/1/2 90/1/2
f 90/1/2 87/1/2 91/1/2
f 92/1/2 93/1/2 94/1/2
f 94/1/2 93/1/2 95/1/2
f 98/1/3 97/1/3 96/1/3
f 99/1/3 97/1/3 98/1/3
f 100/2/3 99/2/3 98/2/3
f 101/2/3 99/2/3 100/2/3
f 102/1/3 101/1/3 100/1/3
f 103/1/3 101/1/3 102/1/3
f 107/2/3 105/2/3 104/2/3
f 108/2/3 105/2/3 107/2/3
f 111/1/3 107/1/3 106/1/3
f 112/1/3 110/1/3 109/1/3
f 113/1/3 111/1/3 106/1/3
f 114/1/3 111/1/3 113/1/3
f 115/2/3 114/2/3 113/2/3
f 116/2/3 114/2/3 115/2/3
f 117/1/3 110/1/3 112/1/3
f 118/1/3 110/1/3 117/1/3
f 119/1/3 116/1/3 115/1/3
f 120/1/3 116/1/3 119/1/3
f 122/2/3 121/2/3 120/2/3
f 123/2/3 121/2/3 122/2/3
f 127/1/3 125/1/3 124/1/3
f 128/1/3 125/1/3 127/1/3
f 130/2/3 127/2/3 126/2/3
f 131/2/3 127/2/3 130/2/3
f 132/1/3 129/1/3 128/1/3
f 133/1/3 129/1/3 132/1/3
f 134/2/3 133/2/3 132/2/3
f 135/2/3 133/2/3 134/2/3
f 140/2/3 137/2/3 136/2/3
f 141/2/3 137/2/3 140/2/3
f 142/1/3 139/1/3 138/1/3
f 143/1/3 139/1/3 142/1/3
f 145/1/3 144/1/3 143/1/3
f 146/1/3 144/1/3 145/1/3
f 149/1/3 148/1/3 147/1/3
f 150/1/3 148/1/3 149/1/3
f 151/1/4 152/1/4 153/1/4
f 153/1/4 152/1/4 154/1/4
f 155/1/4 156/1/4 159/1/4
f 157/1/4 158/1/4 160/1/4
f 155/1/4 159/1/4 161/1/4
f 160/1/4 158/1/4 162/1/4
f 155/1/4 161/1/4 163/1/4
f 163/1/4 161/1/4 164/1/4
f 162/1/4 158/1/4 165/1/4
f 165/1/4 158/1/4 166/1/4
f 167/1/4 168/1/4 169/1/4
f 169/1/4 168/1/4 170/1/4
f 171/1/4 172/1/4 174/1/4
f 174/1/4 172/1/4 175/1/4
f 173/1/4 174/1/4 178/1/4
f 178/1/4 174/1/4 179/1/4
f 176/2/4 177/2/4 180/2/4
f 180/2/4 177/2/4 181/2/4
f 182/2/4 183/2/4 184/2/4
f 184/2/4 183/2/4 185/2/4
f 184/1/4 185/1/4 186/1/4
f 186/1/4 185/1/4 187/1/4
f 186/2/4 187/2/4 188/2/4
f 188/2/4 187/2/4 189/2/4
f 190/1/4 191/1/4 194/1/4
f 192/1/4 193/1/4 195/1/4
f 195/1/4 193/1/4 196/1/4
f 196/1/4 193/1/4 197/1/4
f 190/1/4 194/1/4 198/1/4
f 198/1/4 194/1/4 199/1/4
f 199/1/4 200/1/4 201/1/4
f 201/1/4 200/1/4 202/1/4
f 203/1/4 204/1/4 205/1/4
f 205/1/4 204/1/4 206/1/4
f 207/1/4 208/1/4 209/1/4
f 209/1/4 208/1/4 210/1/4
f 209/2/4 210/2/4 211/2/4
f 211/2/4 210/2/4 212/2/4
f 218/1/5 214/1/5 213/1/5
f 219/1/5 214/1/5 218/1/5
f 220/1/5 216/1/5 215/1/5
f 222/2/5 218/2/5 217/2/5
f 222/2/5 219/2/5 218/2/5
f 223/1/5 214/1/5 219/1/5
f 223/2/5 219/2/5 222/2/5
f 224/2/5 215/2/5 214/2/5
f 224/1/5 214/1/5 223/1/5
f 225/1/5 221/1/5 220/1/5
f 225/2/5 215/2/5 224/2/5
f 225/1/5 220/1/5 215/1/5
f 226/1/5 223/1/5 222/1/5
f 226/1/5 224/1/5 223/1/5
f 226/1/5 225/1/5 224/1/5
f 227/1/5 225/1/5 226/1/5
f 228/1/5 226/1/5 222/1/5
f 229/1/5 226/1/5 228/1/5
f 230/1/5 225/1/5 227/1/5
f 231/1/5 221/1/5 225/1/5
f 231/1/5 225/1/5 230/1/5
f 237/1/5 233/1/5 232/1/5
f 238/2/5 234/2/5 233/2/5
f 238/1/5 233/1/5 237/1/5
f 239/2/5 234/2/5 238/2/5
f 240/1/5 235/1/5 234/1/5
f 240/2/5 234/2/5 239/2/5
f 241/1/5 235/1/5 240/1/5
f 244/2/5 237/2/5 236/2/5
f 245/2/5 237/2/5 244/2/5
f 246/2/5 242/2/5 241/2/5
f 247/2/5 242/2/5 246/2/5
f 249/1/5 244/1/5 243/1/5
f 254/1/5 249/1/5 243/1/5
f 255/1/5 249/1/5 254/1/5
f 256/2/5 251/2/5 250/2/5
f 257/2/5 251/2/5 256/2/5
f 258/1/5 252/1/5 251/1/5
f 258/2/5 251/2/5 257/2/5
f 259/2/5 253/2/5 252/2/5
f 259/1/5 252/1/5 258/1/5
f 260/2/5 253/2/5 259/2/5
f 261/2/5 253/2/5 260/2/5
f 263/1/5 248/1/5 247/1/5
f 264/1/5 248/1/5 263/1/5
f 265/1/5 257/1/5 256/1/5
f 265/1/5 256/1/5 255/1/5
f 266/1/5 257/1/5 265/1/5
f 267/1/5 262/1/5 261/1/5
f 267/1/5 261/1/5 260/1/5
f 268/2/5 263/2/5 262/2/5
f 268/1/5 262/1/5 267/1/5
f 269/2/5 263/2/5 268/2/5
f 270/1/6 271/1/6 275/1/6
f 275/1/6 271/1/6 276/1/6
f 271/2/6 272/2/6 277/2/6
f 276/1/6 271/1/6 277/1/6
f 272/1/6 273/1/6 278/1/6
f 277/2/6 272/2/6 278/2/6
f 278/1/6 273/1/6 279/1/6
f 275/2/6 276/2/6 282/2/6
f 274/2/6 275/2/6 282/2/6
f 282/2/6 276/2/6 283/2/6
f 283/2/6 276/2/6 284/2/6
f 279/2/6 280/2/6 285/2/6
f 278/2/6 279/2/6 285/2/6
f 285/2/6 280/2/6 286/2/6
f 286/2/6 280/2/6 287/2/6
f 287/1/6 288/1/6 289/1/6
f 286/1/6 287/1/6 289/1/6
f 289/1/6 288/1/6 290/1/6
f 281/1/6 282/1/6 291/1/6
f 290/1/6 288/1/6 298/1/6
f 281/1/6 291/1/6 299/1/6
f 291/2/6 292/2/6 300/2/6
f 299/1/6 291/1/6 300/1/6
f 300/2/6 292/2/6 301/2/6
f 293/2/6 294/2/6 302/2/6
f 302/2/6 294/2/6 303/2/6
f 294/1/6 295/1/6 304/1/6
f 303/2/6 294/2/6 304/2/6
f 295/2/6 296/2/6 305/2/6
f 304/1/6 295/1/6 305/1/6
f 305/2/6 296/2/6 306/2/6
f 306/2/6 296/2/6 307/2/6
f 297/1/6 298/1/6 309/1/6
f 298/1/6 288/1/6 310/1/6
f 309/1/6 298/1/6 310/1/6
f 310/1/6 288/1/6 311/1/6
f 300/1/6 301/1/6 312/1/6
f 302/1/6 303/1/6 312/1/6
f 301/1/6 302/1/6 312/1/6
f 312/1/6 303/1/6 313/1/6
f 307/1/6 308/1/6 314/1/6
f 306/1/6 307/1/6 314/1/6
f 309/2/6 310/2/6 315/2/6
f 314/1/6 308/1/6 315/1/6
f 308/2/6 309/2/6 315/2/6
f 315/2/6 310/2/6 316/2/6
f 317/1/6 318/1/6 321/1/6
f 321/1/6 318/1/6 322/1/6
f 319/1/6 320/1/6 324/1/6
f 322/2/6 323/2/6 324/2/6
f 321/2/6 322/2/6 324/2/6
f 320/2/6 321/2/6 324/2/6
f 324/2/6 323/2/6 325/2/6
f 319/1/6 324/1/6 327/1/6
f 325/1/6 326/1/6 327/1/6
f 324/1/6 325/1/6 327/1/6
f 327/1/6 326/1/6 328/1/6
f 328/1/6 326/1/6 329/1/6
f 329/1/6 326/1/6 330/1/6
f 330/1/6 326/1/6 331/1/6
f 331/1/6 326/1/6 332/1/6
f 328/2/6 329/2/6 333/2/6
f 333/2/6 329/2/6 334/2/6
f 330/1/6 331/1/6 335/1/6
f 335/1/6 331/1/6 336/1/6
