# MagicaVoxel @ Ephtracy

# group
o 

# material
mtllib queso.mtl
usemtl palette

# normals
vn -1 0 0
vn 1 0 0
vn 0 0 1
vn 0 0 -1
vn 0 -1 0
vn 0 1 0

# texcoords
vt 0.00195313 0.5
vt 0.00585938 0.5

# verts
v -1.1 0 -2.98023e-008
v -1.1 0 -0.2
v -1.1 0.1 -2.98023e-008
v -1.1 0.1 -0.1
v -1.1 0.2 -2.98023e-008
v -1.1 0.2 -0.1
v -1.1 0.2 -0.2
v -1 0 0.1
v -1 0 -2.98023e-008
v -1 0 -0.2
v -1 0 -0.3
v -1 0.1 0.1
v -1 0.1 -2.98023e-008
v -1 0.1 -0.2
v -1 0.1 -0.3
v -1 0.2 0.1
v -1 0.2 -2.98023e-008
v -1 0.2 -0.2
v -1 0.2 -0.3
v -0.9 0.2 -2.98023e-008
v -0.9 0.2 -0.1
v -0.9 0.2 -0.2
v -0.9 0.3 -2.98023e-008
v -0.9 0.3 -0.2
v -0.7 0 0.2
v -0.7 0 0.1
v -0.7 0 -0.3
v -0.7 0 -0.4
v -0.7 0.1 0.2
v -0.7 0.1 0.1
v -0.7 0.2 0.2
v -0.7 0.2 0.1
v -0.7 0.2 -0.2
v -0.7 0.2 -0.3
v -0.7 0.2 -0.4
v -0.7 0.3 -0.2
v -0.7 0.3 -0.3
v -0.6 0.2 0.1
v -0.6 0.2 -2.98023e-008
v -0.6 0.3 0.1
v -0.6 0.3 -2.98023e-008
v -0.6 0.3 -0.2
v -0.6 0.4 -2.98023e-008
v -0.6 0.4 -0.2
v -0.4 0 0.3
v -0.4 0 0.2
v -0.4 0 -0.4
v -0.4 0 -0.5
v -0.4 0.1 0.3
v -0.4 0.1 0.2
v -0.4 0.2 0.3
v -0.4 0.2 0.2
v -0.4 0.2 -0.3
v -0.4 0.2 -0.4
v -0.4 0.2 -0.5
v -0.4 0.3 -0.3
v -0.4 0.3 -0.4
v -0.3 0.2 0.2
v -0.3 0.2 0.1
v -0.3 0.3 0.2
v -0.3 0.3 0.1
v -0.1 0 0.3
v -0.1 0 0.2
v -0.1 0 -0.4
v -0.1 0 -0.5
v -0.1 0.1 0.3
v -0.1 0.1 0.2
v -0.1 0.2 0.3
v -0.1 0.2 0.2
v -0.1 0.2 0.1
v -0.1 0.2 -0.2
v -0.1 0.2 -0.3
v -0.1 0.2 -0.4
v -0.1 0.2 -0.5
v -0.1 0.3 0.2
v -0.1 0.3 0.1
v -0.1 0.3 -2.98023e-008
v -0.1 0.3 -0.1
v -0.1 0.3 -0.2
v -0.1 0.3 -0.4
v -0.1 0.4 -2.98023e-008
v -0.1 0.4 -0.2
v 0 0 0.2
v 0 0 0.1
v 0 0 -0.3
v 0 0 -0.4
v 0 0.1 0.1
v 0 0.2 0.2
v 0 0.2 0.1
v 0 0.2 -2.98023e-008
v 0 0.2 -0.1
v 0 0.2 -0.2
v 0 0.2 -0.3
v 0 0.2 -0.4
v 0 0.3 0.1
v 0 0.3 -0.1
v 0 0.3 -0.2
v 0.1 0 0.1
v 0.1 0 -2.98023e-008
v 0.1 0 -0.1
v 0.1 0 -0.3
v 0.1 0.1 0.1
v 0.1 0.1 -2.98023e-008
v 0.1 0.1 -0.1
v 0.1 0.2 0.1
v 0.1 0.2 -2.98023e-008
v 0.1 0.2 -0.3
v -0.4 0 0.3
v -0.4 0.1 0.3
v -0.4 0.2 0.3
v -0.3 0.1 0.3
v -0.3 0.2 0.3
v -0.2 0 0.3
v -0.2 0.1 0.3
v -0.1 0 0.3
v -0.1 0.1 0.3
v -0.1 0.2 0.3
v -0.7 0 0.2
v -0.7 0.1 0.2
v -0.7 0.2 0.2
v -0.6 0.1 0.2
v -0.6 0.2 0.2
v -0.4 0 0.2
v -0.4 0.1 0.2
v -0.4 0.2 0.2
v -0.3 0.2 0.2
v -0.3 0.3 0.2
v -0.1 0 0.2
v -0.1 0.1 0.2
v -0.1 0.2 0.2
v -0.1 0.3 0.2
v 0 0 0.2
v 0 0.2 0.2
v -1 0 0.1
v -1 0.1 0.1
v -1 0.2 0.1
v -0.9 0 0.1
v -0.9 0.1 0.1
v -0.7 0 0.1
v -0.7 0.1 0.1
v -0.7 0.2 0.1
v -0.6 0.2 0.1
v -0.6 0.3 0.1
v -0.3 0.2 0.1
v -0.3 0.3 0.1
v -0.1 0.2 0.1
v -0.1 0.3 0.1
v 0 0 0.1
v 0 0.1 0.1
v 0 0.2 0.1
v 0 0.3 0.1
v 0.1 0 0.1
v 0.1 0.1 0.1
v 0.1 0.2 0.1
v -1.1 0 -2.98023e-008
v -1.1 0.1 -2.98023e-008
v -1.1 0.2 -2.98023e-008
v -1 0 -2.98023e-008
v -1 0.1 -2.98023e-008
v -1 0.2 -2.98023e-008
v -0.9 0.2 -2.98023e-008
v -0.9 0.3 -2.98023e-008
v -0.8 0.2 -2.98023e-008
v -0.8 0.3 -2.98023e-008
v -0.7 0.2 -2.98023e-008
v -0.7 0.3 -2.98023e-008
v -0.6 0.2 -2.98023e-008
v -0.6 0.3 -2.98023e-008
v -0.6 0.4 -2.98023e-008
v -0.4 0.3 -2.98023e-008
v -0.4 0.4 -2.98023e-008
v -0.2 0.3 -2.98023e-008
v -0.2 0.4 -2.98023e-008
v -0.1 0.3 -2.98023e-008
v -0.1 0.4 -2.98023e-008
v -1.1 0 -0.2
v -1.1 0.2 -0.2
v -1 0 -0.2
v -1 0.1 -0.2
v -1 0.2 -0.2
v -0.9 0.2 -0.2
v -0.9 0.3 -0.2
v -0.7 0.2 -0.2
v -0.7 0.3 -0.2
v -0.6 0.3 -0.2
v -0.6 0.4 -0.2
v -0.4 0.3 -0.2
v -0.3 0.3 -0.2
v -0.1 0.2 -0.2
v -0.1 0.3 -0.2
v -0.1 0.4 -0.2
v 0 0.2 -0.2
v 0 0.3 -0.2
v -1 0 -0.3
v -1 0.1 -0.3
v -1 0.2 -0.3
v -0.9 0 -0.3
v -0.9 0.1 -0.3
v -0.9 0.2 -0.3
v -0.8 0 -0.3
v -0.8 0.1 -0.3
v -0.7 0 -0.3
v -0.7 0.2 -0.3
v -0.7 0.3 -0.3
v -0.6 0.2 -0.3
v -0.6 0.3 -0.3
v -0.4 0.2 -0.3
v -0.4 0.3 -0.3
v 0 0 -0.3
v 0 0.2 -0.3
v 0.1 0 -0.3
v 0.1 0.2 -0.3
v -0.7 0 -0.4
v -0.7 0.2 -0.4
v -0.6 0 -0.4
v -0.6 0.1 -0.4
v -0.5 0 -0.4
v -0.5 0.1 -0.4
v -0.4 0 -0.4
v -0.4 0.2 -0.4
v -0.4 0.3 -0.4
v -0.3 0.2 -0.4
v -0.2 0.2 -0.4
v -0.1 0 -0.4
v -0.1 0.2 -0.4
v -0.1 0.3 -0.4
v 0 0 -0.4
v 0 0.2 -0.4
v -0.4 0 -0.5
v -0.4 0.2 -0.5
v -0.3 0.1 -0.5
v -0.3 0.2 -0.5
v -0.2 0.1 -0.5
v -0.2 0.2 -0.5
v -0.1 0 -0.5
v -0.1 0.2 -0.5
v -0.4 0 0.3
v -0.2 0 0.3
v -0.1 0 0.3
v -0.7 0 0.2
v -0.4 0 0.2
v -0.3 0 0.2
v -0.2 0 0.2
v -0.1 0 0.2
v 0 0 0.2
v -1 0 0.1
v -0.9 0 0.1
v -0.7 0 0.1
v -0.3 0 0.1
v -0.2 0 0.1
v 0 0 0.1
v 0.1 0 0.1
v -1.1 0 -2.98023e-008
v -1 0 -2.98023e-008
v -0.9 0 -2.98023e-008
v -0.8 0 -2.98023e-008
v -0.7 0 -2.98023e-008
v -0.6 0 -2.98023e-008
v -0.5 0 -2.98023e-008
v -0.2 0 -2.98023e-008
v -0.1 0 -2.98023e-008
v 0 0 -2.98023e-008
v 0.1 0 -2.98023e-008
v -0.8 0 -0.1
v -0.7 0 -0.1
v -0.6 0 -0.1
v -0.5 0 -0.1
v -0.2 0 -0.1
v -0.1 0 -0.1
v 0 0 -0.1
v 0.1 0 -0.1
v -1.1 0 -0.2
v -1 0 -0.2
v -0.9 0 -0.2
v -0.8 0 -0.2
v -0.6 0 -0.2
v -0.5 0 -0.2
v -0.3 0 -0.2
v -0.2 0 -0.2
v -1 0 -0.3
v -0.9 0 -0.3
v -0.8 0 -0.3
v -0.7 0 -0.3
v 0 0 -0.3
v 0.1 0 -0.3
v -0.7 0 -0.4
v -0.6 0 -0.4
v -0.5 0 -0.4
v -0.4 0 -0.4
v -0.3 0 -0.4
v -0.2 0 -0.4
v -0.1 0 -0.4
v 0 0 -0.4
v -0.4 0 -0.5
v -0.1 0 -0.5
v -0.4 0.2 0.3
v -0.3 0.2 0.3
v -0.1 0.2 0.3
v -0.7 0.2 0.2
v -0.6 0.2 0.2
v -0.4 0.2 0.2
v -0.3 0.2 0.2
v -0.1 0.2 0.2
v 0 0.2 0.2
v -1 0.2 0.1
v -0.7 0.2 0.1
v -0.6 0.2 0.1
v -0.3 0.2 0.1
v -0.1 0.2 0.1
v 0 0.2 0.1
v 0.1 0.2 0.1
v -1.1 0.2 -2.98023e-008
v -1 0.2 -2.98023e-008
v -0.9 0.2 -2.98023e-008
v -0.8 0.2 -2.98023e-008
v -0.7 0.2 -2.98023e-008
v -0.6 0.2 -2.98023e-008
v 0 0.2 -2.98023e-008
v 0.1 0.2 -2.98023e-008
v -1.1 0.2 -0.1
v -0.9 0.2 -0.1
v 0 0.2 -0.1
v -1.1 0.2 -0.2
v -1 0.2 -0.2
v -0.9 0.2 -0.2
v -0.7 0.2 -0.2
v -0.1 0.2 -0.2
v 0 0.2 -0.2
v -1 0.2 -0.3
v -0.9 0.2 -0.3
v -0.7 0.2 -0.3
v -0.6 0.2 -0.3
v -0.4 0.2 -0.3
v -0.1 0.2 -0.3
v 0 0.2 -0.3
v 0.1 0.2 -0.3
v -0.7 0.2 -0.4
v -0.4 0.2 -0.4
v -0.3 0.2 -0.4
v -0.2 0.2 -0.4
v -0.1 0.2 -0.4
v 0 0.2 -0.4
v -0.4 0.2 -0.5
v -0.3 0.2 -0.5
v -0.2 0.2 -0.5
v -0.1 0.2 -0.5
v -0.3 0.3 0.2
v -0.1 0.3 0.2
v -0.6 0.3 0.1
v -0.3 0.3 0.1
v -0.1 0.3 0.1
v 0 0.3 0.1
v -0.9 0.3 -2.98023e-008
v -0.8 0.3 -2.98023e-008
v -0.7 0.3 -2.98023e-008
v -0.6 0.3 -2.98023e-008
v -0.4 0.3 -2.98023e-008
v -0.2 0.3 -2.98023e-008
v -0.1 0.3 -2.98023e-008
v -0.8 0.3 -0.1
v -0.7 0.3 -0.1
v -0.1 0.3 -0.1
v 0 0.3 -0.1
v -0.9 0.3 -0.2
v -0.7 0.3 -0.2
v -0.6 0.3 -0.2
v -0.4 0.3 -0.2
v -0.3 0.3 -0.2
v -0.1 0.3 -0.2
v 0 0.3 -0.2
v -0.7 0.3 -0.3
v -0.6 0.3 -0.3
v -0.4 0.3 -0.3
v -0.3 0.3 -0.3
v -0.4 0.3 -0.4
v -0.1 0.3 -0.4
v -0.6 0.4 -2.98023e-008
v -0.4 0.4 -2.98023e-008
v -0.2 0.4 -2.98023e-008
v -0.1 0.4 -2.98023e-008
v -0.4 0.4 -0.1
v -0.2 0.4 -0.1
v -0.6 0.4 -0.2
v -0.1 0.4 -0.2

# faces
f 3/1/1 2/1/1 1/1/1
f 4/1/1 2/1/1 3/1/1
f 5/2/1 4/2/1 3/2/1
f 6/1/1 2/1/1 4/1/1
f 6/2/1 4/2/1 5/2/1
f 7/1/1 2/1/1 6/1/1
f 12/2/1 9/2/1 8/2/1
f 13/2/1 9/2/1 12/2/1
f 14/1/1 11/1/1 10/1/1
f 15/1/1 11/1/1 14/1/1
f 16/1/1 13/1/1 12/1/1
f 17/1/1 13/1/1 16/1/1
f 18/2/1 15/2/1 14/2/1
f 19/2/1 15/2/1 18/2/1
f 23/1/1 21/1/1 20/1/1
f 23/1/1 22/1/1 21/1/1
f 24/1/1 22/1/1 23/1/1
f 29/1/1 26/1/1 25/1/1
f 30/1/1 26/1/1 29/1/1
f 31/2/1 30/2/1 29/2/1
f 32/2/1 30/2/1 31/2/1
f 34/1/1 28/1/1 27/1/1
f 35/1/1 28/1/1 34/1/1
f 36/2/1 34/2/1 33/2/1
f 37/2/1 34/2/1 36/2/1
f 40/1/1 39/1/1 38/1/1
f 41/1/1 39/1/1 40/1/1
f 43/1/1 42/1/1 41/1/1
f 44/1/1 42/1/1 43/1/1
f 49/1/1 46/1/1 45/1/1
f 50/1/1 46/1/1 49/1/1
f 51/2/1 50/2/1 49/2/1
f 52/2/1 50/2/1 51/2/1
f 54/1/1 48/1/1 47/1/1
f 55/1/1 48/1/1 54/1/1
f 56/1/1 54/1/1 53/1/1
f 57/1/1 54/1/1 56/1/1
f 60/1/1 59/1/1 58/1/1
f 61/1/1 59/1/1 60/1/1
f 62/2/2 63/2/2 66/2/2
f 66/2/2 63/2/2 67/2/2
f 66/1/2 67/1/2 68/1/2
f 68/1/2 67/1/2 69/1/2
f 64/1/2 65/1/2 73/1/2
f 73/1/2 65/1/2 74/1/2
f 69/1/2 70/1/2 75/1/2
f 75/1/2 70/1/2 76/1/2
f 71/1/2 72/1/2 79/1/2
f 72/1/2 73/1/2 79/1/2
f 79/1/2 73/1/2 80/1/2
f 77/1/2 78/1/2 81/1/2
f 78/1/2 79/1/2 81/1/2
f 81/1/2 79/1/2 82/1/2
f 83/1/2 84/1/2 87/1/2
f 83/1/2 87/1/2 88/1/2
f 88/1/2 87/1/2 89/1/2
f 85/1/2 86/1/2 93/1/2
f 93/1/2 86/1/2 94/1/2
f 89/1/2 90/1/2 95/1/2
f 90/1/2 91/1/2 95/1/2
f 91/2/2 92/2/2 96/2/2
f 95/1/2 91/1/2 96/1/2
f 96/2/2 92/2/2 97/2/2
f 98/1/2 99/1/2 102/1/2
f 99/2/2 100/2/2 103/2/2
f 102/1/2 99/1/2 103/1/2
f 100/1/2 101/1/2 104/1/2
f 103/2/2 100/2/2 104/2/2
f 102/2/2 103/2/2 105/2/2
f 103/1/2 104/1/2 106/1/2
f 105/2/2 103/2/2 106/2/2
f 104/1/2 101/1/2 107/1/2
f 106/1/2 104/1/2 107/1/2
f 111/1/3 109/1/3 108/1/3
f 111/2/3 110/2/3 109/2/3
f 112/2/3 110/2/3 111/2/3
f 113/1/3 111/1/3 108/1/3
f 113/1/3 112/1/3 111/1/3
f 114/1/3 112/1/3 113/1/3
f 115/2/3 114/2/3 113/2/3
f 116/1/3 112/1/3 114/1/3
f 116/2/3 114/2/3 115/2/3
f 117/1/3 112/1/3 116/1/3
f 121/1/3 119/1/3 118/1/3
f 121/2/3 120/2/3 119/2/3
f 122/2/3 120/2/3 121/2/3
f 123/1/3 121/1/3 118/1/3
f 123/1/3 122/1/3 121/1/3
f 124/1/3 122/1/3 123/1/3
f 125/1/3 122/1/3 124/1/3
f 130/1/3 127/1/3 126/1/3
f 131/1/3 127/1/3 130/1/3
f 132/1/3 129/1/3 128/1/3
f 132/1/3 130/1/3 129/1/3
f 133/1/3 130/1/3 132/1/3
f 137/2/3 135/2/3 134/2/3
f 138/1/3 136/1/3 135/1/3
f 138/2/3 135/2/3 137/2/3
f 139/1/3 138/1/3 137/1/3
f 140/1/3 136/1/3 138/1/3
f 140/1/3 138/1/3 139/1/3
f 141/1/3 136/1/3 140/1/3
f 144/1/3 143/1/3 142/1/3
f 145/1/3 143/1/3 144/1/3
f 150/1/3 147/1/3 146/1/3
f 151/1/3 147/1/3 150/1/3
f 152/1/3 149/1/3 148/1/3
f 153/2/3 150/2/3 149/2/3
f 153/1/3 149/1/3 152/1/3
f 154/2/3 150/2/3 153/2/3
f 158/1/3 156/1/3 155/1/3
f 159/2/3 157/2/3 156/2/3
f 159/1/3 156/1/3 158/1/3
f 160/2/3 157/2/3 159/2/3
f 163/1/3 162/1/3 161/1/3
f 164/1/3 162/1/3 163/1/3
f 165/2/3 164/2/3 163/2/3
f 166/2/3 164/2/3 165/2/3
f 167/1/3 166/1/3 165/1/3
f 168/1/3 166/1/3 167/1/3
f 170/1/3 169/1/3 168/1/3
f 171/1/3 169/1/3 170/1/3
f 172/2/3 171/2/3 170/2/3
f 173/2/3 171/2/3 172/2/3
f 174/1/3 173/1/3 172/1/3
f 175/1/3 173/1/3 174/1/3
f 176/1/4 177/1/4 178/1/4
f 178/1/4 177/1/4 179/1/4
f 179/1/4 177/1/4 180/1/4
f 181/1/4 182/1/4 183/1/4
f 183/1/4 182/1/4 184/1/4
f 185/1/4 186/1/4 187/1/4
f 187/1/4 186/1/4 188/1/4
f 188/1/4 186/1/4 190/1/4
f 190/1/4 186/1/4 191/1/4
f 189/2/4 190/2/4 192/2/4
f 192/2/4 190/2/4 193/2/4
f 194/1/4 195/1/4 197/1/4
f 195/2/4 196/2/4 198/2/4
f 197/1/4 195/1/4 198/1/4
f 198/2/4 196/2/4 199/2/4
f 197/2/4 198/2/4 200/2/4
f 198/1/4 199/1/4 201/1/4
f 200/2/4 198/2/4 201/2/4
f 200/1/4 201/1/4 202/1/4
f 201/1/4 199/1/4 203/1/4
f 202/1/4 201/1/4 203/1/4
f 203/2/4 204/2/4 205/2/4
f 205/2/4 204/2/4 206/2/4
f 205/1/4 206/1/4 207/1/4
f 207/1/4 206/1/4 208/1/4
f 209/1/4 210/1/4 211/1/4
f 211/1/4 210/1/4 212/1/4
f 213/1/4 214/1/4 215/1/4
f 215/1/4 214/1/4 216/1/4
f 215/2/4 216/2/4 217/2/4
f 216/1/4 214/1/4 218/1/4
f 217/2/4 216/2/4 218/2/4
f 217/1/4 218/1/4 219/1/4
f 218/1/4 214/1/4 220/1/4
f 219/1/4 218/1/4 220/1/4
f 220/1/4 221/1/4 222/1/4
f 222/1/4 221/1/4 223/1/4
f 223/1/4 221/1/4 225/1/4
f 225/1/4 221/1/4 226/1/4
f 224/1/4 225/1/4 227/1/4
f 227/1/4 225/1/4 228/1/4
f 229/1/4 230/1/4 231/1/4
f 231/1/4 230/1/4 232/1/4
f 229/1/4 231/1/4 233/1/4
f 231/2/4 232/2/4 233/2/4
f 233/2/4 232/2/4 234/2/4
f 229/1/4 233/1/4 235/1/4
f 233/1/4 234/1/4 235/1/4
f 235/1/4 234/1/4 236/1/4
f 241/1/5 238/1/5 237/1/5
f 242/1/5 238/1/5 241/1/5
f 243/2/5 239/2/5 238/2/5
f 243/1/5 238/1/5 242/1/5
f 244/2/5 239/2/5 243/2/5
f 248/1/5 242/1/5 241/1/5
f 248/1/5 241/1/5 240/1/5
f 249/2/5 243/2/5 242/2/5
f 249/1/5 242/1/5 248/1/5
f 250/1/5 245/1/5 244/1/5
f 250/2/5 243/2/5 249/2/5
f 250/1/5 244/1/5 243/1/5
f 251/1/5 245/1/5 250/1/5
f 254/2/5 247/2/5 246/2/5
f 255/1/5 252/1/5 251/1/5
f 255/1/5 249/1/5 248/1/5
f 255/2/5 247/2/5 254/2/5
f 255/1/5 248/1/5 247/1/5
f 255/1/5 251/1/5 250/1/5
f 255/1/5 250/1/5 249/1/5
f 256/1/5 252/1/5 255/1/5
f 257/1/5 252/1/5 256/1/5
f 258/1/5 252/1/5 257/1/5
f 259/1/5 252/1/5 258/1/5
f 260/1/5 252/1/5 259/1/5
f 261/1/5 252/1/5 260/1/5
f 262/1/5 252/1/5 261/1/5
f 263/1/5 252/1/5 262/1/5
f 264/1/5 254/1/5 253/1/5
f 264/1/5 255/1/5 254/1/5
f 264/1/5 256/1/5 255/1/5
f 264/2/5 257/2/5 256/2/5
f 265/1/5 258/1/5 257/1/5
f 265/2/5 257/2/5 264/2/5
f 266/2/5 259/2/5 258/2/5
f 266/1/5 258/1/5 265/1/5
f 267/1/5 260/1/5 259/1/5
f 267/2/5 259/2/5 266/2/5
f 268/2/5 261/2/5 260/2/5
f 268/1/5 260/1/5 267/1/5
f 269/1/5 262/1/5 261/1/5
f 269/2/5 261/2/5 268/2/5
f 270/2/5 263/2/5 262/2/5
f 270/1/5 262/1/5 269/1/5
f 271/2/5 263/2/5 270/2/5
f 272/1/5 269/1/5 268/1/5
f 272/1/5 268/1/5 267/1/5
f 272/1/5 271/1/5 270/1/5
f 272/1/5 270/1/5 269/1/5
f 272/1/5 266/1/5 265/1/5
f 272/1/5 265/1/5 264/1/5
f 272/1/5 264/1/5 253/1/5
f 272/1/5 267/1/5 266/1/5
f 273/1/5 271/1/5 272/1/5
f 274/1/5 271/1/5 273/1/5
f 275/1/5 271/1/5 274/1/5
f 276/1/5 271/1/5 275/1/5
f 277/1/5 271/1/5 276/1/5
f 278/1/5 271/1/5 277/1/5
f 279/1/5 271/1/5 278/1/5
f 280/1/5 274/1/5 273/1/5
f 281/2/5 275/2/5 274/2/5
f 281/1/5 274/1/5 280/1/5
f 282/1/5 276/1/5 275/1/5
f 282/2/5 275/2/5 281/2/5
f 283/1/5 276/1/5 282/1/5
f 284/1/5 271/1/5 279/1/5
f 285/1/5 271/1/5 284/1/5
f 286/1/5 276/1/5 283/1/5
f 287/2/5 277/2/5 276/2/5
f 287/1/5 276/1/5 286/1/5
f 288/1/5 278/1/5 277/1/5
f 288/2/5 277/2/5 287/2/5
f 289/1/5 278/1/5 288/1/5
f 290/2/5 279/2/5 278/2/5
f 290/1/5 278/1/5 289/1/5
f 291/1/5 284/1/5 279/1/5
f 291/2/5 279/2/5 290/2/5
f 292/1/5 284/1/5 291/1/5
f 293/1/5 284/1/5 292/1/5
f 294/1/5 290/1/5 289/1/5
f 294/1/5 292/1/5 291/1/5
f 294/1/5 291/1/5 290/1/5
f 295/1/5 292/1/5 294/1/5
f 296/2/6 297/2/6 301/2/6
f 297/1/6 298/1/6 302/1/6
f 301/2/6 297/2/6 302/2/6
f 302/1/6 298/1/6 303/1/6
f 299/2/6 300/2/6 306/2/6
f 300/1/6 301/1/6 307/1/6
f 301/1/6 302/1/6 307/1/6
f 306/2/6 300/2/6 307/2/6
f 307/1/6 302/1/6 308/1/6
f 303/1/6 304/1/6 309/1/6
f 309/1/6 304/1/6 310/1/6
f 305/1/6 306/1/6 313/1/6
f 306/1/6 307/1/6 313/1/6
f 313/1/6 307/1/6 314/1/6
f 314/1/6 307/1/6 315/1/6
f 315/1/6 307/1/6 316/1/6
f 316/1/6 307/1/6 317/1/6
f 310/2/6 311/2/6 318/2/6
f 318/2/6 311/2/6 319/2/6
f 312/2/6 313/2/6 320/2/6
f 313/2/6 314/2/6 320/2/6
f 320/2/6 314/2/6 321/2/6
f 318/1/6 319/1/6 322/1/6
f 320/1/6 321/1/6 323/1/6
f 323/1/6 321/1/6 324/1/6
f 324/1/6 321/1/6 325/1/6
f 322/1/6 319/1/6 328/1/6
f 324/2/6 325/2/6 329/2/6
f 325/1/6 326/1/6 330/1/6
f 329/2/6 325/2/6 330/2/6
f 330/1/6 326/1/6 331/1/6
f 327/2/6 328/2/6 334/2/6
f 328/1/6 319/1/6 335/1/6
f 334/2/6 328/2/6 335/2/6
f 335/1/6 319/1/6 336/1/6
f 332/1/6 333/1/6 337/1/6
f 331/1/6 332/1/6 337/1/6
f 337/1/6 333/1/6 338/1/6
f 334/1/6 335/1/6 341/1/6
f 341/1/6 335/1/6 342/1/6
f 338/1/6 339/1/6 343/1/6
f 339/2/6 340/2/6 344/2/6
f 343/1/6 339/1/6 344/1/6
f 340/1/6 341/1/6 345/1/6
f 344/2/6 340/2/6 345/2/6
f 345/1/6 341/1/6 346/1/6
f 347/1/6 348/1/6 350/1/6
f 350/1/6 348/1/6 351/1/6
f 349/1/6 350/1/6 356/1/6
f 350/1/6 351/1/6 356/1/6
f 351/1/6 352/1/6 356/1/6
f 356/1/6 352/1/6 357/1/6
f 357/1/6 352/1/6 358/1/6
f 358/1/6 352/1/6 359/1/6
f 354/2/6 355/2/6 360/2/6
f 353/1/6 354/1/6 360/1/6
f 355/1/6 356/1/6 361/1/6
f 360/2/6 355/2/6 361/2/6
f 359/1/6 352/1/6 362/1/6
f 362/1/6 352/1/6 363/1/6
f 353/1/6 360/1/6 364/1/6
f 360/1/6 361/1/6 364/1/6
f 361/1/6 356/1/6 365/1/6
f 364/1/6 361/1/6 365/1/6
f 365/1/6 356/1/6 366/1/6
f 362/2/6 363/2/6 369/2/6
f 369/2/6 363/2/6 370/2/6
f 365/2/6 366/2/6 371/2/6
f 366/1/6 367/1/6 372/1/6
f 371/2/6 366/2/6 372/2/6
f 367/2/6 368/2/6 373/2/6
f 372/1/6 367/1/6 373/1/6
f 368/1/6 369/1/6 374/1/6
f 373/2/6 368/2/6 374/2/6
f 373/1/6 374/1/6 375/1/6
f 374/1/6 369/1/6 376/1/6
f 375/1/6 374/1/6 376/1/6
f 377/1/6 378/1/6 381/1/6
f 378/2/6 379/2/6 381/2/6
f 379/1/6 380/1/6 382/1/6
f 381/2/6 379/2/6 382/2/6
f 377/1/6 381/1/6 383/1/6
f 381/1/6 382/1/6 383/1/6
f 382/1/6 380/1/6 384/1/6
f 383/1/6 382/1/6 384/1/6
