# MagicaVoxel @ Ephtracy

# group
o 

# material
mtllib seta_cocinada.mtl
usemtl palette

# normals
vn -1 0 0
vn 1 0 0
vn 0 0 1
vn 0 0 -1
vn 0 -1 0
vn 0 1 0

# texcoords
vt 0.0605469 0.5
vt 0.533203 0.5
vt 0.537109 0.5

# verts
v -0.6 0.4 0.4
v -0.6 0.4 0.3
v -0.6 0.9 0.4
v -0.6 0.9 0.3
v -0.5 0.3 0.3
v -0.5 0.3 0.2
v -0.5 0.4 0.3
v -0.5 0.6 0.5
v -0.5 0.6 0.4
v -0.5 0.7 0.5
v -0.5 0.7 0.4
v -0.5 0.9 0.3
v -0.5 1 0.3
v -0.5 1 0.2
v -0.3 0.3 0.3
v -0.3 0.3 0.2
v -0.3 0.4 0.2
v -0.3 0.4 0.1
v -0.3 0.5 0.4
v -0.3 0.5 0.3
v -0.3 0.8 0.4
v -0.3 0.8 0.3
v -0.3 0.9 0.2
v -0.3 0.9 0.1
v -0.3 1 0.3
v -0.3 1 0.2
v -0.0999999 0.3 0.3
v -0.0999999 0.3 0.2
v -0.0999999 0.4 0.2
v -0.0999999 0.4 0.1
v -0.0999999 0.5 0.4
v -0.0999999 0.5 0.3
v -0.0999999 0.5 0.1
v -0.0999999 0.5 -5.96046e-008
v -0.0999999 0.6 0.8
v -0.0999999 0.6 0.5
v -0.0999999 0.6 0.4
v -0.0999999 0.7 0.8
v -0.0999999 0.7 0.5
v -0.0999999 0.7 0.4
v -0.0999999 0.8 0.4
v -0.0999999 0.8 0.3
v -0.0999999 0.8 0.1
v -0.0999999 0.8 -5.96046e-008
v -0.0999999 0.9 0.2
v -0.0999999 0.9 0.1
v -0.0999999 1 0.3
v -0.0999999 1 0.2
v 5.96046e-008 0.5 0.8
v 5.96046e-008 0.5 0.5
v 5.96046e-008 0.5 0.4
v 5.96046e-008 0.6 0.8
v 5.96046e-008 0.6 0.5
v 5.96046e-008 0.6 0.4
v 5.96046e-008 0.7 0.8
v 5.96046e-008 0.7 0.5
v 5.96046e-008 0.7 0.4
v 5.96046e-008 0.8 0.8
v 5.96046e-008 0.8 0.5
v 5.96046e-008 0.8 0.4
v 0.2 0.3 0.3
v 0.2 0.3 0.2
v 0.2 0.4 0.2
v 0.2 0.4 0.1
v 0.2 0.5 0.4
v 0.2 0.5 0.3
v 0.2 0.5 0.1
v 0.2 0.5 -5.96046e-008
v 0.2 0.6 0.8
v 0.2 0.6 0.5
v 0.2 0.6 0.4
v 0.2 0.7 0.8
v 0.2 0.7 0.5
v 0.2 0.7 0.4
v 0.2 0.8 0.4
v 0.2 0.8 0.3
v 0.2 0.8 0.1
v 0.2 0.8 -5.96046e-008
v 0.2 0.9 0.2
v 0.2 0.9 0.1
v 0.2 1 0.3
v 0.2 1 0.2
v 0.5 0.3 0.3
v 0.5 0.3 0.2
v 0.5 0.5 0.4
v 0.5 0.5 0.3
v 0.5 0.6 0.5
v 0.5 0.6 0.4
v 0.5 0.7 0.5
v 0.5 0.7 0.4
v 0.5 0.8 0.4
v 0.5 0.8 0.3
v 0.5 1 0.3
v 0.5 1 0.2
v 0.6 0.4 0.4
v 0.6 0.4 0.3
v 0.6 0.5 0.4
v 0.6 0.5 0.3
v 0.6 0.8 0.4
v 0.6 0.8 0.3
v 0.6 0.9 0.4
v 0.6 0.9 0.3
v -0.5 0.4 0.4
v -0.5 0.4 0.3
v -0.5 0.5 0.4
v -0.5 0.5 0.3
v -0.5 0.8 0.4
v -0.5 0.8 0.3
v -0.5 0.9 0.4
v -0.5 0.9 0.3
v -0.4 0.3 0.3
v -0.4 0.3 0.2
v -0.4 0.5 0.4
v -0.4 0.5 0.3
v -0.4 0.6 0.5
v -0.4 0.6 0.4
v -0.4 0.7 0.5
v -0.4 0.7 0.4
v -0.4 0.8 0.4
v -0.4 0.8 0.3
v -0.4 1 0.3
v -0.4 1 0.2
v -0.2 0.3 0.3
v -0.2 0.3 0.2
v -0.2 0.4 0.2
v -0.2 0.4 0.1
v -0.2 0.5 0.4
v -0.2 0.5 0.3
v -0.2 0.8 0.4
v -0.2 0.8 0.3
v -0.2 0.9 0.2
v -0.2 0.9 0.1
v -0.2 1 0.3
v -0.2 1 0.2
v 0.1 0.3 0.3
v 0.1 0.3 0.2
v 0.1 0.4 0.2
v 0.1 0.4 0.1
v 0.1 0.5 0.8
v 0.1 0.5 0.5
v 0.1 0.5 0.3
v 0.1 0.5 0.1
v 0.1 0.5 -5.96046e-008
v 0.1 0.8 0.8
v 0.1 0.8 0.5
v 0.1 0.8 0.3
v 0.1 0.8 0.1
v 0.1 0.8 -5.96046e-008
v 0.1 0.9 0.2
v 0.1 0.9 0.1
v 0.1 1 0.3
v 0.1 1 0.2
v 0.3 0.5 0.1
v 0.3 0.5 -5.96046e-008
v 0.3 0.6 0.8
v 0.3 0.6 0.5
v 0.3 0.6 0.4
v 0.3 0.7 0.8
v 0.3 0.7 0.5
v 0.3 0.7 0.4
v 0.3 0.8 0.1
v 0.3 0.8 -5.96046e-008
v 0.4 0.3 0.3
v 0.4 0.3 0.2
v 0.4 0.4 0.2
v 0.4 0.4 0.1
v 0.4 0.5 0.4
v 0.4 0.5 0.3
v 0.4 0.8 0.4
v 0.4 0.8 0.3
v 0.4 0.9 0.2
v 0.4 0.9 0.1
v 0.4 1 0.3
v 0.4 1 0.2
v 0.6 0.3 0.3
v 0.6 0.3 0.2
v 0.6 0.4 0.3
v 0.6 0.6 0.5
v 0.6 0.6 0.4
v 0.6 0.7 0.5
v 0.6 0.7 0.4
v 0.6 0.9 0.3
v 0.6 1 0.3
v 0.6 1 0.2
v 0.7 0.4 0.4
v 0.7 0.4 0.3
v 0.7 0.9 0.4
v 0.7 0.9 0.3
v -0.0999999 0.6 0.8
v -0.0999999 0.7 0.8
v 5.96046e-008 0.5 0.8
v 5.96046e-008 0.6 0.8
v 5.96046e-008 0.7 0.8
v 5.96046e-008 0.8 0.8
v 0.1 0.5 0.8
v 0.1 0.8 0.8
v 0.2 0.6 0.8
v 0.2 0.7 0.8
v 0.3 0.6 0.8
v 0.3 0.7 0.8
v -0.5 0.6 0.5
v -0.5 0.7 0.5
v -0.4 0.6 0.5
v -0.4 0.7 0.5
v 0.5 0.6 0.5
v 0.5 0.7 0.5
v 0.6 0.6 0.5
v 0.6 0.7 0.5
v -0.6 0.4 0.4
v -0.6 0.9 0.4
v -0.5 0.4 0.4
v -0.5 0.5 0.4
v -0.5 0.6 0.4
v -0.5 0.7 0.4
v -0.5 0.8 0.4
v -0.5 0.9 0.4
v -0.4 0.5 0.4
v -0.4 0.6 0.4
v -0.4 0.7 0.4
v -0.4 0.8 0.4
v -0.3 0.5 0.4
v -0.3 0.8 0.4
v -0.2 0.5 0.4
v -0.2 0.8 0.4
v -0.0999999 0.5 0.4
v -0.0999999 0.6 0.4
v -0.0999999 0.7 0.4
v -0.0999999 0.8 0.4
v 5.96046e-008 0.5 0.4
v 5.96046e-008 0.6 0.4
v 5.96046e-008 0.7 0.4
v 5.96046e-008 0.8 0.4
v 0.2 0.5 0.4
v 0.2 0.6 0.4
v 0.2 0.7 0.4
v 0.2 0.8 0.4
v 0.3 0.6 0.4
v 0.3 0.7 0.4
v 0.4 0.5 0.4
v 0.4 0.8 0.4
v 0.5 0.5 0.4
v 0.5 0.6 0.4
v 0.5 0.7 0.4
v 0.5 0.8 0.4
v 0.6 0.4 0.4
v 0.6 0.5 0.4
v 0.6 0.6 0.4
v 0.6 0.7 0.4
v 0.6 0.8 0.4
v 0.6 0.9 0.4
v 0.7 0.4 0.4
v 0.7 0.9 0.4
v -0.5 0.3 0.3
v -0.5 0.4 0.3
v -0.5 0.5 0.3
v -0.5 0.8 0.3
v -0.5 0.9 0.3
v -0.5 1 0.3
v -0.4 0.3 0.3
v -0.4 0.5 0.3
v -0.4 0.8 0.3
v -0.4 1 0.3
v -0.3 0.3 0.3
v -0.3 0.5 0.3
v -0.3 0.8 0.3
v -0.3 1 0.3
v -0.2 0.3 0.3
v -0.2 0.5 0.3
v -0.2 0.8 0.3
v -0.2 1 0.3
v -0.0999999 0.3 0.3
v -0.0999999 0.5 0.3
v -0.0999999 0.8 0.3
v -0.0999999 1 0.3
v 0.1 0.3 0.3
v 0.1 0.5 0.3
v 0.1 0.8 0.3
v 0.1 1 0.3
v 0.2 0.3 0.3
v 0.2 0.5 0.3
v 0.2 0.8 0.3
v 0.2 1 0.3
v 0.4 0.3 0.3
v 0.4 0.5 0.3
v 0.4 0.8 0.3
v 0.4 1 0.3
v 0.5 0.3 0.3
v 0.5 0.5 0.3
v 0.5 0.8 0.3
v 0.5 1 0.3
v 0.6 0.3 0.3
v 0.6 0.4 0.3
v 0.6 0.5 0.3
v 0.6 0.8 0.3
v 0.6 0.9 0.3
v 0.6 1 0.3
v -0.6 0.4 0.3
v -0.6 0.9 0.3
v -0.5 0.4 0.3
v -0.5 0.9 0.3
v 0.6 0.4 0.3
v 0.6 0.9 0.3
v 0.7 0.4 0.3
v 0.7 0.9 0.3
v -0.5 0.3 0.2
v -0.5 1 0.2
v -0.4 0.3 0.2
v -0.4 1 0.2
v -0.3 0.3 0.2
v -0.3 0.4 0.2
v -0.3 0.9 0.2
v -0.3 1 0.2
v -0.2 0.3 0.2
v -0.2 0.4 0.2
v -0.2 0.9 0.2
v -0.2 1 0.2
v -0.0999999 0.3 0.2
v -0.0999999 0.4 0.2
v -0.0999999 0.9 0.2
v -0.0999999 1 0.2
v 0.1 0.3 0.2
v 0.1 0.4 0.2
v 0.1 0.9 0.2
v 0.1 1 0.2
v 0.2 0.3 0.2
v 0.2 0.4 0.2
v 0.2 0.9 0.2
v 0.2 1 0.2
v 0.4 0.3 0.2
v 0.4 0.4 0.2
v 0.4 0.9 0.2
v 0.4 1 0.2
v 0.5 0.3 0.2
v 0.5 1 0.2
v 0.6 0.3 0.2
v 0.6 1 0.2
v -0.3 0.4 0.1
v -0.3 0.9 0.1
v -0.2 0.4 0.1
v -0.2 0.9 0.1
v -0.0999999 0.4 0.1
v -0.0999999 0.5 0.1
v -0.0999999 0.8 0.1
v -0.0999999 0.9 0.1
v 0.1 0.4 0.1
v 0.1 0.5 0.1
v 0.1 0.8 0.1
v 0.1 0.9 0.1
v 0.2 0.4 0.1
v 0.2 0.5 0.1
v 0.2 0.8 0.1
v 0.2 0.9 0.1
v 0.3 0.5 0.1
v 0.3 0.8 0.1
v 0.4 0.4 0.1
v 0.4 0.9 0.1
v -0.0999999 0.5 -5.96046e-008
v -0.0999999 0.8 -5.96046e-008
v 0.1 0.5 -5.96046e-008
v 0.1 0.8 -5.96046e-008
v 0.2 0.5 -5.96046e-008
v 0.2 0.8 -5.96046e-008
v 0.3 0.5 -5.96046e-008
v 0.3 0.8 -5.96046e-008
v -0.5 0.3 0.3
v -0.4 0.3 0.3
v -0.3 0.3 0.3
v -0.2 0.3 0.3
v -0.0999999 0.3 0.3
v 0.1 0.3 0.3
v 0.2 0.3 0.3
v 0.4 0.3 0.3
v 0.5 0.3 0.3
v 0.6 0.3 0.3
v -0.5 0.3 0.2
v -0.4 0.3 0.2
v -0.3 0.3 0.2
v -0.2 0.3 0.2
v -0.0999999 0.3 0.2
v 0.1 0.3 0.2
v 0.2 0.3 0.2
v 0.4 0.3 0.2
v 0.5 0.3 0.2
v 0.6 0.3 0.2
v -0.6 0.4 0.4
v -0.5 0.4 0.4
v 0.6 0.4 0.4
v 0.7 0.4 0.4
v -0.6 0.4 0.3
v -0.5 0.4 0.3
v 0.6 0.4 0.3
v 0.7 0.4 0.3
v -0.3 0.4 0.2
v -0.2 0.4 0.2
v -0.0999999 0.4 0.2
v 0.1 0.4 0.2
v 0.2 0.4 0.2
v 0.4 0.4 0.2
v -0.3 0.4 0.1
v -0.2 0.4 0.1
v -0.0999999 0.4 0.1
v 0.1 0.4 0.1
v 0.2 0.4 0.1
v 0.4 0.4 0.1
v 5.96046e-008 0.5 0.8
v 0.1 0.5 0.8
v 5.96046e-008 0.5 0.5
v 0.1 0.5 0.5
v -0.5 0.5 0.4
v -0.4 0.5 0.4
v -0.3 0.5 0.4
v -0.2 0.5 0.4
v -0.0999999 0.5 0.4
v 5.96046e-008 0.5 0.4
v 0.2 0.5 0.4
v 0.4 0.5 0.4
v 0.5 0.5 0.4
v 0.6 0.5 0.4
v -0.5 0.5 0.3
v -0.4 0.5 0.3
v -0.3 0.5 0.3
v -0.2 0.5 0.3
v -0.0999999 0.5 0.3
v 0.1 0.5 0.3
v 0.2 0.5 0.3
v 0.4 0.5 0.3
v 0.5 0.5 0.3
v 0.6 0.5 0.3
v -0.0999999 0.5 0.1
v 0.1 0.5 0.1
v 0.2 0.5 0.1
v 0.3 0.5 0.1
v -0.0999999 0.5 -5.96046e-008
v 0.1 0.5 -5.96046e-008
v 0.2 0.5 -5.96046e-008
v 0.3 0.5 -5.96046e-008
v -0.0999999 0.6 0.8
v 5.96046e-008 0.6 0.8
v 0.2 0.6 0.8
v 0.3 0.6 0.8
v -0.5 0.6 0.5
v -0.4 0.6 0.5
v -0.0999999 0.6 0.5
v 5.96046e-008 0.6 0.5
v 0.2 0.6 0.5
v 0.3 0.6 0.5
v 0.5 0.6 0.5
v 0.6 0.6 0.5
v -0.5 0.6 0.4
v -0.4 0.6 0.4
v -0.0999999 0.6 0.4
v 5.96046e-008 0.6 0.4
v 0.2 0.6 0.4
v 0.3 0.6 0.4
v 0.5 0.6 0.4
v 0.6 0.6 0.4
v -0.0999999 0.7 0.8
v 5.96046e-008 0.7 0.8
v 0.2 0.7 0.8
v 0.3 0.7 0.8
v -0.5 0.7 0.5
v -0.4 0.7 0.5
v -0.0999999 0.7 0.5
v 5.96046e-008 0.7 0.5
v 0.2 0.7 0.5
v 0.3 0.7 0.5
v 0.5 0.7 0.5
v 0.6 0.7 0.5
v -0.5 0.7 0.4
v -0.4 0.7 0.4
v -0.0999999 0.7 0.4
v 5.96046e-008 0.7 0.4
v 0.2 0.7 0.4
v 0.3 0.7 0.4
v 0.5 0.7 0.4
v 0.6 0.7 0.4
v 5.96046e-008 0.8 0.8
v 0.1 0.8 0.8
v 5.96046e-008 0.8 0.5
v 0.1 0.8 0.5
v -0.5 0.8 0.4
v -0.4 0.8 0.4
v -0.3 0.8 0.4
v -0.2 0.8 0.4
v -0.0999999 0.8 0.4
v 5.96046e-008 0.8 0.4
v 0.2 0.8 0.4
v 0.4 0.8 0.4
v 0.5 0.8 0.4
v 0.6 0.8 0.4
v -0.5 0.8 0.3
v -0.4 0.8 0.3
v -0.3 0.8 0.3
v -0.2 0.8 0.3
v -0.0999999 0.8 0.3
v 0.1 0.8 0.3
v 0.2 0.8 0.3
v 0.4 0.8 0.3
v 0.5 0.8 0.3
v 0.6 0.8 0.3
v -0.0999999 0.8 0.1
v 0.1 0.8 0.1
v 0.2 0.8 0.1
v 0.3 0.8 0.1
v -0.0999999 0.8 -5.96046e-008
v 0.1 0.8 -5.96046e-008
v 0.2 0.8 -5.96046e-008
v 0.3 0.8 -5.96046e-008
v -0.6 0.9 0.4
v -0.5 0.9 0.4
v 0.6 0.9 0.4
v 0.7 0.9 0.4
v -0.6 0.9 0.3
v -0.5 0.9 0.3
v 0.6 0.9 0.3
v 0.7 0.9 0.3
v -0.3 0.9 0.2
v -0.2 0.9 0.2
v -0.0999999 0.9 0.2
v 0.1 0.9 0.2
v 0.2 0.9 0.2
v 0.4 0.9 0.2
v -0.3 0.9 0.1
v -0.2 0.9 0.1
v -0.0999999 0.9 0.1
v 0.1 0.9 0.1
v 0.2 0.9 0.1
v 0.4 0.9 0.1
v -0.5 1 0.3
v -0.4 1 0.3
v -0.3 1 0.3
v -0.2 1 0.3
v -0.0999999 1 0.3
v 0.1 1 0.3
v 0.2 1 0.3
v 0.4 1 0.3
v 0.5 1 0.3
v 0.6 1 0.3
v -0.5 1 0.2
v -0.4 1 0.2
v -0.3 1 0.2
v -0.2 1 0.2
v -0.0999999 1 0.2
v 0.1 1 0.2
v 0.2 1 0.2
v 0.4 1 0.2
v 0.5 1 0.2
v 0.6 1 0.2

# faces
f 3/3/1 2/3/1 1/3/1
f 4/3/1 2/3/1 3/3/1
f 7/3/1 6/3/1 5/3/1
f 10/2/1 9/2/1 8/2/1
f 11/2/1 9/2/1 10/2/1
f 12/3/1 6/3/1 7/3/1
f 13/3/1 6/3/1 12/3/1
f 14/3/1 6/3/1 13/3/1
f 17/3/1 16/3/1 15/3/1
f 20/3/1 17/3/1 15/3/1
f 20/3/1 18/3/1 17/3/1
f 21/2/1 20/2/1 19/2/1
f 22/3/1 18/3/1 20/3/1
f 22/2/1 20/2/1 21/2/1
f 23/3/1 18/3/1 22/3/1
f 24/3/1 18/3/1 23/3/1
f 25/3/1 23/3/1 22/3/1
f 26/3/1 23/3/1 25/3/1
f 29/3/1 28/3/1 27/3/1
f 32/3/1 29/3/1 27/3/1
f 32/3/1 30/3/1 29/3/1
f 33/3/1 30/3/1 32/3/1
f 37/2/1 32/2/1 31/2/1
f 38/1/1 36/1/1 35/1/1
f 39/2/1 37/2/1 36/2/1
f 39/1/1 36/1/1 38/1/1
f 40/2/1 32/2/1 37/2/1
f 40/2/1 37/2/1 39/2/1
f 41/2/1 32/2/1 40/2/1
f 42/3/1 33/3/1 32/3/1
f 42/2/1 32/2/1 41/2/1
f 42/3/1 34/3/1 33/3/1
f 43/3/1 34/3/1 42/3/1
f 44/3/1 34/3/1 43/3/1
f 45/3/1 43/3/1 42/3/1
f 46/3/1 43/3/1 45/3/1
f 47/3/1 45/3/1 42/3/1
f 48/3/1 45/3/1 47/3/1
f 52/1/1 50/1/1 49/1/1
f 53/2/1 51/2/1 50/2/1
f 53/1/1 50/1/1 52/1/1
f 54/2/1 51/2/1 53/2/1
f 58/1/1 56/1/1 55/1/1
f 59/2/1 57/2/1 56/2/1
f 59/1/1 56/1/1 58/1/1
f 60/2/1 57/2/1 59/2/1
f 63/3/1 62/3/1 61/3/1
f 66/3/1 63/3/1 61/3/1
f 66/3/1 64/3/1 63/3/1
f 67/3/1 64/3/1 66/3/1
f 71/2/1 66/2/1 65/2/1
f 72/1/1 70/1/1 69/1/1
f 73/2/1 71/2/1 70/2/1
f 73/1/1 70/1/1 72/1/1
f 74/2/1 66/2/1 71/2/1
f 74/2/1 71/2/1 73/2/1
f 75/2/1 66/2/1 74/2/1
f 76/3/1 67/3/1 66/3/1
f 76/2/1 66/2/1 75/2/1
f 76/3/1 68/3/1 67/3/1
f 77/3/1 68/3/1 76/3/1
f 78/3/1 68/3/1 77/3/1
f 79/3/1 77/3/1 76/3/1
f 80/3/1 77/3/1 79/3/1
f 81/3/1 79/3/1 76/3/1
f 82/3/1 79/3/1 81/3/1
f 86/3/1 84/3/1 83/3/1
f 88/2/1 86/2/1 85/2/1
f 89/2/1 88/2/1 87/2/1
f 90/2/1 86/2/1 88/2/1
f 90/2/1 88/2/1 89/2/1
f 91/2/1 86/2/1 90/2/1
f 92/3/1 84/3/1 86/3/1
f 92/2/1 86/2/1 91/2/1
f 93/3/1 84/3/1 92/3/1
f 94/3/1 84/3/1 93/3/1
f 97/3/1 96/3/1 95/3/1
f 98/3/1 96/3/1 97/3/1
f 101/3/1 100/3/1 99/3/1
f 102/3/1 100/3/1 101/3/1
f 103/3/2 104/3/2 105/3/2
f 105/3/2 104/3/2 106/3/2
f 107/3/2 108/3/2 109/3/2
f 109/3/2 108/3/2 110/3/2
f 111/3/2 112/3/2 114/3/2
f 113/2/2 114/2/2 116/2/2
f 115/2/2 116/2/2 117/2/2
f 116/2/2 114/2/2 118/2/2
f 117/2/2 116/2/2 118/2/2
f 118/2/2 114/2/2 119/2/2
f 114/3/2 112/3/2 120/3/2
f 119/2/2 114/2/2 120/2/2
f 120/3/2 112/3/2 121/3/2
f 121/3/2 112/3/2 122/3/2
f 123/3/2 124/3/2 125/3/2
f 123/3/2 125/3/2 128/3/2
f 125/3/2 126/3/2 128/3/2
f 127/2/2 128/2/2 129/2/2
f 128/3/2 126/3/2 130/3/2
f 129/2/2 128/2/2 130/2/2
f 130/3/2 126/3/2 131/3/2
f 131/3/2 126/3/2 132/3/2
f 130/3/2 131/3/2 133/3/2
f 133/3/2 131/3/2 134/3/2
f 135/3/2 136/3/2 137/3/2
f 135/3/2 137/3/2 141/3/2
f 137/3/2 138/3/2 141/3/2
f 141/3/2 138/3/2 142/3/2
f 139/1/2 140/1/2 144/1/2
f 140/2/2 141/2/2 145/2/2
f 144/1/2 140/1/2 145/1/2
f 142/3/2 143/3/2 146/3/2
f 145/2/2 141/2/2 146/2/2
f 141/3/2 142/3/2 146/3/2
f 146/3/2 143/3/2 147/3/2
f 147/3/2 143/3/2 148/3/2
f 146/3/2 147/3/2 149/3/2
f 149/3/2 147/3/2 150/3/2
f 146/3/2 149/3/2 151/3/2
f 151/3/2 149/3/2 152/3/2
f 155/1/2 156/1/2 158/1/2
f 156/2/2 157/2/2 159/2/2
f 158/1/2 156/1/2 159/1/2
f 159/2/2 157/2/2 160/2/2
f 153/3/2 154/3/2 161/3/2
f 161/3/2 154/3/2 162/3/2
f 163/3/2 164/3/2 165/3/2
f 163/3/2 165/3/2 168/3/2
f 165/3/2 166/3/2 168/3/2
f 167/2/2 168/2/2 169/2/2
f 168/3/2 166/3/2 170/3/2
f 169/2/2 168/2/2 170/2/2
f 170/3/2 166/3/2 171/3/2
f 171/3/2 166/3/2 172/3/2
f 170/3/2 171/3/2 173/3/2
f 173/3/2 171/3/2 174/3/2
f 175/3/2 176/3/2 177/3/2
f 178/2/2 179/2/2 180/2/2
f 180/2/2 179/2/2 181/2/2
f 177/3/2 176/3/2 182/3/2
f 182/3/2 176/3/2 183/3/2
f 183/3/2 176/3/2 184/3/2
f 185/3/2 186/3/2 187/3/2
f 187/3/2 186/3/2 188/3/2
f 192/1/3 190/1/3 189/1/3
f 193/1/3 190/1/3 192/1/3
f 195/1/3 192/1/3 191/1/3
f 195/1/3 194/1/3 193/1/3
f 195/1/3 193/1/3 192/1/3
f 196/1/3 194/1/3 195/1/3
f 199/1/3 198/1/3 197/1/3
f 200/1/3 198/1/3 199/1/3
f 203/2/3 202/2/3 201/2/3
f 204/2/3 202/2/3 203/2/3
f 207/2/3 206/2/3 205/2/3
f 208/2/3 206/2/3 207/2/3
f 211/3/3 210/3/3 209/3/3
f 212/3/3 210/3/3 211/3/3
f 213/3/3 210/3/3 212/3/3
f 214/3/3 210/3/3 213/3/3
f 215/3/3 210/3/3 214/3/3
f 216/3/3 210/3/3 215/3/3
f 217/2/3 213/2/3 212/2/3
f 218/2/3 213/2/3 217/2/3
f 219/2/3 215/2/3 214/2/3
f 220/2/3 215/2/3 219/2/3
f 223/2/3 222/2/3 221/2/3
f 224/2/3 222/2/3 223/2/3
f 229/2/3 226/2/3 225/2/3
f 230/2/3 226/2/3 229/2/3
f 231/2/3 228/2/3 227/2/3
f 232/2/3 228/2/3 231/2/3
f 237/2/3 234/2/3 233/2/3
f 238/2/3 236/2/3 235/2/3
f 239/2/3 237/2/3 233/2/3
f 239/2/3 238/2/3 237/2/3
f 240/2/3 236/2/3 238/2/3
f 240/2/3 238/2/3 239/2/3
f 246/2/3 242/2/3 241/2/3
f 247/2/3 242/2/3 246/2/3
f 248/2/3 244/2/3 243/2/3
f 249/2/3 244/2/3 248/2/3
f 251/3/3 249/3/3 248/3/3
f 251/3/3 250/3/3 249/3/3
f 251/3/3 248/3/3 247/3/3
f 251/3/3 247/3/3 246/3/3
f 251/3/3 246/3/3 245/3/3
f 252/3/3 250/3/3 251/3/3
f 259/3/3 254/3/3 253/3/3
f 259/3/3 255/3/3 254/3/3
f 260/3/3 255/3/3 259/3/3
f 261/3/3 258/3/3 257/3/3
f 261/3/3 257/3/3 256/3/3
f 262/3/3 258/3/3 261/3/3
f 267/3/3 264/3/3 263/3/3
f 268/3/3 264/3/3 267/3/3
f 269/3/3 266/3/3 265/3/3
f 270/3/3 266/3/3 269/3/3
f 275/3/3 272/3/3 271/3/3
f 276/3/3 272/3/3 275/3/3
f 277/3/3 274/3/3 273/3/3
f 278/3/3 274/3/3 277/3/3
f 283/3/3 280/3/3 279/3/3
f 284/3/3 280/3/3 283/3/3
f 285/3/3 282/3/3 281/3/3
f 286/3/3 282/3/3 285/3/3
f 291/3/3 288/3/3 287/3/3
f 292/3/3 288/3/3 291/3/3
f 293/3/3 288/3/3 292/3/3
f 294/3/3 290/3/3 289/3/3
f 295/3/3 290/3/3 294/3/3
f 296/3/3 290/3/3 295/3/3
f 297/3/4 298/3/4 299/3/4
f 299/3/4 298/3/4 300/3/4
f 301/3/4 302/3/4 303/3/4
f 303/3/4 302/3/4 304/3/4
f 305/3/4 306/3/4 307/3/4
f 307/3/4 306/3/4 308/3/4
f 309/3/4 310/3/4 313/3/4
f 313/3/4 310/3/4 314/3/4
f 311/3/4 312/3/4 315/3/4
f 315/3/4 312/3/4 316/3/4
f 317/3/4 318/3/4 321/3/4
f 321/3/4 318/3/4 322/3/4
f 319/3/4 320/3/4 323/3/4
f 323/3/4 320/3/4 324/3/4
f 325/3/4 326/3/4 329/3/4
f 329/3/4 326/3/4 330/3/4
f 327/3/4 328/3/4 331/3/4
f 331/3/4 328/3/4 332/3/4
f 333/3/4 334/3/4 335/3/4
f 335/3/4 334/3/4 336/3/4
f 337/3/4 338/3/4 339/3/4
f 339/3/4 338/3/4 340/3/4
f 341/3/4 342/3/4 345/3/4
f 345/3/4 342/3/4 346/3/4
f 343/3/4 344/3/4 347/3/4
f 347/3/4 344/3/4 348/3/4
f 349/3/4 350/3/4 353/3/4
f 351/3/4 352/3/4 354/3/4
f 349/3/4 353/3/4 355/3/4
f 353/3/4 354/3/4 355/3/4
f 354/3/4 352/3/4 356/3/4
f 355/3/4 354/3/4 356/3/4
f 357/3/4 358/3/4 359/3/4
f 359/3/4 358/3/4 360/3/4
f 361/3/4 362/3/4 363/3/4
f 363/3/4 362/3/4 364/3/4
f 375/3/5 366/3/5 365/3/5
f 376/3/5 366/3/5 375/3/5
f 377/3/5 368/3/5 367/3/5
f 378/3/5 368/3/5 377/3/5
f 379/3/5 370/3/5 369/3/5
f 380/3/5 370/3/5 379/3/5
f 381/3/5 372/3/5 371/3/5
f 382/3/5 372/3/5 381/3/5
f 383/3/5 374/3/5 373/3/5
f 384/3/5 374/3/5 383/3/5
f 389/3/5 386/3/5 385/3/5
f 390/3/5 386/3/5 389/3/5
f 391/3/5 388/3/5 387/3/5
f 392/3/5 388/3/5 391/3/5
f 399/3/5 394/3/5 393/3/5
f 400/3/5 394/3/5 399/3/5
f 401/3/5 396/3/5 395/3/5
f 402/3/5 396/3/5 401/3/5
f 403/3/5 398/3/5 397/3/5
f 404/3/5 398/3/5 403/3/5
f 407/1/5 406/1/5 405/1/5
f 408/1/5 406/1/5 407/1/5
f 414/2/5 408/2/5 407/2/5
f 419/2/5 410/2/5 409/2/5
f 420/2/5 410/2/5 419/2/5
f 421/2/5 412/2/5 411/2/5
f 422/2/5 412/2/5 421/2/5
f 423/2/5 414/2/5 413/2/5
f 424/2/5 408/2/5 414/2/5
f 424/2/5 414/2/5 423/2/5
f 425/2/5 416/2/5 415/2/5
f 426/2/5 416/2/5 425/2/5
f 427/2/5 418/2/5 417/2/5
f 428/2/5 418/2/5 427/2/5
f 433/3/5 430/3/5 429/3/5
f 434/3/5 430/3/5 433/3/5
f 435/3/5 432/3/5 431/3/5
f 436/3/5 432/3/5 435/3/5
f 443/1/5 438/1/5 437/1/5
f 444/1/5 438/1/5 443/1/5
f 445/1/5 440/1/5 439/1/5
f 446/1/5 440/1/5 445/1/5
f 449/2/5 442/2/5 441/2/5
f 450/2/5 442/2/5 449/2/5
f 451/2/5 444/2/5 443/2/5
f 452/2/5 444/2/5 451/2/5
f 453/2/5 446/2/5 445/2/5
f 454/2/5 446/2/5 453/2/5
f 455/2/5 448/2/5 447/2/5
f 456/2/5 448/2/5 455/2/5
f 457/1/6 458/1/6 463/1/6
f 463/1/6 458/1/6 464/1/6
f 459/1/6 460/1/6 465/1/6
f 465/1/6 460/1/6 466/1/6
f 461/2/6 462/2/6 469/2/6
f 469/2/6 462/2/6 470/2/6
f 463/2/6 464/2/6 471/2/6
f 471/2/6 464/2/6 472/2/6
f 465/2/6 466/2/6 473/2/6
f 473/2/6 466/2/6 474/2/6
f 467/2/6 468/2/6 475/2/6
f 475/2/6 468/2/6 476/2/6
f 477/1/6 478/1/6 479/1/6
f 479/1/6 478/1/6 480/1/6
f 479/2/6 480/2/6 486/2/6
f 481/2/6 482/2/6 491/2/6
f 491/2/6 482/2/6 492/2/6
f 483/2/6 484/2/6 493/2/6
f 493/2/6 484/2/6 494/2/6
f 485/2/6 486/2/6 495/2/6
f 486/2/6 480/2/6 496/2/6
f 495/2/6 486/2/6 496/2/6
f 487/2/6 488/2/6 497/2/6
f 497/2/6 488/2/6 498/2/6
f 489/2/6 490/2/6 499/2/6
f 499/2/6 490/2/6 500/2/6
f 501/3/6 502/3/6 505/3/6
f 505/3/6 502/3/6 506/3/6
f 503/3/6 504/3/6 507/3/6
f 507/3/6 504/3/6 508/3/6
f 509/3/6 510/3/6 513/3/6
f 513/3/6 510/3/6 514/3/6
f 511/3/6 512/3/6 515/3/6
f 515/3/6 512/3/6 516/3/6
f 517/3/6 518/3/6 523/3/6
f 523/3/6 518/3/6 524/3/6
f 519/3/6 520/3/6 525/3/6
f 525/3/6 520/3/6 526/3/6
f 521/3/6 522/3/6 527/3/6
f 527/3/6 522/3/6 528/3/6
f 529/3/6 530/3/6 539/3/6
f 539/3/6 530/3/6 540/3/6
f 531/3/6 532/3/6 541/3/6
f 541/3/6 532/3/6 542/3/6
f 533/3/6 534/3/6 543/3/6
f 543/3/6 534/3/6 544/3/6
f 535/3/6 536/3/6 545/3/6
f 545/3/6 536/3/6 546/3/6
f 537/3/6 538/3/6 547/3/6
f 547/3/6 538/3/6 548/3/6
