# MagicaVoxel @ Ephtracy

# group
o 

# material
mtllib tomate_cortado.mtl
usemtl palette

# normals
vn -1 0 0
vn 1 0 0
vn 0 0 1
vn 0 0 -1
vn 0 -1 0
vn 0 1 0

# texcoords
vt 0.845703 0.5
vt 0.857422 0.5
vt 0.904297 0.5

# verts
v -0.6 0.1 0.7
v -0.6 0.1 0.2
v -0.6 0.5 0.7
v -0.6 0.5 0.2
v -0.5 0 0.7
v -0.5 0 0.2
v -0.5 0.1 0.8
v -0.5 0.1 0.7
v -0.5 0.1 0.2
v -0.5 0.1 0.1
v -0.5 0.5 0.8
v -0.5 0.5 0.7
v -0.5 0.5 0.2
v -0.5 0.5 0.1
v -0.5 0.6 0.7
v -0.5 0.6 0.2
v -0.3 0 0.8
v -0.3 0 0.1
v -0.3 0.1 0.9
v -0.3 0.1 0.8
v -0.3 0.1 0.1
v -0.3 0.1 0
v -0.3 0.5 0.9
v -0.3 0.5 0.7
v -0.3 0.5 0.2
v -0.3 0.5 0
v -0.3 0.6 0.7
v -0.3 0.6 0.2
v -0.0999999 0 0.8
v -0.0999999 0 0.1
v -0.0999999 0.1 0.9
v -0.0999999 0.1 0.8
v -0.0999999 0.1 0.1
v -0.0999999 0.1 0
v -0.0999999 0.5 0.9
v -0.0999999 0.5 0.8
v -0.0999999 0.5 0.5
v -0.0999999 0.5 0.4
v -0.0999999 0.5 0.1
v -0.0999999 0.5 0
v -0.0999999 0.6 0.8
v -0.0999999 0.6 0.5
v -0.0999999 0.6 0.4
v -0.0999999 0.6 0.1
v -0.0999999 0.7 0.5
v -0.0999999 0.7 0.4
v 0.1 0 0.8
v 0.1 0 0.1
v 0.1 0.1 0.9
v 0.1 0.1 0.8
v 0.1 0.1 0.1
v 0.1 0.1 0
v 0.1 0.5 0.9
v 0.1 0.5 0.8
v 0.1 0.5 0.5
v 0.1 0.5 0.4
v 0.1 0.5 0.1
v 0.1 0.5 0
v 0.1 0.6 0.8
v 0.1 0.6 0.5
v 0.1 0.6 0.4
v 0.1 0.6 0.1
v 0.1 0.8 0.5
v 0.1 0.8 0.4
v 0.3 0 0.8
v 0.3 0 0.1
v 0.3 0.1 0.9
v 0.3 0.1 0.8
v 0.3 0.1 0.1
v 0.3 0.1 0
v 0.3 0.5 0.9
v 0.3 0.5 0.7
v 0.3 0.5 0.2
v 0.3 0.5 0
v 0.3 0.6 0.7
v 0.3 0.6 0.2
v 0.5 0 0.7
v 0.5 0 0.2
v 0.5 0.1 0.8
v 0.5 0.1 0.7
v 0.5 0.1 0.2
v 0.5 0.1 0.1
v 0.5 0.5 0.8
v 0.5 0.5 0.7
v 0.5 0.5 0.2
v 0.5 0.5 0.1
v 0.5 0.6 0.7
v 0.5 0.6 0.2
v -0.4 0 0.7
v -0.4 0 0.2
v -0.4 0.1 0.8
v -0.4 0.1 0.7
v -0.4 0.1 0.2
v -0.4 0.1 0.1
v -0.4 0.5 0.8
v -0.4 0.5 0.7
v -0.4 0.5 0.2
v -0.4 0.5 0.1
v -0.4 0.6 0.7
v -0.4 0.6 0.2
v -0.2 0 0.8
v -0.2 0 0.1
v -0.2 0.1 0.9
v -0.2 0.1 0.8
v -0.2 0.1 0.1
v -0.2 0.1 0
v -0.2 0.5 0.9
v -0.2 0.5 0.7
v -0.2 0.5 0.2
v -0.2 0.5 0
v -0.2 0.6 0.7
v -0.2 0.6 0.2
v 5.96046e-008 0 0.8
v 5.96046e-008 0 0.1
v 5.96046e-008 0.1 0.9
v 5.96046e-008 0.1 0.8
v 5.96046e-008 0.1 0.1
v 5.96046e-008 0.1 0
v 5.96046e-008 0.5 0.9
v 5.96046e-008 0.5 0.8
v 5.96046e-008 0.5 0.5
v 5.96046e-008 0.5 0.4
v 5.96046e-008 0.5 0.1
v 5.96046e-008 0.5 0
v 5.96046e-008 0.6 0.8
v 5.96046e-008 0.6 0.5
v 5.96046e-008 0.6 0.4
v 5.96046e-008 0.6 0.1
v 5.96046e-008 0.7 0.5
v 5.96046e-008 0.7 0.4
v 0.2 0 0.8
v 0.2 0 0.1
v 0.2 0.1 0.9
v 0.2 0.1 0.8
v 0.2 0.1 0.1
v 0.2 0.1 0
v 0.2 0.5 0.9
v 0.2 0.5 0.8
v 0.2 0.5 0.5
v 0.2 0.5 0.4
v 0.2 0.5 0.1
v 0.2 0.5 0
v 0.2 0.6 0.8
v 0.2 0.6 0.5
v 0.2 0.6 0.4
v 0.2 0.6 0.1
v 0.2 0.8 0.5
v 0.2 0.8 0.4
v 0.4 0 0.8
v 0.4 0 0.1
v 0.4 0.1 0.9
v 0.4 0.1 0.8
v 0.4 0.1 0.1
v 0.4 0.1 0
v 0.4 0.5 0.9
v 0.4 0.5 0.7
v 0.4 0.5 0.2
v 0.4 0.5 0
v 0.4 0.6 0.7
v 0.4 0.6 0.2
v 0.6 0 0.7
v 0.6 0 0.2
v 0.6 0.1 0.8
v 0.6 0.1 0.7
v 0.6 0.1 0.2
v 0.6 0.1 0.1
v 0.6 0.5 0.8
v 0.6 0.5 0.7
v 0.6 0.5 0.2
v 0.6 0.5 0.1
v 0.6 0.6 0.7
v 0.6 0.6 0.2
v 0.7 0.1 0.7
v 0.7 0.1 0.2
v 0.7 0.5 0.7
v 0.7 0.5 0.2
v -0.3 0.1 0.9
v -0.3 0.5 0.9
v -0.2 0.1 0.9
v -0.2 0.5 0.9
v -0.0999999 0.1 0.9
v -0.0999999 0.5 0.9
v 5.96046e-008 0.1 0.9
v 5.96046e-008 0.5 0.9
v 0.1 0.1 0.9
v 0.1 0.5 0.9
v 0.2 0.1 0.9
v 0.2 0.5 0.9
v 0.3 0.1 0.9
v 0.3 0.5 0.9
v 0.4 0.1 0.9
v 0.4 0.5 0.9
v -0.5 0.1 0.8
v -0.5 0.5 0.8
v -0.4 0.1 0.8
v -0.4 0.5 0.8
v -0.3 0 0.8
v -0.3 0.1 0.8
v -0.2 0 0.8
v -0.2 0.1 0.8
v -0.0999999 0 0.8
v -0.0999999 0.1 0.8
v -0.0999999 0.5 0.8
v -0.0999999 0.6 0.8
v 5.96046e-008 0 0.8
v 5.96046e-008 0.1 0.8
v 5.96046e-008 0.5 0.8
v 5.96046e-008 0.6 0.8
v 0.1 0 0.8
v 0.1 0.1 0.8
v 0.1 0.5 0.8
v 0.1 0.6 0.8
v 0.2 0 0.8
v 0.2 0.1 0.8
v 0.2 0.5 0.8
v 0.2 0.6 0.8
v 0.3 0 0.8
v 0.3 0.1 0.8
v 0.4 0 0.8
v 0.4 0.1 0.8
v 0.5 0.1 0.8
v 0.5 0.5 0.8
v 0.6 0.1 0.8
v 0.6 0.5 0.8
v -0.6 0.1 0.7
v -0.6 0.5 0.7
v -0.5 0 0.7
v -0.5 0.1 0.7
v -0.5 0.5 0.7
v -0.5 0.6 0.7
v -0.4 0 0.7
v -0.4 0.1 0.7
v -0.4 0.5 0.7
v -0.4 0.6 0.7
v -0.3 0.5 0.7
v -0.3 0.6 0.7
v -0.2 0.5 0.7
v -0.2 0.6 0.7
v 0.3 0.5 0.7
v 0.3 0.6 0.7
v 0.4 0.5 0.7
v 0.4 0.6 0.7
v 0.5 0 0.7
v 0.5 0.1 0.7
v 0.5 0.5 0.7
v 0.5 0.6 0.7
v 0.6 0 0.7
v 0.6 0.1 0.7
v 0.6 0.5 0.7
v 0.6 0.6 0.7
v 0.7 0.1 0.7
v 0.7 0.5 0.7
v -0.0999999 0.6 0.5
v -0.0999999 0.7 0.5
v 5.96046e-008 0.6 0.5
v 5.96046e-008 0.7 0.5
v 0.1 0.6 0.5
v 0.1 0.8 0.5
v 0.2 0.6 0.5
v 0.2 0.8 0.5
v -0.0999999 0.6 0.4
v -0.0999999 0.7 0.4
v 5.96046e-008 0.6 0.4
v 5.96046e-008 0.7 0.4
v 0.1 0.6 0.4
v 0.1 0.8 0.4
v 0.2 0.6 0.4
v 0.2 0.8 0.4
v -0.6 0.1 0.2
v -0.6 0.5 0.2
v -0.5 0 0.2
v -0.5 0.1 0.2
v -0.5 0.5 0.2
v -0.5 0.6 0.2
v -0.4 0 0.2
v -0.4 0.1 0.2
v -0.4 0.5 0.2
v -0.4 0.6 0.2
v -0.3 0.5 0.2
v -0.3 0.6 0.2
v -0.2 0.5 0.2
v -0.2 0.6 0.2
v 0.3 0.5 0.2
v 0.3 0.6 0.2
v 0.4 0.5 0.2
v 0.4 0.6 0.2
v 0.5 0 0.2
v 0.5 0.1 0.2
v 0.5 0.5 0.2
v 0.5 0.6 0.2
v 0.6 0 0.2
v 0.6 0.1 0.2
v 0.6 0.5 0.2
v 0.6 0.6 0.2
v 0.7 0.1 0.2
v 0.7 0.5 0.2
v -0.5 0.1 0.1
v -0.5 0.5 0.1
v -0.4 0.1 0.1
v -0.4 0.5 0.1
v -0.3 0 0.1
v -0.3 0.1 0.1
v -0.2 0 0.1
v -0.2 0.1 0.1
v -0.0999999 0 0.1
v -0.0999999 0.1 0.1
v -0.0999999 0.5 0.1
v -0.0999999 0.6 0.1
v 5.96046e-008 0 0.1
v 5.96046e-008 0.1 0.1
v 5.96046e-008 0.5 0.1
v 5.96046e-008 0.6 0.1
v 0.1 0 0.1
v 0.1 0.1 0.1
v 0.1 0.5 0.1
v 0.1 0.6 0.1
v 0.2 0 0.1
v 0.2 0.1 0.1
v 0.2 0.5 0.1
v 0.2 0.6 0.1
v 0.3 0 0.1
v 0.3 0.1 0.1
v 0.4 0 0.1
v 0.4 0.1 0.1
v 0.5 0.1 0.1
v 0.5 0.5 0.1
v 0.6 0.1 0.1
v 0.6 0.5 0.1
v -0.3 0.1 0
v -0.3 0.5 0
v -0.2 0.1 0
v -0.2 0.5 0
v -0.0999999 0.1 0
v -0.0999999 0.5 0
v 5.96046e-008 0.1 0
v 5.96046e-008 0.5 0
v 0.1 0.1 0
v 0.1 0.5 0
v 0.2 0.1 0
v 0.2 0.5 0
v 0.3 0.1 0
v 0.3 0.5 0
v 0.4 0.1 0
v 0.4 0.5 0
v -0.3 0 0.8
v -0.2 0 0.8
v -0.0999999 0 0.8
v 5.96046e-008 0 0.8
v 0.1 0 0.8
v 0.2 0 0.8
v 0.3 0 0.8
v 0.4 0 0.8
v -0.5 0 0.7
v -0.4 0 0.7
v 0.5 0 0.7
v 0.6 0 0.7
v -0.5 0 0.2
v -0.4 0 0.2
v 0.5 0 0.2
v 0.6 0 0.2
v -0.3 0 0.1
v -0.2 0 0.1
v -0.0999999 0 0.1
v 5.96046e-008 0 0.1
v 0.1 0 0.1
v 0.2 0 0.1
v 0.3 0 0.1
v 0.4 0 0.1
v -0.3 0.1 0.9
v -0.2 0.1 0.9
v -0.0999999 0.1 0.9
v 5.96046e-008 0.1 0.9
v 0.1 0.1 0.9
v 0.2 0.1 0.9
v 0.3 0.1 0.9
v 0.4 0.1 0.9
v -0.5 0.1 0.8
v -0.4 0.1 0.8
v -0.3 0.1 0.8
v -0.2 0.1 0.8
v -0.0999999 0.1 0.8
v 5.96046e-008 0.1 0.8
v 0.1 0.1 0.8
v 0.2 0.1 0.8
v 0.3 0.1 0.8
v 0.4 0.1 0.8
v 0.5 0.1 0.8
v 0.6 0.1 0.8
v -0.6 0.1 0.7
v -0.5 0.1 0.7
v -0.4 0.1 0.7
v 0.5 0.1 0.7
v 0.6 0.1 0.7
v 0.7 0.1 0.7
v -0.6 0.1 0.2
v -0.5 0.1 0.2
v -0.4 0.1 0.2
v 0.5 0.1 0.2
v 0.6 0.1 0.2
v 0.7 0.1 0.2
v -0.5 0.1 0.1
v -0.4 0.1 0.1
v -0.3 0.1 0.1
v -0.2 0.1 0.1
v -0.0999999 0.1 0.1
v 5.96046e-008 0.1 0.1
v 0.1 0.1 0.1
v 0.2 0.1 0.1
v 0.3 0.1 0.1
v 0.4 0.1 0.1
v 0.5 0.1 0.1
v 0.6 0.1 0.1
v -0.3 0.1 0
v -0.2 0.1 0
v -0.0999999 0.1 0
v 5.96046e-008 0.1 0
v 0.1 0.1 0
v 0.2 0.1 0
v 0.3 0.1 0
v 0.4 0.1 0
v -0.3 0.5 0.9
v -0.2 0.5 0.9
v -0.0999999 0.5 0.9
v 5.96046e-008 0.5 0.9
v 0.1 0.5 0.9
v 0.2 0.5 0.9
v 0.3 0.5 0.9
v 0.4 0.5 0.9
v -0.5 0.5 0.8
v -0.4 0.5 0.8
v -0.0999999 0.5 0.8
v 5.96046e-008 0.5 0.8
v 0.1 0.5 0.8
v 0.2 0.5 0.8
v 0.5 0.5 0.8
v 0.6 0.5 0.8
v -0.6 0.5 0.7
v -0.5 0.5 0.7
v -0.4 0.5 0.7
v -0.3 0.5 0.7
v -0.2 0.5 0.7
v 0.3 0.5 0.7
v 0.4 0.5 0.7
v 0.5 0.5 0.7
v 0.6 0.5 0.7
v 0.7 0.5 0.7
v -0.6 0.5 0.2
v -0.5 0.5 0.2
v -0.4 0.5 0.2
v -0.3 0.5 0.2
v -0.2 0.5 0.2
v 0.3 0.5 0.2
v 0.4 0.5 0.2
v 0.5 0.5 0.2
v 0.6 0.5 0.2
v 0.7 0.5 0.2
v -0.5 0.5 0.1
v -0.4 0.5 0.1
v -0.0999999 0.5 0.1
v 5.96046e-008 0.5 0.1
v 0.1 0.5 0.1
v 0.2 0.5 0.1
v 0.5 0.5 0.1
v 0.6 0.5 0.1
v -0.3 0.5 0
v -0.2 0.5 0
v -0.0999999 0.5 0
v 5.96046e-008 0.5 0
v 0.1 0.5 0
v 0.2 0.5 0
v 0.3 0.5 0
v 0.4 0.5 0
v -0.0999999 0.6 0.8
v 5.96046e-008 0.6 0.8
v 0.1 0.6 0.8
v 0.2 0.6 0.8
v -0.5 0.6 0.7
v -0.4 0.6 0.7
v -0.3 0.6 0.7
v -0.2 0.6 0.7
v 0.3 0.6 0.7
v 0.4 0.6 0.7
v 0.5 0.6 0.7
v 0.6 0.6 0.7
v -0.0999999 0.6 0.5
v 5.96046e-008 0.6 0.5
v 0.1 0.6 0.5
v 0.2 0.6 0.5
v -0.0999999 0.6 0.4
v 5.96046e-008 0.6 0.4
v 0.1 0.6 0.4
v 0.2 0.6 0.4
v -0.5 0.6 0.2
v -0.4 0.6 0.2
v -0.3 0.6 0.2
v -0.2 0.6 0.2
v 0.3 0.6 0.2
v 0.4 0.6 0.2
v 0.5 0.6 0.2
v 0.6 0.6 0.2
v -0.0999999 0.6 0.1
v 5.96046e-008 0.6 0.1
v 0.1 0.6 0.1
v 0.2 0.6 0.1
v -0.0999999 0.7 0.5
v 5.96046e-008 0.7 0.5
v -0.0999999 0.7 0.4
v 5.96046e-008 0.7 0.4
v 0.1 0.8 0.5
v 0.2 0.8 0.5
v 0.1 0.8 0.4
v 0.2 0.8 0.4

# faces
f 3/1/1 2/1/1 1/1/1
f 4/1/1 2/1/1 3/1/1
f 8/2/1 6/2/1 5/2/1
f 9/2/1 6/2/1 8/2/1
f 11/1/1 8/1/1 7/1/1
f 12/1/1 8/1/1 11/1/1
f 13/1/1 10/1/1 9/1/1
f 14/1/1 10/1/1 13/1/1
f 15/2/1 13/2/1 12/2/1
f 16/2/1 13/2/1 15/2/1
f 20/2/1 18/2/1 17/2/1
f 21/2/1 18/2/1 20/2/1
f 23/1/1 20/1/1 19/1/1
f 23/1/1 22/1/1 21/1/1
f 23/1/1 21/1/1 20/1/1
f 24/1/1 22/1/1 23/1/1
f 25/1/1 22/1/1 24/1/1
f 26/1/1 22/1/1 25/1/1
f 27/2/1 25/2/1 24/2/1
f 28/2/1 25/2/1 27/2/1
f 32/2/1 30/2/1 29/2/1
f 33/2/1 30/2/1 32/2/1
f 35/1/1 32/1/1 31/1/1
f 35/1/1 34/1/1 33/1/1
f 35/1/1 33/1/1 32/1/1
f 36/1/1 34/1/1 35/1/1
f 37/1/1 34/1/1 36/1/1
f 38/1/1 34/1/1 37/1/1
f 39/1/1 34/1/1 38/1/1
f 40/1/1 34/1/1 39/1/1
f 41/2/1 37/2/1 36/2/1
f 42/1/1 38/1/1 37/1/1
f 42/2/1 37/2/1 41/2/1
f 43/2/1 39/2/1 38/2/1
f 43/1/1 38/1/1 42/1/1
f 44/2/1 39/2/1 43/2/1
f 45/3/1 43/3/1 42/3/1
f 46/3/1 43/3/1 45/3/1
f 50/2/1 48/2/1 47/2/1
f 51/2/1 48/2/1 50/2/1
f 53/1/1 50/1/1 49/1/1
f 53/1/1 52/1/1 51/1/1
f 53/1/1 51/1/1 50/1/1
f 54/1/1 52/1/1 53/1/1
f 55/1/1 52/1/1 54/1/1
f 56/1/1 52/1/1 55/1/1
f 57/1/1 52/1/1 56/1/1
f 58/1/1 52/1/1 57/1/1
f 59/2/1 55/2/1 54/2/1
f 60/1/1 56/1/1 55/1/1
f 60/2/1 55/2/1 59/2/1
f 61/2/1 57/2/1 56/2/1
f 61/1/1 56/1/1 60/1/1
f 62/2/1 57/2/1 61/2/1
f 63/3/1 61/3/1 60/3/1
f 64/3/1 61/3/1 63/3/1
f 68/2/1 66/2/1 65/2/1
f 69/2/1 66/2/1 68/2/1
f 71/1/1 68/1/1 67/1/1
f 71/1/1 70/1/1 69/1/1
f 71/1/1 69/1/1 68/1/1
f 72/1/1 70/1/1 71/1/1
f 73/1/1 70/1/1 72/1/1
f 74/1/1 70/1/1 73/1/1
f 75/2/1 73/2/1 72/2/1
f 76/2/1 73/2/1 75/2/1
f 80/2/1 78/2/1 77/2/1
f 81/2/1 78/2/1 80/2/1
f 83/1/1 80/1/1 79/1/1
f 83/1/1 82/1/1 81/1/1
f 83/1/1 81/1/1 80/1/1
f 84/1/1 82/1/1 83/1/1
f 85/1/1 82/1/1 84/1/1
f 86/1/1 82/1/1 85/1/1
f 87/2/1 85/2/1 84/2/1
f 88/2/1 85/2/1 87/2/1
f 89/2/2 90/2/2 92/2/2
f 92/2/2 90/2/2 93/2/2
f 91/1/2 92/1/2 95/1/2
f 93/1/2 94/1/2 95/1/2
f 92/1/2 93/1/2 95/1/2
f 95/1/2 94/1/2 96/1/2
f 96/1/2 94/1/2 97/1/2
f 97/1/2 94/1/2 98/1/2
f 96/2/2 97/2/2 99/2/2
f 99/2/2 97/2/2 100/2/2
f 101/2/2 102/2/2 104/2/2
f 104/2/2 102/2/2 105/2/2
f 103/1/2 104/1/2 107/1/2
f 105/1/2 106/1/2 107/1/2
f 104/1/2 105/1/2 107/1/2
f 107/1/2 106/1/2 108/1/2
f 108/1/2 106/1/2 109/1/2
f 109/1/2 106/1/2 110/1/2
f 108/2/2 109/2/2 111/2/2
f 111/2/2 109/2/2 112/2/2
f 113/2/2 114/2/2 116/2/2
f 116/2/2 114/2/2 117/2/2
f 115/1/2 116/1/2 119/1/2
f 117/1/2 118/1/2 119/1/2
f 116/1/2 117/1/2 119/1/2
f 119/1/2 118/1/2 120/1/2
f 120/1/2 118/1/2 121/1/2
f 121/1/2 118/1/2 122/1/2
f 122/1/2 118/1/2 123/1/2
f 123/1/2 118/1/2 124/1/2
f 120/2/2 121/2/2 125/2/2
f 121/1/2 122/1/2 126/1/2
f 125/2/2 121/2/2 126/2/2
f 122/2/2 123/2/2 127/2/2
f 126/1/2 122/1/2 127/1/2
f 127/2/2 123/2/2 128/2/2
f 126/3/2 127/3/2 129/3/2
f 129/3/2 127/3/2 130/3/2
f 131/2/2 132/2/2 134/2/2
f 134/2/2 132/2/2 135/2/2
f 133/1/2 134/1/2 137/1/2
f 135/1/2 136/1/2 137/1/2
f 134/1/2 135/1/2 137/1/2
f 137/1/2 136/1/2 138/1/2
f 138/1/2 136/1/2 139/1/2
f 139/1/2 136/1/2 140/1/2
f 140/1/2 136/1/2 141/1/2
f 141/1/2 136/1/2 142/1/2
f 138/2/2 139/2/2 143/2/2
f 139/1/2 140/1/2 144/1/2
f 143/2/2 139/2/2 144/2/2
f 140/2/2 141/2/2 145/2/2
f 144/1/2 140/1/2 145/1/2
f 145/2/2 141/2/2 146/2/2
f 144/3/2 145/3/2 147/3/2
f 147/3/2 145/3/2 148/3/2
f 149/2/2 150/2/2 152/2/2
f 152/2/2 150/2/2 153/2/2
f 151/1/2 152/1/2 155/1/2
f 153/1/2 154/1/2 155/1/2
f 152/1/2 153/1/2 155/1/2
f 155/1/2 154/1/2 156/1/2
f 156/1/2 154/1/2 157/1/2
f 157/1/2 154/1/2 158/1/2
f 156/2/2 157/2/2 159/2/2
f 159/2/2 157/2/2 160/2/2
f 161/2/2 162/2/2 164/2/2
f 164/2/2 162/2/2 165/2/2
f 163/1/2 164/1/2 167/1/2
f 167/1/2 164/1/2 168/1/2
f 165/1/2 166/1/2 169/1/2
f 169/1/2 166/1/2 170/1/2
f 168/2/2 169/2/2 171/2/2
f 171/2/2 169/2/2 172/2/2
f 173/1/2 174/1/2 175/1/2
f 175/1/2 174/1/2 176/1/2
f 179/1/3 178/1/3 177/1/3
f 180/1/3 178/1/3 179/1/3
f 183/1/3 182/1/3 181/1/3
f 184/1/3 182/1/3 183/1/3
f 187/1/3 186/1/3 185/1/3
f 188/1/3 186/1/3 187/1/3
f 191/1/3 190/1/3 189/1/3
f 192/1/3 190/1/3 191/1/3
f 195/1/3 194/1/3 193/1/3
f 196/1/3 194/1/3 195/1/3
f 199/2/3 198/2/3 197/2/3
f 200/2/3 198/2/3 199/2/3
f 205/2/3 202/2/3 201/2/3
f 206/2/3 202/2/3 205/2/3
f 207/2/3 204/2/3 203/2/3
f 208/2/3 204/2/3 207/2/3
f 213/2/3 210/2/3 209/2/3
f 214/2/3 210/2/3 213/2/3
f 215/2/3 212/2/3 211/2/3
f 216/2/3 212/2/3 215/2/3
f 219/2/3 218/2/3 217/2/3
f 220/2/3 218/2/3 219/2/3
f 223/1/3 222/1/3 221/1/3
f 224/1/3 222/1/3 223/1/3
f 228/1/3 226/1/3 225/1/3
f 229/1/3 226/1/3 228/1/3
f 231/2/3 228/2/3 227/2/3
f 232/2/3 228/2/3 231/2/3
f 233/2/3 230/2/3 229/2/3
f 234/2/3 230/2/3 233/2/3
f 237/2/3 236/2/3 235/2/3
f 238/2/3 236/2/3 237/2/3
f 241/2/3 240/2/3 239/2/3
f 242/2/3 240/2/3 241/2/3
f 247/2/3 244/2/3 243/2/3
f 248/2/3 244/2/3 247/2/3
f 249/2/3 246/2/3 245/2/3
f 250/2/3 246/2/3 249/2/3
f 251/1/3 249/1/3 248/1/3
f 252/1/3 249/1/3 251/1/3
f 255/3/3 254/3/3 253/3/3
f 256/3/3 254/3/3 255/3/3
f 259/3/3 258/3/3 257/3/3
f 260/3/3 258/3/3 259/3/3
f 261/3/4 262/3/4 263/3/4
f 263/3/4 262/3/4 264/3/4
f 265/3/4 266/3/4 267/3/4
f 267/3/4 266/3/4 268/3/4
f 269/1/4 270/1/4 272/1/4
f 272/1/4 270/1/4 273/1/4
f 271/2/4 272/2/4 275/2/4
f 275/2/4 272/2/4 276/2/4
f 273/2/4 274/2/4 277/2/4
f 277/2/4 274/2/4 278/2/4
f 279/2/4 280/2/4 281/2/4
f 281/2/4 280/2/4 282/2/4
f 283/2/4 284/2/4 285/2/4
f 285/2/4 284/2/4 286/2/4
f 287/2/4 288/2/4 291/2/4
f 291/2/4 288/2/4 292/2/4
f 289/2/4 290/2/4 293/2/4
f 293/2/4 290/2/4 294/2/4
f 292/1/4 293/1/4 295/1/4
f 295/1/4 293/1/4 296/1/4
f 297/1/4 298/1/4 299/1/4
f 299/1/4 298/1/4 300/1/4
f 301/2/4 302/2/4 303/2/4
f 303/2/4 302/2/4 304/2/4
f 305/2/4 306/2/4 309/2/4
f 309/2/4 306/2/4 310/2/4
f 307/2/4 308/2/4 311/2/4
f 311/2/4 308/2/4 312/2/4
f 313/2/4 314/2/4 317/2/4
f 317/2/4 314/2/4 318/2/4
f 315/2/4 316/2/4 319/2/4
f 319/2/4 316/2/4 320/2/4
f 321/2/4 322/2/4 323/2/4
f 323/2/4 322/2/4 324/2/4
f 325/1/4 326/1/4 327/1/4
f 327/1/4 326/1/4 328/1/4
f 329/1/4 330/1/4 331/1/4
f 331/1/4 330/1/4 332/1/4
f 333/1/4 334/1/4 335/1/4
f 335/1/4 334/1/4 336/1/4
f 337/1/4 338/1/4 339/1/4
f 339/1/4 338/1/4 340/1/4
f 341/1/4 342/1/4 343/1/4
f 343/1/4 342/1/4 344/1/4
f 357/2/5 354/2/5 353/2/5
f 358/2/5 354/2/5 357/2/5
f 359/2/5 356/2/5 355/2/5
f 360/2/5 356/2/5 359/2/5
f 361/2/5 346/2/5 345/2/5
f 362/2/5 346/2/5 361/2/5
f 363/2/5 348/2/5 347/2/5
f 364/2/5 348/2/5 363/2/5
f 365/2/5 350/2/5 349/2/5
f 366/2/5 350/2/5 365/2/5
f 367/2/5 352/2/5 351/2/5
f 368/2/5 352/2/5 367/2/5
f 379/1/5 370/1/5 369/1/5
f 380/1/5 370/1/5 379/1/5
f 381/1/5 372/1/5 371/1/5
f 382/1/5 372/1/5 381/1/5
f 383/1/5 374/1/5 373/1/5
f 384/1/5 374/1/5 383/1/5
f 385/1/5 376/1/5 375/1/5
f 386/1/5 376/1/5 385/1/5
f 390/1/5 378/1/5 377/1/5
f 391/1/5 378/1/5 390/1/5
f 392/1/5 388/1/5 387/1/5
f 393/1/5 388/1/5 392/1/5
f 395/1/5 390/1/5 389/1/5
f 396/1/5 390/1/5 395/1/5
f 399/1/5 394/1/5 393/1/5
f 400/1/5 394/1/5 399/1/5
f 401/1/5 397/1/5 396/1/5
f 402/1/5 397/1/5 401/1/5
f 411/1/5 399/1/5 398/1/5
f 412/1/5 399/1/5 411/1/5
f 413/1/5 404/1/5 403/1/5
f 414/1/5 404/1/5 413/1/5
f 415/1/5 406/1/5 405/1/5
f 416/1/5 406/1/5 415/1/5
f 417/1/5 408/1/5 407/1/5
f 418/1/5 408/1/5 417/1/5
f 419/1/5 410/1/5 409/1/5
f 420/1/5 410/1/5 419/1/5
f 423/1/6 424/1/6 431/1/6
f 431/1/6 424/1/6 432/1/6
f 425/1/6 426/1/6 433/1/6
f 433/1/6 426/1/6 434/1/6
f 429/1/6 430/1/6 438/1/6
f 438/1/6 430/1/6 439/1/6
f 421/1/6 422/1/6 440/1/6
f 440/1/6 422/1/6 441/1/6
f 427/1/6 428/1/6 442/1/6
f 442/1/6 428/1/6 443/1/6
f 435/1/6 436/1/6 444/1/6
f 444/1/6 436/1/6 445/1/6
f 437/1/6 438/1/6 447/1/6
f 447/1/6 438/1/6 448/1/6
f 445/1/6 446/1/6 455/1/6
f 455/1/6 446/1/6 456/1/6
f 448/1/6 449/1/6 457/1/6
f 457/1/6 449/1/6 458/1/6
f 454/1/6 455/1/6 463/1/6
f 463/1/6 455/1/6 464/1/6
f 450/1/6 451/1/6 465/1/6
f 465/1/6 451/1/6 466/1/6
f 459/1/6 460/1/6 467/1/6
f 467/1/6 460/1/6 468/1/6
f 461/1/6 462/1/6 469/1/6
f 469/1/6 462/1/6 470/1/6
f 452/1/6 453/1/6 471/1/6
f 471/1/6 453/1/6 472/1/6
f 473/2/6 474/2/6 485/2/6
f 485/2/6 474/2/6 486/2/6
f 475/2/6 476/2/6 487/2/6
f 487/2/6 476/2/6 488/2/6
f 477/2/6 478/2/6 493/2/6
f 493/2/6 478/2/6 494/2/6
f 479/2/6 480/2/6 495/2/6
f 495/2/6 480/2/6 496/2/6
f 481/2/6 482/2/6 497/2/6
f 497/2/6 482/2/6 498/2/6
f 483/2/6 484/2/6 499/2/6
f 499/2/6 484/2/6 500/2/6
f 489/2/6 490/2/6 501/2/6
f 501/2/6 490/2/6 502/2/6
f 491/2/6 492/2/6 503/2/6
f 503/2/6 492/2/6 504/2/6
f 505/3/6 506/3/6 507/3/6
f 507/3/6 506/3/6 508/3/6
f 509/3/6 510/3/6 511/3/6
f 511/3/6 510/3/6 512/3/6
