# MagicaVoxel @ Ephtracy

# group
o 

# material
mtllib box_filete.mtl
usemtl palette

# normals
vn -1 0 0
vn 1 0 0
vn 0 0 1
vn 0 0 -1
vn 0 -1 0
vn 0 1 0

# texcoords
vt 0.208984 0.5
vt 0.373047 0.5
vt 0.537109 0.5
vt 0.560547 0.5
vt 0.966797 0.5

# verts
v -0.5 0 0.5
v -0.5 0 -0.5
v -0.5 0.1 0.4
v -0.5 0.1 -0.4
v -0.5 1.1 0.4
v -0.5 1.1 -0.4
v -0.5 1.2 0.5
v -0.5 1.2 -0.5
v -0.4 0 0.6
v -0.4 0 0.5
v -0.4 0 -0.5
v -0.4 0 -0.6
v -0.4 0.1 0.6
v -0.4 0.1 0.5
v -0.4 1.1 0.6
v -0.4 1.1 0.5
v -0.4 1.2 0.6
v -0.4 1.2 0.5
v -0.4 1.2 -0.5
v -0.4 1.2 -0.6
v 0.6 0.7 0.5
v 0.6 0.7 0.3
v 0.6 0.7 -0.3
v 0.6 0.7 -0.5
v 0.6 0.8 0.5
v 0.6 1.1 0.5
v 0.6 1.1 -0.5
v 0.6 1.2 0.5
v 0.6 1.2 0.3
v 0.6 1.2 -0.3
v 0.6 1.2 -0.5
v 0.7 0.7 0.3
v 0.7 0.7 -0.3
v 0.7 1.1 0.3
v 0.7 1.1 -0.3
v 0.7 1.2 0.3
v 0.7 1.2 -0.3
v -0.4 0.7 0.3
v -0.4 0.7 -0.3
v -0.4 1.1 0.3
v -0.4 1.1 -0.3
v -0.4 1.2 0.3
v -0.4 1.2 -0.3
v -0.3 0.7 0.5
v -0.3 0.7 0.3
v -0.3 0.7 -0.3
v -0.3 0.7 -0.5
v -0.3 1.1 0.5
v -0.3 1.1 -0.5
v -0.3 1.2 0.5
v -0.3 1.2 0.3
v -0.3 1.2 -0.3
v -0.3 1.2 -0.5
v 0.7 0 0.6
v 0.7 0 0.5
v 0.7 0 -0.5
v 0.7 0 -0.6
v 0.7 0.1 0.6
v 0.7 0.1 0.5
v 0.7 1.1 0.6
v 0.7 1.1 0.5
v 0.7 1.2 0.6
v 0.7 1.2 0.5
v 0.7 1.2 -0.5
v 0.7 1.2 -0.6
v 0.8 0 0.5
v 0.8 0 -0.5
v 0.8 0.1 0.4
v 0.8 0.1 -0.4
v 0.8 1.1 0.4
v 0.8 1.1 -0.4
v 0.8 1.2 0.5
v 0.8 1.2 -0.5
v -0.4 0 0.6
v -0.4 0.1 0.6
v -0.4 1.1 0.6
v -0.4 1.2 0.6
v -0.3 0.4 0.6
v -0.3 0.6 0.6
v -0.2 0.3 0.6
v -0.2 0.4 0.6
v -0.2 0.6 0.6
v -0.2 0.8 0.6
v -0.1 0.6 0.6
v -0.1 0.8 0.6
v -0.1 0.9 0.6
v 0 0.3 0.6
v 0 0.4 0.6
v 0 0.5 0.6
v 0 0.6 0.6
v 0 0.7 0.6
v 0.1 0.6 0.6
v 0.1 0.7 0.6
v 0.3 0.4 0.6
v 0.3 0.5 0.6
v 0.3 0.6 0.6
v 0.4 0.7 0.6
v 0.4 0.8 0.6
v 0.4 0.9 0.6
v 0.5 0.5 0.6
v 0.5 0.6 0.6
v 0.5 0.7 0.6
v 0.6 0.6 0.6
v 0.6 0.8 0.6
v 0.7 0 0.6
v 0.7 0.1 0.6
v 0.7 1.1 0.6
v 0.7 1.2 0.6
v -0.5 0 0.5
v -0.5 1.2 0.5
v -0.4 0 0.5
v -0.4 0.1 0.5
v -0.4 1.1 0.5
v -0.4 1.2 0.5
v 0.7 0 0.5
v 0.7 0.1 0.5
v 0.7 1.1 0.5
v 0.7 1.2 0.5
v 0.8 0 0.5
v 0.8 1.2 0.5
v -0.4 0.7 -0.3
v -0.4 1.1 -0.3
v -0.4 1.2 -0.3
v -0.3 0.7 -0.3
v -0.3 1.2 -0.3
v 0.6 0.7 -0.3
v 0.6 1.2 -0.3
v 0.7 0.7 -0.3
v 0.7 1.1 -0.3
v 0.7 1.2 -0.3
v -0.3 0.7 -0.5
v -0.3 1.1 -0.5
v -0.3 1.2 -0.5
v 0.6 0.7 -0.5
v 0.6 1.1 -0.5
v 0.6 1.2 -0.5
v -0.3 0.7 0.5
v -0.3 1.1 0.5
v -0.3 1.2 0.5
v -0.2 0.7 0.5
v -0.2 0.8 0.5
v -0.1 0.7 0.5
v -0.1 0.8 0.5
v -0.1 0.9 0.5
v 0.4 0.7 0.5
v 0.4 0.8 0.5
v 0.4 0.9 0.5
v 0.6 0.7 0.5
v 0.6 0.8 0.5
v 0.6 1.1 0.5
v 0.6 1.2 0.5
v -0.4 0.7 0.3
v -0.4 1.1 0.3
v -0.4 1.2 0.3
v -0.3 0.7 0.3
v -0.3 1.2 0.3
v 0.6 0.7 0.3
v 0.6 1.2 0.3
v 0.7 0.7 0.3
v 0.7 1.1 0.3
v 0.7 1.2 0.3
v -0.5 0 -0.5
v -0.5 1.2 -0.5
v -0.4 0 -0.5
v -0.4 1.2 -0.5
v 0.7 0 -0.5
v 0.7 1.2 -0.5
v 0.8 0 -0.5
v 0.8 1.2 -0.5
v -0.4 0 -0.6
v -0.4 1.2 -0.6
v -0.3 0.1 -0.6
v -0.3 1.1 -0.6
v 0.6 0.1 -0.6
v 0.6 1.1 -0.6
v 0.7 0 -0.6
v 0.7 1.2 -0.6
v -0.4 0 0.6
v 0.7 0 0.6
v -0.5 0 0.5
v -0.4 0 0.5
v 0.7 0 0.5
v 0.8 0 0.5
v -0.4 0 -0.4
v -0.3 0 -0.4
v 0.6 0 -0.4
v 0.7 0 -0.4
v -0.5 0 -0.5
v -0.4 0 -0.5
v -0.3 0 -0.5
v 0.6 0 -0.5
v 0.7 0 -0.5
v 0.8 0 -0.5
v -0.4 0 -0.6
v 0.7 0 -0.6
v -0.3 0.7 0.5
v -0.2 0.7 0.5
v -0.1 0.7 0.5
v 0.4 0.7 0.5
v 0.6 0.7 0.5
v -0.4 0.7 0.3
v -0.3 0.7 0.3
v 0.6 0.7 0.3
v 0.7 0.7 0.3
v -0.4 0.7 -0.3
v -0.3 0.7 -0.3
v 0.6 0.7 -0.3
v 0.7 0.7 -0.3
v -0.3 0.7 -0.5
v 0.6 0.7 -0.5
v -0.4 1.2 0.6
v 0.7 1.2 0.6
v -0.5 1.2 0.5
v -0.4 1.2 0.5
v -0.3 1.2 0.5
v 0.6 1.2 0.5
v 0.7 1.2 0.5
v 0.8 1.2 0.5
v -0.4 1.2 0.3
v -0.3 1.2 0.3
v 0.6 1.2 0.3
v 0.7 1.2 0.3
v -0.4 1.2 -0.3
v -0.3 1.2 -0.3
v 0.6 1.2 -0.3
v 0.7 1.2 -0.3
v -0.5 1.2 -0.5
v -0.4 1.2 -0.5
v -0.3 1.2 -0.5
v 0.6 1.2 -0.5
v 0.7 1.2 -0.5
v 0.8 1.2 -0.5
v -0.4 1.2 -0.6
v 0.7 1.2 -0.6

# faces
f 3/2/1 2/2/1 1/2/1
f 4/2/1 2/2/1 3/2/1
f 5/2/1 3/2/1 1/2/1
f 5/1/1 4/1/1 3/1/1
f 6/2/1 2/2/1 4/2/1
f 6/1/1 4/1/1 5/1/1
f 7/2/1 5/2/1 1/2/1
f 7/2/1 6/2/1 5/2/1
f 8/2/1 2/2/1 6/2/1
f 8/2/1 6/2/1 7/2/1
f 13/2/1 10/2/1 9/2/1
f 14/2/1 10/2/1 13/2/1
f 15/1/1 14/1/1 13/1/1
f 16/1/1 14/1/1 15/1/1
f 17/2/1 16/2/1 15/2/1
f 18/2/1 16/2/1 17/2/1
f 19/2/1 12/2/1 11/2/1
f 20/2/1 12/2/1 19/2/1
f 25/2/1 22/2/1 21/2/1
f 26/2/1 22/2/1 25/2/1
f 27/2/1 24/2/1 23/2/1
f 28/2/1 22/2/1 26/2/1
f 29/2/1 22/2/1 28/2/1
f 30/2/1 27/2/1 23/2/1
f 31/2/1 27/2/1 30/2/1
f 34/1/1 33/1/1 32/1/1
f 35/1/1 33/1/1 34/1/1
f 36/2/1 35/2/1 34/2/1
f 37/2/1 35/2/1 36/2/1
f 38/1/2 39/1/2 40/1/2
f 40/1/2 39/1/2 41/1/2
f 40/2/2 41/2/2 42/2/2
f 42/2/2 41/2/2 43/2/2
f 44/2/2 45/2/2 48/2/2
f 46/2/2 47/2/2 49/2/2
f 48/2/2 45/2/2 50/2/2
f 50/2/2 45/2/2 51/2/2
f 46/2/2 49/2/2 52/2/2
f 52/2/2 49/2/2 53/2/2
f 54/2/2 55/2/2 58/2/2
f 58/2/2 55/2/2 59/2/2
f 58/1/2 59/1/2 60/1/2
f 60/1/2 59/1/2 61/1/2
f 60/2/2 61/2/2 62/2/2
f 62/2/2 61/2/2 63/2/2
f 56/2/2 57/2/2 64/2/2
f 64/2/2 57/2/2 65/2/2
f 66/2/2 67/2/2 68/2/2
f 68/2/2 67/2/2 69/2/2
f 66/2/2 68/2/2 70/2/2
f 68/1/2 69/1/2 70/1/2
f 69/2/2 67/2/2 71/2/2
f 70/1/2 69/1/2 71/1/2
f 66/2/2 70/2/2 72/2/2
f 70/2/2 71/2/2 72/2/2
f 71/2/2 67/2/2 73/2/2
f 72/2/2 71/2/2 73/2/2
f 78/1/3 76/1/3 75/1/3
f 79/1/3 76/1/3 78/1/3
f 80/1/3 78/1/3 75/1/3
f 81/3/3 79/3/3 78/3/3
f 81/1/3 78/1/3 80/1/3
f 82/1/3 76/1/3 79/1/3
f 82/3/3 79/3/3 81/3/3
f 83/1/3 76/1/3 82/1/3
f 84/4/3 82/4/3 81/4/3
f 84/3/3 83/3/3 82/3/3
f 85/1/3 76/1/3 83/1/3
f 85/3/3 83/3/3 84/3/3
f 86/1/3 76/1/3 85/1/3
f 87/3/3 81/3/3 80/3/3
f 87/1/3 80/1/3 75/1/3
f 88/4/3 84/4/3 81/4/3
f 88/3/3 81/3/3 87/3/3
f 88/4/3 85/4/3 84/4/3
f 89/4/3 85/4/3 88/4/3
f 90/4/3 85/4/3 89/4/3
f 91/4/3 85/4/3 90/4/3
f 92/4/3 90/4/3 89/4/3
f 92/5/3 91/5/3 90/5/3
f 93/4/3 85/4/3 91/4/3
f 93/5/3 91/5/3 92/5/3
f 94/1/3 88/1/3 87/1/3
f 94/3/3 89/3/3 88/3/3
f 95/4/3 93/4/3 92/4/3
f 95/3/3 89/3/3 94/3/3
f 95/4/3 92/4/3 89/4/3
f 96/4/3 93/4/3 95/4/3
f 97/4/3 85/4/3 93/4/3
f 97/4/3 93/4/3 96/4/3
f 98/3/3 86/3/3 85/3/3
f 98/4/3 85/4/3 97/4/3
f 99/1/3 76/1/3 86/1/3
f 99/3/3 86/3/3 98/3/3
f 100/3/3 96/3/3 95/3/3
f 100/1/3 95/1/3 94/1/3
f 101/4/3 97/4/3 96/4/3
f 101/3/3 96/3/3 100/3/3
f 102/3/3 98/3/3 97/3/3
f 102/4/3 97/4/3 101/4/3
f 103/1/3 101/1/3 100/1/3
f 103/3/3 102/3/3 101/3/3
f 104/3/3 98/3/3 102/3/3
f 104/3/3 102/3/3 103/3/3
f 104/1/3 99/1/3 98/1/3
f 105/2/3 75/2/3 74/2/3
f 106/1/3 103/1/3 100/1/3
f 106/2/3 75/2/3 105/2/3
f 106/1/3 100/1/3 94/1/3
f 106/1/3 104/1/3 103/1/3
f 106/1/3 94/1/3 87/1/3
f 106/1/3 87/1/3 75/1/3
f 107/1/3 99/1/3 104/1/3
f 107/1/3 104/1/3 106/1/3
f 107/2/3 77/2/3 76/2/3
f 107/1/3 76/1/3 99/1/3
f 108/2/3 77/2/3 107/2/3
f 111/2/3 110/2/3 109/2/3
f 112/2/3 110/2/3 111/2/3
f 113/2/3 110/2/3 112/2/3
f 114/2/3 110/2/3 113/2/3
f 119/2/3 116/2/3 115/2/3
f 119/2/3 118/2/3 117/2/3
f 119/2/3 117/2/3 116/2/3
f 120/2/3 118/2/3 119/2/3
f 124/2/3 122/2/3 121/2/3
f 124/2/3 123/2/3 122/2/3
f 125/2/3 123/2/3 124/2/3
f 128/2/3 127/2/3 126/2/3
f 129/2/3 127/2/3 128/2/3
f 130/2/3 127/2/3 129/2/3
f 134/1/3 132/1/3 131/1/3
f 135/2/3 133/2/3 132/2/3
f 135/1/3 132/1/3 134/1/3
f 136/2/3 133/2/3 135/2/3
f 137/1/4 138/1/4 140/1/4
f 140/1/4 138/1/4 141/1/4
f 140/3/4 141/3/4 142/3/4
f 141/1/4 138/1/4 143/1/4
f 142/3/4 141/3/4 143/3/4
f 143/1/4 138/1/4 144/1/4
f 142/4/4 143/4/4 145/4/4
f 143/3/4 144/3/4 146/3/4
f 145/4/4 143/4/4 146/4/4
f 144/1/4 138/1/4 147/1/4
f 146/3/4 144/3/4 147/3/4
f 145/3/4 146/3/4 148/3/4
f 146/1/4 147/1/4 149/1/4
f 148/3/4 146/3/4 149/3/4
f 138/2/4 139/2/4 150/2/4
f 149/1/4 147/1/4 150/1/4
f 147/1/4 138/1/4 150/1/4
f 150/2/4 139/2/4 151/2/4
f 152/2/4 153/2/4 155/2/4
f 153/2/4 154/2/4 155/2/4
f 155/2/4 154/2/4 156/2/4
f 157/2/4 158/2/4 159/2/4
f 159/2/4 158/2/4 160/2/4
f 160/2/4 158/2/4 161/2/4
f 162/2/4 163/2/4 164/2/4
f 164/2/4 163/2/4 165/2/4
f 166/2/4 167/2/4 168/2/4
f 168/2/4 167/2/4 169/2/4
f 170/2/4 171/2/4 172/2/4
f 172/2/4 171/2/4 173/2/4
f 170/2/4 172/2/4 174/2/4
f 172/1/4 173/1/4 174/1/4
f 173/2/4 171/2/4 175/2/4
f 174/1/4 173/1/4 175/1/4
f 170/2/4 174/2/4 176/2/4
f 174/2/4 175/2/4 176/2/4
f 175/2/4 171/2/4 177/2/4
f 176/2/4 175/2/4 177/2/4
f 181/2/5 179/2/5 178/2/5
f 182/2/5 179/2/5 181/2/5
f 184/2/5 181/2/5 180/2/5
f 184/1/5 182/1/5 181/1/5
f 185/1/5 182/1/5 184/1/5
f 186/1/5 182/1/5 185/1/5
f 187/2/5 183/2/5 182/2/5
f 187/1/5 182/1/5 186/1/5
f 188/2/5 184/2/5 180/2/5
f 188/2/5 185/2/5 184/2/5
f 189/2/5 185/2/5 188/2/5
f 190/1/5 186/1/5 185/1/5
f 190/2/5 185/2/5 189/2/5
f 191/2/5 187/2/5 186/2/5
f 191/1/5 186/1/5 190/1/5
f 192/2/5 183/2/5 187/2/5
f 192/2/5 187/2/5 191/2/5
f 193/2/5 183/2/5 192/2/5
f 194/2/5 191/2/5 190/2/5
f 194/2/5 192/2/5 191/2/5
f 194/2/5 190/2/5 189/2/5
f 195/2/5 192/2/5 194/2/5
f 196/2/6 197/2/6 202/2/6
f 199/2/6 200/2/6 202/2/6
f 198/2/6 199/2/6 202/2/6
f 197/2/6 198/2/6 202/2/6
f 202/2/6 200/2/6 203/2/6
f 201/2/6 202/2/6 205/2/6
f 203/2/6 204/2/6 205/2/6
f 202/2/6 203/2/6 205/2/6
f 205/2/6 204/2/6 206/2/6
f 206/2/6 204/2/6 207/2/6
f 207/2/6 204/2/6 208/2/6
f 206/2/6 207/2/6 209/2/6
f 209/2/6 207/2/6 210/2/6
f 211/2/6 212/2/6 214/2/6
f 214/2/6 212/2/6 215/2/6
f 215/2/6 212/2/6 216/2/6
f 216/2/6 212/2/6 217/2/6
f 213/2/6 214/2/6 219/2/6
f 214/2/6 215/2/6 219/2/6
f 219/2/6 215/2/6 220/2/6
f 217/2/6 218/2/6 221/2/6
f 216/2/6 217/2/6 221/2/6
f 221/2/6 218/2/6 222/2/6
f 213/2/6 219/2/6 223/2/6
f 222/2/6 218/2/6 226/2/6
f 223/2/6 224/2/6 227/2/6
f 213/2/6 223/2/6 227/2/6
f 227/2/6 224/2/6 228/2/6
f 228/2/6 224/2/6 229/2/6
f 225/2/6 226/2/6 230/2/6
f 226/2/6 218/2/6 231/2/6
f 230/2/6 226/2/6 231/2/6
f 231/2/6 218/2/6 232/2/6
f 228/2/6 229/2/6 233/2/6
f 229/2/6 230/2/6 233/2/6
f 230/2/6 231/2/6 233/2/6
f 233/2/6 231/2/6 234/2/6
