# MagicaVoxel @ Ephtracy

# group
o 

# material
mtllib filete.mtl
usemtl palette

# normals
vn -1 0 0
vn 1 0 0
vn 0 0 1
vn 0 0 -1
vn 0 -1 0
vn 0 1 0

# texcoords
vt 0.560547 0.5
vt 0.861328 0.5
vt 0.869141 0.5
vt 0.966797 0.5
vt 0.974609 0.5

# verts
v -0.8 0 0.3
v -0.8 0 -0.4
v -0.8 0.2 0.3
v -0.8 0.2 -0.4
v -0.7 0 0.5
v -0.7 0 0.3
v -0.7 0 -0.4
v -0.7 0 -0.7
v -0.7 0.2 0.5
v -0.7 0.2 0.3
v -0.7 0.2 -0.4
v -0.7 0.2 -0.7
v -0.6 0 0.6
v -0.6 0 0.5
v -0.6 0 -0.7
v -0.6 0 -0.9
v -0.6 0.2 0.6
v -0.6 0.2 0.5
v -0.6 0.2 -0.7
v -0.6 0.2 -0.9
v -0.5 0 0.7
v -0.5 0 0.6
v -0.5 0 -0.9
v -0.5 0 -1
v -0.5 0.2 0.7
v -0.5 0.2 0.6
v -0.5 0.2 -0.9
v -0.5 0.2 -1
v -0.4 0 0.8
v -0.4 0 0.7
v -0.4 0 -1
v -0.4 0 -1.1
v -0.4 0.2 0.8
v -0.4 0.2 0.7
v -0.4 0.2 -1
v -0.4 0.2 -1.1
v -0.2 0 -1
v -0.2 0 -1.1
v -0.2 0.2 -1
v -0.2 0.2 -1.1
v -0.1 0 -0.9
v -0.1 0 -1
v -0.1 0.2 -0.9
v -0.1 0.2 -1
v 5.96046e-008 0 -0.8
v 5.96046e-008 0 -0.9
v 5.96046e-008 0.2 -0.8
v 5.96046e-008 0.2 -0.9
v 0.1 0 0.8
v 0.1 0 0.7
v 0.1 0 -0.5
v 0.1 0 -0.8
v 0.1 0.2 0.8
v 0.1 0.2 0.7
v 0.1 0.2 -0.5
v 0.1 0.2 -0.8
v 0.2 0 0.7
v 0.2 0 0.6
v 0.2 0 -0.4
v 0.2 0 -0.5
v 0.2 0.2 0.7
v 0.2 0.2 0.6
v 0.2 0.2 -0.4
v 0.2 0.2 -0.5
v 0.3 0 0.6
v 0.3 0 0.5
v 0.3 0 -0.3
v 0.3 0 -0.4
v 0.3 0.2 0.6
v 0.3 0.2 0.5
v 0.3 0.2 -0.3
v 0.3 0.2 -0.4
v 0.4 0 0.5
v 0.4 0 -0.3
v 0.4 0.2 0.5
v 0.4 0.2 -0.3
v -0.4 0 0.8
v -0.4 0.2 0.8
v 0.1 0 0.8
v 0.1 0.2 0.8
v -0.5 0 0.7
v -0.5 0.2 0.7
v -0.4 0 0.7
v -0.4 0.2 0.7
v 0.1 0 0.7
v 0.1 0.2 0.7
v 0.2 0 0.7
v 0.2 0.2 0.7
v -0.6 0 0.6
v -0.6 0.2 0.6
v -0.5 0 0.6
v -0.5 0.2 0.6
v 0.2 0 0.6
v 0.2 0.2 0.6
v 0.3 0 0.6
v 0.3 0.2 0.6
v -0.7 0 0.5
v -0.7 0.2 0.5
v -0.6 0 0.5
v -0.6 0.2 0.5
v 0.3 0 0.5
v 0.3 0.2 0.5
v 0.4 0 0.5
v 0.4 0.2 0.5
v -0.8 0 0.3
v -0.8 0.2 0.3
v -0.7 0 0.3
v -0.7 0.2 0.3
v 0.3 0 -0.3
v 0.3 0.2 -0.3
v 0.4 0 -0.3
v 0.4 0.2 -0.3
v -0.8 0 -0.4
v -0.8 0.2 -0.4
v -0.7 0 -0.4
v -0.7 0.2 -0.4
v 0.2 0 -0.4
v 0.2 0.2 -0.4
v 0.3 0 -0.4
v 0.3 0.2 -0.4
v 0.1 0 -0.5
v 0.1 0.2 -0.5
v 0.2 0 -0.5
v 0.2 0.2 -0.5
v -0.7 0 -0.7
v -0.7 0.2 -0.7
v -0.6 0 -0.7
v -0.6 0.2 -0.7
v 5.96046e-008 0 -0.8
v 5.96046e-008 0.2 -0.8
v 0.1 0 -0.8
v 0.1 0.2 -0.8
v -0.6 0 -0.9
v -0.6 0.2 -0.9
v -0.5 0 -0.9
v -0.5 0.2 -0.9
v -0.1 0 -0.9
v -0.1 0.2 -0.9
v 5.96046e-008 0 -0.9
v 5.96046e-008 0.2 -0.9
v -0.5 0 -1
v -0.5 0.2 -1
v -0.4 0 -1
v -0.4 0.2 -1
v -0.2 0 -1
v -0.2 0.2 -1
v -0.1 0 -1
v -0.1 0.2 -1
v -0.4 0 -1.1
v -0.4 0.2 -1.1
v -0.2 0 -1.1
v -0.2 0.2 -1.1
v -0.4 0 0.8
v 0.1 0 0.8
v -0.5 0 0.7
v -0.4 0 0.7
v 0.1 0 0.7
v 0.2 0 0.7
v -0.6 0 0.6
v -0.5 0 0.6
v -0.4 0 0.6
v 0.1 0 0.6
v 0.2 0 0.6
v 0.3 0 0.6
v -0.7 0 0.5
v -0.6 0 0.5
v -0.5 0 0.5
v 0.2 0 0.5
v 0.3 0 0.5
v 0.4 0 0.5
v -0.8 0 0.3
v -0.7 0 0.3
v -0.6 0 0.3
v 0.2 0 -0.3
v 0.3 0 -0.3
v 0.4 0 -0.3
v -0.8 0 -0.4
v -0.7 0 -0.4
v -0.6 0 -0.4
v 0.1 0 -0.4
v 0.2 0 -0.4
v 0.3 0 -0.4
v 5.96046e-008 0 -0.5
v 0.1 0 -0.5
v 0.2 0 -0.5
v -0.7 0 -0.7
v -0.6 0 -0.7
v -0.5 0 -0.7
v -0.1 0 -0.8
v 5.96046e-008 0 -0.8
v 0.1 0 -0.8
v -0.6 0 -0.9
v -0.5 0 -0.9
v -0.4 0 -0.9
v -0.2 0 -0.9
v -0.1 0 -0.9
v 5.96046e-008 0 -0.9
v -0.5 0 -1
v -0.4 0 -1
v -0.2 0 -1
v -0.1 0 -1
v -0.4 0 -1.1
v -0.2 0 -1.1
v -0.4 0.2 0.8
v 0.1 0.2 0.8
v -0.5 0.2 0.7
v -0.4 0.2 0.7
v 0.1 0.2 0.7
v 0.2 0.2 0.7
v -0.6 0.2 0.6
v -0.5 0.2 0.6
v -0.4 0.2 0.6
v 0.1 0.2 0.6
v 0.2 0.2 0.6
v 0.3 0.2 0.6
v -0.7 0.2 0.5
v -0.6 0.2 0.5
v -0.5 0.2 0.5
v 0.2 0.2 0.5
v 0.3 0.2 0.5
v 0.4 0.2 0.5
v -0.2 0.2 0.4
v 5.96046e-008 0.2 0.4
v -0.8 0.2 0.3
v -0.7 0.2 0.3
v -0.6 0.2 0.3
v -0.3 0.2 0.3
v -0.2 0.2 0.3
v 5.96046e-008 0.2 0.3
v 0.1 0.2 0.3
v -0.3 0.2 -5.96046e-008
v -0.2 0.2 -5.96046e-008
v 5.96046e-008 0.2 -5.96046e-008
v 0.1 0.2 -5.96046e-008
v -0.2 0.2 -0.1
v 5.96046e-008 0.2 -0.1
v 0.2 0.2 -0.3
v 0.3 0.2 -0.3
v 0.4 0.2 -0.3
v -0.8 0.2 -0.4
v -0.7 0.2 -0.4
v -0.6 0.2 -0.4
v 0.1 0.2 -0.4
v 0.2 0.2 -0.4
v 0.3 0.2 -0.4
v 5.96046e-008 0.2 -0.5
v 0.1 0.2 -0.5
v 0.2 0.2 -0.5
v -0.7 0.2 -0.7
v -0.6 0.2 -0.7
v -0.5 0.2 -0.7
v -0.1 0.2 -0.8
v 5.96046e-008 0.2 -0.8
v 0.1 0.2 -0.8
v -0.6 0.2 -0.9
v -0.5 0.2 -0.9
v -0.4 0.2 -0.9
v -0.2 0.2 -0.9
v -0.1 0.2 -0.9
v 5.96046e-008 0.2 -0.9
v -0.5 0.2 -1
v -0.4 0.2 -1
v -0.2 0.2 -1
v -0.1 0.2 -1
v -0.4 0.2 -1.1
v -0.2 0.2 -1.1

# faces
f 3/3/1 2/3/1 1/3/1
f 4/3/1 2/3/1 3/3/1
f 9/3/1 6/3/1 5/3/1
f 10/3/1 6/3/1 9/3/1
f 11/3/1 8/3/1 7/3/1
f 12/3/1 8/3/1 11/3/1
f 17/3/1 14/3/1 13/3/1
f 18/3/1 14/3/1 17/3/1
f 19/3/1 16/3/1 15/3/1
f 20/3/1 16/3/1 19/3/1
f 25/3/1 22/3/1 21/3/1
f 26/3/1 22/3/1 25/3/1
f 27/3/1 24/3/1 23/3/1
f 28/3/1 24/3/1 27/3/1
f 33/3/1 30/3/1 29/3/1
f 34/3/1 30/3/1 33/3/1
f 35/3/1 32/3/1 31/3/1
f 36/3/1 32/3/1 35/3/1
f 37/3/2 38/3/2 39/3/2
f 39/3/2 38/3/2 40/3/2
f 41/3/2 42/3/2 43/3/2
f 43/3/2 42/3/2 44/3/2
f 45/3/2 46/3/2 47/3/2
f 47/3/2 46/3/2 48/3/2
f 49/3/2 50/3/2 53/3/2
f 53/3/2 50/3/2 54/3/2
f 51/3/2 52/3/2 55/3/2
f 55/3/2 52/3/2 56/3/2
f 57/3/2 58/3/2 61/3/2
f 61/3/2 58/3/2 62/3/2
f 59/3/2 60/3/2 63/3/2
f 63/3/2 60/3/2 64/3/2
f 65/3/2 66/3/2 69/3/2
f 69/3/2 66/3/2 70/3/2
f 67/3/2 68/3/2 71/3/2
f 71/3/2 68/3/2 72/3/2
f 73/3/2 74/3/2 75/3/2
f 75/3/2 74/3/2 76/3/2
f 79/3/3 78/3/3 77/3/3
f 80/3/3 78/3/3 79/3/3
f 83/3/3 82/3/3 81/3/3
f 84/3/3 82/3/3 83/3/3
f 87/3/3 86/3/3 85/3/3
f 88/3/3 86/3/3 87/3/3
f 91/3/3 90/3/3 89/3/3
f 92/3/3 90/3/3 91/3/3
f 95/3/3 94/3/3 93/3/3
f 96/3/3 94/3/3 95/3/3
f 99/3/3 98/3/3 97/3/3
f 100/3/3 98/3/3 99/3/3
f 103/3/3 102/3/3 101/3/3
f 104/3/3 102/3/3 103/3/3
f 107/3/3 106/3/3 105/3/3
f 108/3/3 106/3/3 107/3/3
f 109/3/4 110/3/4 111/3/4
f 111/3/4 110/3/4 112/3/4
f 113/3/4 114/3/4 115/3/4
f 115/3/4 114/3/4 116/3/4
f 117/3/4 118/3/4 119/3/4
f 119/3/4 118/3/4 120/3/4
f 121/3/4 122/3/4 123/3/4
f 123/3/4 122/3/4 124/3/4
f 125/3/4 126/3/4 127/3/4
f 127/3/4 126/3/4 128/3/4
f 129/3/4 130/3/4 131/3/4
f 131/3/4 130/3/4 132/3/4
f 133/3/4 134/3/4 135/3/4
f 135/3/4 134/3/4 136/3/4
f 137/3/4 138/3/4 139/3/4
f 139/3/4 138/3/4 140/3/4
f 141/3/4 142/3/4 143/3/4
f 143/3/4 142/3/4 144/3/4
f 145/3/4 146/3/4 147/3/4
f 147/3/4 146/3/4 148/3/4
f 149/3/4 150/3/4 151/3/4
f 151/3/4 150/3/4 152/3/4
f 156/3/5 154/3/5 153/3/5
f 157/3/5 154/3/5 156/3/5
f 160/3/5 156/3/5 155/3/5
f 161/1/5 157/1/5 156/1/5
f 161/3/5 156/3/5 160/3/5
f 162/3/5 158/3/5 157/3/5
f 162/1/5 157/1/5 161/1/5
f 163/3/5 158/3/5 162/3/5
f 166/3/5 160/3/5 159/3/5
f 167/1/5 161/1/5 160/1/5
f 167/1/5 162/1/5 161/1/5
f 167/3/5 160/3/5 166/3/5
f 167/1/5 163/1/5 162/1/5
f 168/3/5 164/3/5 163/3/5
f 168/1/5 163/1/5 167/1/5
f 169/3/5 164/3/5 168/3/5
f 172/3/5 166/3/5 165/3/5
f 173/1/5 167/1/5 166/1/5
f 173/1/5 168/1/5 167/1/5
f 173/3/5 166/3/5 172/3/5
f 173/1/5 169/1/5 168/1/5
f 174/1/5 173/1/5 172/1/5
f 174/1/5 169/1/5 173/1/5
f 175/3/5 170/3/5 169/3/5
f 175/1/5 169/1/5 174/1/5
f 176/3/5 170/3/5 175/3/5
f 177/3/5 172/3/5 171/3/5
f 178/1/5 174/1/5 172/1/5
f 178/3/5 172/3/5 177/3/5
f 179/1/5 174/1/5 178/1/5
f 180/1/5 174/1/5 179/1/5
f 181/3/5 175/3/5 174/3/5
f 181/1/5 174/1/5 180/1/5
f 182/3/5 175/3/5 181/3/5
f 183/1/5 180/1/5 179/1/5
f 184/3/5 181/3/5 180/3/5
f 184/1/5 180/1/5 183/1/5
f 185/3/5 181/3/5 184/3/5
f 186/3/5 179/3/5 178/3/5
f 187/1/5 183/1/5 179/1/5
f 187/3/5 179/3/5 186/3/5
f 188/1/5 183/1/5 187/1/5
f 189/1/5 183/1/5 188/1/5
f 190/3/5 184/3/5 183/3/5
f 190/1/5 183/1/5 189/1/5
f 191/3/5 184/3/5 190/3/5
f 192/3/5 188/3/5 187/3/5
f 193/1/5 189/1/5 188/1/5
f 193/3/5 188/3/5 192/3/5
f 194/1/5 189/1/5 193/1/5
f 195/1/5 189/1/5 194/1/5
f 196/3/5 190/3/5 189/3/5
f 196/1/5 189/1/5 195/1/5
f 197/3/5 190/3/5 196/3/5
f 198/3/5 194/3/5 193/3/5
f 199/1/5 195/1/5 194/1/5
f 199/3/5 194/3/5 198/3/5
f 200/3/5 196/3/5 195/3/5
f 200/1/5 195/1/5 199/1/5
f 201/3/5 196/3/5 200/3/5
f 202/3/5 200/3/5 199/3/5
f 203/3/5 200/3/5 202/3/5
f 204/3/6 205/3/6 207/3/6
f 207/3/6 205/3/6 208/3/6
f 206/3/6 207/3/6 211/3/6
f 207/2/6 208/2/6 212/2/6
f 211/3/6 207/3/6 212/3/6
f 208/3/6 209/3/6 213/3/6
f 212/2/6 208/2/6 213/2/6
f 213/3/6 209/3/6 214/3/6
f 210/3/6 211/3/6 217/3/6
f 211/2/6 212/2/6 218/2/6
f 212/2/6 213/2/6 218/2/6
f 217/3/6 211/3/6 218/3/6
f 213/2/6 214/2/6 218/2/6
f 214/3/6 215/3/6 219/3/6
f 218/2/6 214/2/6 219/2/6
f 219/3/6 215/3/6 220/3/6
f 217/2/6 218/2/6 222/2/6
f 218/2/6 219/2/6 222/2/6
f 219/2/6 220/2/6 222/2/6
f 222/2/6 220/2/6 223/2/6
f 216/3/6 217/3/6 225/3/6
f 217/2/6 222/2/6 226/2/6
f 225/3/6 217/3/6 226/3/6
f 226/2/6 222/2/6 227/2/6
f 222/5/6 223/5/6 228/5/6
f 227/2/6 222/2/6 228/2/6
f 223/2/6 220/2/6 229/2/6
f 228/5/6 223/5/6 229/5/6
f 229/2/6 220/2/6 230/2/6
f 227/5/6 228/5/6 231/5/6
f 226/2/6 227/2/6 231/2/6
f 225/2/6 226/2/6 231/2/6
f 228/4/6 229/4/6 232/4/6
f 231/5/6 228/5/6 232/5/6
f 229/5/6 230/5/6 233/5/6
f 232/4/6 229/4/6 233/4/6
f 230/2/6 220/2/6 234/2/6
f 233/5/6 230/5/6 234/5/6
f 232/5/6 233/5/6 235/5/6
f 231/2/6 232/2/6 235/2/6
f 233/2/6 234/2/6 236/2/6
f 235/5/6 233/5/6 236/5/6
f 234/2/6 220/2/6 237/2/6
f 236/2/6 234/2/6 237/2/6
f 235/2/6 236/2/6 237/2/6
f 220/3/6 221/3/6 238/3/6
f 237/2/6 220/2/6 238/2/6
f 238/3/6 221/3/6 239/3/6
f 224/3/6 225/3/6 240/3/6
f 225/2/6 231/2/6 241/2/6
f 240/3/6 225/3/6 241/3/6
f 235/2/6 237/2/6 241/2/6
f 231/2/6 235/2/6 241/2/6
f 241/2/6 237/2/6 242/2/6
f 242/2/6 237/2/6 243/2/6
f 237/3/6 238/3/6 244/3/6
f 243/2/6 237/2/6 244/2/6
f 244/3/6 238/3/6 245/3/6
f 242/2/6 243/2/6 246/2/6
f 243/3/6 244/3/6 247/3/6
f 246/2/6 243/2/6 247/2/6
f 247/3/6 244/3/6 248/3/6
f 241/3/6 242/3/6 249/3/6
f 242/2/6 246/2/6 250/2/6
f 249/3/6 242/3/6 250/3/6
f 250/2/6 246/2/6 251/2/6
f 251/2/6 246/2/6 252/2/6
f 246/3/6 247/3/6 253/3/6
f 252/2/6 246/2/6 253/2/6
f 253/3/6 247/3/6 254/3/6
f 250/3/6 251/3/6 255/3/6
f 251/2/6 252/2/6 256/2/6
f 255/3/6 251/3/6 256/3/6
f 256/2/6 252/2/6 257/2/6
f 257/2/6 252/2/6 258/2/6
f 252/3/6 253/3/6 259/3/6
f 258/2/6 252/2/6 259/2/6
f 259/3/6 253/3/6 260/3/6
f 256/3/6 257/3/6 261/3/6
f 257/2/6 258/2/6 262/2/6
f 261/3/6 257/3/6 262/3/6
f 258/3/6 259/3/6 263/3/6
f 262/2/6 258/2/6 263/2/6
f 263/3/6 259/3/6 264/3/6
f 262/3/6 263/3/6 265/3/6
f 265/3/6 263/3/6 266/3/6
