# MagicaVoxel @ Ephtracy

# group
o 

# material
mtllib seta.mtl
usemtl palette

# normals
vn -1 0 0
vn 1 0 0
vn 0 0 1
vn 0 0 -1
vn 0 -1 0
vn 0 1 0

# texcoords
vt 0.0292969 0.5
vt 0.0605469 0.5
vt 0.533203 0.5
vt 0.537109 0.5

# verts
v -0.6 0.6 0.6
v -0.6 0.6 0.1
v -0.6 0.7 0.6
v -0.6 0.7 0.1
v -0.5 0.5 0.4
v -0.5 0.5 0.3
v -0.5 0.6 0.4
v -0.5 0.6 0.3
v -0.5 0.7 0.7
v -0.5 0.7 0.6
v -0.5 0.7 0.1
v -0.5 0.7 -5.96046e-008
v -0.5 0.8 0.7
v -0.5 0.8 -5.96046e-008
v -0.4 0.8 0.6
v -0.4 0.8 0.1
v -0.4 0.9 0.6
v -0.4 0.9 0.1
v -0.3 0.2 0.4
v -0.3 0.2 0.3
v -0.3 0.5 0.4
v -0.3 0.5 0.3
v -0.3 0.6 0.4
v -0.3 0.6 0.3
v -0.3 0.9 0.5
v -0.3 0.9 0.2
v -0.3 1 0.5
v -0.3 1 0.2
v -0.2 0.2 0.5
v -0.2 0.2 0.4
v -0.2 0.2 0.3
v -0.2 0.2 0.2
v -0.2 0.5 0.5
v -0.2 0.5 0.4
v -0.2 0.5 0.3
v -0.2 0.5 0.2
v -0.2 0.6 0.5
v -0.2 0.6 0.4
v -0.2 0.6 0.3
v -0.2 0.6 0.2
v 0.1 0.5 0.4
v 0.1 0.5 0.3
v 0.1 0.6 0.4
v 0.1 0.6 0.3
v 0.2 0.6 0.6
v 0.2 0.6 0.5
v 0.2 0.6 0.2
v 0.2 0.6 0.1
v 0.2 0.7 0.6
v 0.2 0.7 0.5
v 0.2 0.7 0.2
v 0.2 0.7 0.1
v -0.5 0.6 0.6
v -0.5 0.6 0.5
v -0.5 0.6 0.2
v -0.5 0.6 0.1
v -0.5 0.7 0.6
v -0.5 0.7 0.5
v -0.5 0.7 0.2
v -0.5 0.7 0.1
v -0.4 0.5 0.4
v -0.4 0.5 0.3
v -0.4 0.6 0.4
v -0.4 0.6 0.3
v -0.0999999 0.2 0.5
v -0.0999999 0.2 0.4
v -0.0999999 0.2 0.3
v -0.0999999 0.2 0.2
v -0.0999999 0.5 0.5
v -0.0999999 0.5 0.4
v -0.0999999 0.5 0.3
v -0.0999999 0.5 0.2
v -0.0999999 0.6 0.5
v -0.0999999 0.6 0.4
v -0.0999999 0.6 0.3
v -0.0999999 0.6 0.2
v 5.96046e-008 0.2 0.4
v 5.96046e-008 0.2 0.3
v 5.96046e-008 0.5 0.4
v 5.96046e-008 0.5 0.3
v 5.96046e-008 0.6 0.4
v 5.96046e-008 0.6 0.3
v 5.96046e-008 0.9 0.5
v 5.96046e-008 0.9 0.2
v 5.96046e-008 1 0.5
v 5.96046e-008 1 0.2
v 0.1 0.8 0.6
v 0.1 0.8 0.1
v 0.1 0.9 0.6
v 0.1 0.9 0.1
v 0.2 0.5 0.4
v 0.2 0.5 0.3
v 0.2 0.6 0.4
v 0.2 0.6 0.3
v 0.2 0.7 0.7
v 0.2 0.7 0.6
v 0.2 0.7 0.1
v 0.2 0.7 -5.96046e-008
v 0.2 0.8 0.7
v 0.2 0.8 -5.96046e-008
v 0.3 0.6 0.6
v 0.3 0.6 0.1
v 0.3 0.7 0.6
v 0.3 0.7 0.1
v -0.5 0.7 0.7
v -0.5 0.8 0.7
v 0.2 0.7 0.7
v 0.2 0.8 0.7
v -0.6 0.6 0.6
v -0.6 0.7 0.6
v -0.5 0.6 0.6
v -0.5 0.7 0.6
v -0.4 0.8 0.6
v -0.4 0.9 0.6
v 0.1 0.8 0.6
v 0.1 0.9 0.6
v 0.2 0.6 0.6
v 0.2 0.7 0.6
v 0.3 0.6 0.6
v 0.3 0.7 0.6
v -0.5 0.6 0.5
v -0.5 0.7 0.5
v -0.3 0.9 0.5
v -0.3 1 0.5
v -0.2 0.2 0.5
v -0.2 0.5 0.5
v -0.2 0.6 0.5
v -0.0999999 0.2 0.5
v -0.0999999 0.5 0.5
v -0.0999999 0.6 0.5
v 5.96046e-008 0.9 0.5
v 5.96046e-008 1 0.5
v 0.2 0.6 0.5
v 0.2 0.7 0.5
v -0.5 0.5 0.4
v -0.5 0.6 0.4
v -0.4 0.5 0.4
v -0.4 0.6 0.4
v -0.3 0.2 0.4
v -0.3 0.5 0.4
v -0.3 0.6 0.4
v -0.2 0.2 0.4
v -0.2 0.5 0.4
v -0.2 0.6 0.4
v -0.0999999 0.2 0.4
v -0.0999999 0.5 0.4
v -0.0999999 0.6 0.4
v 5.96046e-008 0.2 0.4
v 5.96046e-008 0.5 0.4
v 5.96046e-008 0.6 0.4
v 0.1 0.5 0.4
v 0.1 0.6 0.4
v 0.2 0.5 0.4
v 0.2 0.6 0.4
v -0.5 0.5 0.3
v -0.5 0.6 0.3
v -0.4 0.5 0.3
v -0.4 0.6 0.3
v -0.3 0.2 0.3
v -0.3 0.5 0.3
v -0.3 0.6 0.3
v -0.2 0.2 0.3
v -0.2 0.5 0.3
v -0.2 0.6 0.3
v -0.0999999 0.2 0.3
v -0.0999999 0.5 0.3
v -0.0999999 0.6 0.3
v 5.96046e-008 0.2 0.3
v 5.96046e-008 0.5 0.3
v 5.96046e-008 0.6 0.3
v 0.1 0.5 0.3
v 0.1 0.6 0.3
v 0.2 0.5 0.3
v 0.2 0.6 0.3
v -0.5 0.6 0.2
v -0.5 0.7 0.2
v -0.3 0.9 0.2
v -0.3 1 0.2
v -0.2 0.2 0.2
v -0.2 0.5 0.2
v -0.2 0.6 0.2
v -0.0999999 0.2 0.2
v -0.0999999 0.5 0.2
v -0.0999999 0.6 0.2
v 5.96046e-008 0.9 0.2
v 5.96046e-008 1 0.2
v 0.2 0.6 0.2
v 0.2 0.7 0.2
v -0.6 0.6 0.1
v -0.6 0.7 0.1
v -0.5 0.6 0.1
v -0.5 0.7 0.1
v -0.4 0.8 0.1
v -0.4 0.9 0.1
v 0.1 0.8 0.1
v 0.1 0.9 0.1
v 0.2 0.6 0.1
v 0.2 0.7 0.1
v 0.3 0.6 0.1
v 0.3 0.7 0.1
v -0.5 0.7 -5.96046e-008
v -0.5 0.8 -5.96046e-008
v 0.2 0.7 -5.96046e-008
v 0.2 0.8 -5.96046e-008
v -0.2 0.2 0.5
v -0.0999999 0.2 0.5
v -0.3 0.2 0.4
v -0.2 0.2 0.4
v -0.0999999 0.2 0.4
v 5.96046e-008 0.2 0.4
v -0.3 0.2 0.3
v -0.2 0.2 0.3
v -0.0999999 0.2 0.3
v 5.96046e-008 0.2 0.3
v -0.2 0.2 0.2
v -0.0999999 0.2 0.2
v -0.5 0.5 0.4
v -0.4 0.5 0.4
v 0.1 0.5 0.4
v 0.2 0.5 0.4
v -0.5 0.5 0.3
v -0.4 0.5 0.3
v 0.1 0.5 0.3
v 0.2 0.5 0.3
v -0.6 0.6 0.6
v -0.5 0.6 0.6
v 0.2 0.6 0.6
v 0.3 0.6 0.6
v -0.5 0.6 0.5
v -0.2 0.6 0.5
v -0.0999999 0.6 0.5
v 0.2 0.6 0.5
v -0.5 0.6 0.4
v -0.4 0.6 0.4
v -0.3 0.6 0.4
v -0.2 0.6 0.4
v -0.0999999 0.6 0.4
v 5.96046e-008 0.6 0.4
v 0.1 0.6 0.4
v 0.2 0.6 0.4
v -0.5 0.6 0.3
v -0.4 0.6 0.3
v -0.3 0.6 0.3
v -0.2 0.6 0.3
v -0.0999999 0.6 0.3
v 5.96046e-008 0.6 0.3
v 0.1 0.6 0.3
v 0.2 0.6 0.3
v -0.5 0.6 0.2
v -0.2 0.6 0.2
v -0.0999999 0.6 0.2
v 0.2 0.6 0.2
v -0.6 0.6 0.1
v -0.5 0.6 0.1
v 0.2 0.6 0.1
v 0.3 0.6 0.1
v -0.5 0.7 0.7
v 0.2 0.7 0.7
v -0.5 0.7 0.6
v 0.2 0.7 0.6
v -0.5 0.7 0.5
v 0.2 0.7 0.5
v -0.5 0.7 0.2
v 0.2 0.7 0.2
v -0.5 0.7 0.1
v 0.2 0.7 0.1
v -0.5 0.7 -5.96046e-008
v 0.2 0.7 -5.96046e-008
v -0.6 0.7 0.6
v -0.5 0.7 0.6
v 0.2 0.7 0.6
v 0.3 0.7 0.6
v -0.6 0.7 0.1
v -0.5 0.7 0.1
v 0.2 0.7 0.1
v 0.3 0.7 0.1
v -0.5 0.8 0.7
v 0.2 0.8 0.7
v -0.4 0.8 0.6
v 0.1 0.8 0.6
v -0.4 0.8 0.1
v 0.1 0.8 0.1
v -0.5 0.8 -5.96046e-008
v 0.2 0.8 -5.96046e-008
v -0.4 0.9 0.6
v 0.1 0.9 0.6
v -0.3 0.9 0.5
v 5.96046e-008 0.9 0.5
v -0.3 0.9 0.2
v 5.96046e-008 0.9 0.2
v -0.4 0.9 0.1
v 0.1 0.9 0.1
v -0.3 1 0.5
v 5.96046e-008 1 0.5
v -0.3 1 0.2
v 5.96046e-008 1 0.2

# faces
f 3/4/1 2/4/1 1/4/1
f 4/4/1 2/4/1 3/4/1
f 7/3/1 6/3/1 5/3/1
f 8/3/1 6/3/1 7/3/1
f 13/4/1 10/4/1 9/4/1
f 13/4/1 12/4/1 11/4/1
f 13/4/1 11/4/1 10/4/1
f 14/4/1 12/4/1 13/4/1
f 17/4/1 16/4/1 15/4/1
f 18/4/1 16/4/1 17/4/1
f 21/2/1 20/2/1 19/2/1
f 22/2/1 20/2/1 21/2/1
f 23/3/1 22/3/1 21/3/1
f 24/3/1 22/3/1 23/3/1
f 27/4/1 26/4/1 25/4/1
f 28/4/1 26/4/1 27/4/1
f 33/2/1 30/2/1 29/2/1
f 34/2/1 30/2/1 33/2/1
f 35/2/1 32/2/1 31/2/1
f 36/2/1 32/2/1 35/2/1
f 37/3/1 34/3/1 33/3/1
f 38/3/1 34/3/1 37/3/1
f 39/3/1 36/3/1 35/3/1
f 40/3/1 36/3/1 39/3/1
f 43/3/1 42/3/1 41/3/1
f 44/3/1 42/3/1 43/3/1
f 49/4/1 46/4/1 45/4/1
f 50/4/1 46/4/1 49/4/1
f 51/4/1 48/4/1 47/4/1
f 52/4/1 48/4/1 51/4/1
f 53/4/2 54/4/2 57/4/2
f 57/4/2 54/4/2 58/4/2
f 55/4/2 56/4/2 59/4/2
f 59/4/2 56/4/2 60/4/2
f 61/3/2 62/3/2 63/3/2
f 63/3/2 62/3/2 64/3/2
f 65/2/2 66/2/2 69/2/2
f 69/2/2 66/2/2 70/2/2
f 67/2/2 68/2/2 71/2/2
f 71/2/2 68/2/2 72/2/2
f 69/3/2 70/3/2 73/3/2
f 73/3/2 70/3/2 74/3/2
f 71/3/2 72/3/2 75/3/2
f 75/3/2 72/3/2 76/3/2
f 77/2/2 78/2/2 79/2/2
f 79/2/2 78/2/2 80/2/2
f 79/3/2 80/3/2 81/3/2
f 81/3/2 80/3/2 82/3/2
f 83/4/2 84/4/2 85/4/2
f 85/4/2 84/4/2 86/4/2
f 87/4/2 88/4/2 89/4/2
f 89/4/2 88/4/2 90/4/2
f 91/3/2 92/3/2 93/3/2
f 93/3/2 92/3/2 94/3/2
f 95/4/2 96/4/2 99/4/2
f 97/4/2 98/4/2 99/4/2
f 96/4/2 97/4/2 99/4/2
f 99/4/2 98/4/2 100/4/2
f 101/4/2 102/4/2 103/4/2
f 103/4/2 102/4/2 104/4/2
f 107/4/3 106/4/3 105/4/3
f 108/4/3 106/4/3 107/4/3
f 111/4/3 110/4/3 109/4/3
f 112/4/3 110/4/3 111/4/3
f 115/4/3 114/4/3 113/4/3
f 116/4/3 114/4/3 115/4/3
f 119/4/3 118/4/3 117/4/3
f 120/4/3 118/4/3 119/4/3
f 127/3/3 122/3/3 121/3/3
f 128/2/3 126/2/3 125/2/3
f 129/3/3 127/3/3 126/3/3
f 129/2/3 126/2/3 128/2/3
f 130/3/3 122/3/3 127/3/3
f 130/3/3 127/3/3 129/3/3
f 131/4/3 124/4/3 123/4/3
f 132/4/3 124/4/3 131/4/3
f 133/3/3 122/3/3 130/3/3
f 134/3/3 122/3/3 133/3/3
f 137/3/3 136/3/3 135/3/3
f 138/3/3 136/3/3 137/3/3
f 142/2/3 140/2/3 139/2/3
f 143/3/3 141/3/3 140/3/3
f 143/2/3 140/2/3 142/2/3
f 144/3/3 141/3/3 143/3/3
f 148/2/3 146/2/3 145/2/3
f 149/3/3 147/3/3 146/3/3
f 149/2/3 146/2/3 148/2/3
f 150/3/3 147/3/3 149/3/3
f 153/3/3 152/3/3 151/3/3
f 154/3/3 152/3/3 153/3/3
f 155/3/4 156/3/4 157/3/4
f 157/3/4 156/3/4 158/3/4
f 159/2/4 160/2/4 162/2/4
f 160/3/4 161/3/4 163/3/4
f 162/2/4 160/2/4 163/2/4
f 163/3/4 161/3/4 164/3/4
f 165/2/4 166/2/4 168/2/4
f 166/3/4 167/3/4 169/3/4
f 168/2/4 166/2/4 169/2/4
f 169/3/4 167/3/4 170/3/4
f 171/3/4 172/3/4 173/3/4
f 173/3/4 172/3/4 174/3/4
f 175/3/4 176/3/4 181/3/4
f 179/2/4 180/2/4 182/2/4
f 180/3/4 181/3/4 183/3/4
f 182/2/4 180/2/4 183/2/4
f 181/3/4 176/3/4 184/3/4
f 183/3/4 181/3/4 184/3/4
f 177/4/4 178/4/4 185/4/4
f 185/4/4 178/4/4 186/4/4
f 184/3/4 176/3/4 187/3/4
f 187/3/4 176/3/4 188/3/4
f 189/4/4 190/4/4 191/4/4
f 191/4/4 190/4/4 192/4/4
f 193/4/4 194/4/4 195/4/4
f 195/4/4 194/4/4 196/4/4
f 197/4/4 198/4/4 199/4/4
f 199/4/4 198/4/4 200/4/4
f 201/4/4 202/4/4 203/4/4
f 203/4/4 202/4/4 204/4/4
f 208/2/5 206/2/5 205/2/5
f 209/2/5 206/2/5 208/2/5
f 211/2/5 208/2/5 207/2/5
f 211/2/5 210/2/5 209/2/5
f 211/2/5 209/2/5 208/2/5
f 212/2/5 210/2/5 211/2/5
f 213/2/5 210/2/5 212/2/5
f 214/2/5 210/2/5 213/2/5
f 215/2/5 213/2/5 212/2/5
f 216/2/5 213/2/5 215/2/5
f 221/3/5 218/3/5 217/3/5
f 222/3/5 218/3/5 221/3/5
f 223/3/5 220/3/5 219/3/5
f 224/3/5 220/3/5 223/3/5
f 229/4/5 226/4/5 225/4/5
f 232/4/5 228/4/5 227/4/5
f 233/3/5 230/3/5 229/3/5
f 233/4/5 229/4/5 225/4/5
f 234/3/5 230/3/5 233/3/5
f 235/3/5 230/3/5 234/3/5
f 236/3/5 230/3/5 235/3/5
f 237/3/5 232/3/5 231/3/5
f 238/3/5 232/3/5 237/3/5
f 239/3/5 232/3/5 238/3/5
f 240/4/5 228/4/5 232/4/5
f 240/3/5 232/3/5 239/3/5
f 241/4/5 233/4/5 225/4/5
f 242/3/5 235/3/5 234/3/5
f 243/3/5 235/3/5 242/3/5
f 246/3/5 239/3/5 238/3/5
f 247/3/5 239/3/5 246/3/5
f 248/4/5 228/4/5 240/4/5
f 249/3/5 244/3/5 243/3/5
f 249/4/5 241/4/5 225/4/5
f 249/3/5 242/3/5 241/3/5
f 249/3/5 243/3/5 242/3/5
f 250/3/5 244/3/5 249/3/5
f 251/3/5 247/3/5 246/3/5
f 251/3/5 248/3/5 247/3/5
f 251/3/5 246/3/5 245/3/5
f 252/4/5 228/4/5 248/4/5
f 252/3/5 248/3/5 251/3/5
f 253/4/5 249/4/5 225/4/5
f 254/4/5 249/4/5 253/4/5
f 255/4/5 228/4/5 252/4/5
f 256/4/5 228/4/5 255/4/5
f 259/4/5 258/4/5 257/4/5
f 260/4/5 258/4/5 259/4/5
f 261/4/5 260/4/5 259/4/5
f 262/4/5 260/4/5 261/4/5
f 265/4/5 264/4/5 263/4/5
f 266/4/5 264/4/5 265/4/5
f 267/4/5 266/4/5 265/4/5
f 268/4/5 266/4/5 267/4/5
f 269/4/6 270/4/6 273/4/6
f 273/4/6 270/4/6 274/4/6
f 271/4/6 272/4/6 275/4/6
f 275/4/6 272/4/6 276/4/6
f 277/4/6 278/4/6 279/4/6
f 279/4/6 278/4/6 280/4/6
f 277/4/6 279/4/6 281/4/6
f 280/4/6 278/4/6 282/4/6
f 277/4/6 281/4/6 283/4/6
f 281/4/6 282/4/6 283/4/6
f 282/4/6 278/4/6 284/4/6
f 283/4/6 282/4/6 284/4/6
f 285/4/6 286/4/6 287/4/6
f 287/4/6 286/4/6 288/4/6
f 285/4/6 287/4/6 289/4/6
f 288/4/6 286/4/6 290/4/6
f 285/4/6 289/4/6 291/4/6
f 289/4/6 290/4/6 291/4/6
f 290/4/6 286/4/6 292/4/6
f 291/4/6 290/4/6 292/4/6
f 293/4/6 294/4/6 295/4/6
f 295/4/6 294/4/6 296/4/6
